<svg width="867" height="821" viewBox="0 0 867 821" fill="none" xmlns="http://www.w3.org/2000/svg">
<path d="M322.956 342.299L322.956 342.299C317.955 343.706 313.686 346.961 311.022 351.393C308.357 355.825 307.497 361.101 308.615 366.143L308.615 366.143L400.925 782.744L399.346 783.093L400.925 782.744C401.887 787.085 404.259 790.992 407.677 793.861C411.095 796.73 415.37 798.401 419.841 798.613L836.284 818.458C841.055 818.684 845.753 817.236 849.559 814.368C853.364 811.501 856.035 807.397 857.108 802.774L953.003 388.957L954.873 389.39L953.003 388.957C954.066 384.372 953.491 379.561 951.376 375.351L866.448 206.395L866.448 206.393C864.331 202.171 860.798 198.814 856.456 196.903C852.115 194.993 847.239 194.65 842.67 195.933L322.956 342.299ZM322.956 342.299L842.668 195.933L322.956 342.299Z" stroke="#FFB96A" stroke-width="4"/>
<path d="M195.386 277.16L195.387 277.159L765.156 116.843C770.209 115.425 775.602 115.804 780.403 117.915C785.204 120.026 789.111 123.734 791.451 128.399L791.452 128.4L884.559 313.459C886.898 318.11 887.533 323.424 886.358 328.49L888.306 328.942L886.358 328.49L781.227 781.747C780.041 786.854 777.088 791.388 772.88 794.555C768.672 797.723 763.476 799.323 758.2 799.074L301.647 777.337L301.552 779.335L301.646 777.337C296.703 777.103 291.976 775.257 288.196 772.087C284.416 768.918 281.793 764.601 280.73 759.806L279.151 760.156L280.73 759.806L179.528 303.5L179.528 303.499C178.292 297.93 179.244 292.102 182.19 287.206C185.136 282.309 189.856 278.714 195.386 277.16Z" stroke="#FFB96A" stroke-width="4"/>
<path d="M20.669 183.88L20.6695 183.88L663.317 2.96138C669.073 1.34475 675.216 1.77692 680.685 4.18279C686.154 6.58859 690.605 10.816 693.272 16.1333L693.273 16.1352L798.289 224.977C800.954 230.279 801.678 236.338 800.339 242.113L802.287 242.565L800.339 242.113L681.761 753.62C681.761 753.62 681.761 753.621 681.761 753.621C680.409 759.443 677.044 764.611 672.25 768.222C667.456 771.833 661.537 773.656 655.527 773.372L140.578 748.842C134.946 748.575 129.561 746.471 125.255 742.858C120.948 739.245 117.96 734.324 116.748 728.857L115.169 729.206L116.748 728.857L2.60217 213.909L2.60209 213.909C1.19337 207.559 2.27766 200.914 5.63466 195.332C8.99187 189.75 14.3694 185.652 20.669 183.88Z" stroke="#FFB96A" stroke-width="4"/>
</svg>
