<svg width="640" height="628" viewBox="-6 -6 640 628" fill="none" xmlns="http://www.w3.org/2000/svg">
<path d="M16.8194 149.13L16.8189 149.13C11.818 150.537 7.54949 153.791 4.88482 158.223C2.22033 162.656 1.35981 167.932 2.47786 172.973L2.47795 172.973L94.7882 589.574L93.2096 589.924L94.7883 589.574C95.7499 593.915 98.1219 597.822 101.54 600.691C104.959 603.56 109.233 605.231 113.704 605.443L530.147 625.288C534.918 625.514 539.616 624.066 543.422 621.198C547.228 618.331 549.898 614.227 550.971 609.604L646.866 195.787L648.736 196.221L646.866 195.787C647.929 191.202 647.354 186.391 645.239 182.181L560.312 13.225L560.311 13.2231C558.194 9.00103 554.661 5.64402 550.32 3.73346C545.978 1.82302 541.102 1.47969 536.533 2.76315L16.8194 149.13ZM16.8194 149.13L536.532 2.76349L16.8194 149.13Z" stroke="#FFB96A" stroke-width="10"/>
</svg>
