<svg width="306" height="297" viewBox="0 0 306 297" fill="none" xmlns="http://www.w3.org/2000/svg">
<path fill-rule="evenodd" clip-rule="evenodd" d="M7.20191 71.8776L251.91 1.09279C256.105 -0.120807 260.57 1.82493 262.538 5.72417L304.198 88.2908C305.158 90.193 305.418 92.372 304.933 94.4467L259.363 289.42C258.367 293.683 254.47 296.627 250.098 296.422L53.5312 287.21C49.4446 287.019 45.991 284.118 45.0971 280.125L0.865396 82.5823C-0.182951 77.9002 2.59291 73.2108 7.20191 71.8776ZM7.68007 75.5122L252.939 7.51115C254.606 7.04887 256.37 7.81108 257.176 9.34203L299.567 89.8541C300.225 91.1042 300.419 92.547 300.115 93.9265L257.295 288.003C256.428 291.932 252.861 294.668 248.841 294.487L54.3153 285.741C50.5641 285.573 47.3966 282.9 46.5996 279.23L3.76257 82C3.14156 79.1407 4.86054 76.2939 7.68007 75.5122Z" fill="#FFB96A"/>
</svg>
