<svg width="644" height="748" viewBox="0 0 644 748" fill="none" xmlns="http://www.w3.org/2000/svg">
<path d="M21.0605 180.344L21.0618 180.344L650.906 5.81853C655.887 4.44172 661.202 4.81089 665.929 6.85735L667.914 2.27264L665.929 6.85736C670.654 8.90312 674.477 12.4877 676.76 16.9682L676.762 16.9731L779.686 218.434C779.686 218.434 779.686 218.435 779.686 218.435C781.966 222.901 782.583 227.994 781.44 232.847L781.439 232.847L665.224 726.277C664.069 731.172 661.19 735.538 657.061 738.599C652.93 741.661 647.816 743.217 642.611 742.976C642.61 742.976 642.61 742.975 642.609 742.975L137.918 719.312L137.917 719.312C133.041 719.084 128.391 717.292 124.683 714.23C120.977 711.169 118.421 707.015 117.387 702.42L112.509 703.518L117.386 702.419L5.51446 205.669L5.51424 205.668C4.31193 200.334 5.23456 194.747 8.10922 190.042C10.9861 185.334 15.6111 181.852 21.0605 180.344Z" stroke="url(#paint0_linear_352_14)" stroke-width="10"/>
<defs>
<linearGradient id="paint0_linear_352_14" x1="361.5" y1="687" x2="365" y2="35.5" gradientUnits="userSpaceOnUse">
<stop stop-color="#FFB96A" stop-opacity="0"/>
<stop offset="1" stop-color="#FFB96A"/>
</linearGradient>
</defs>
</svg>
