<svg width="323" height="309" viewBox="0 0 323 309" fill="none" xmlns="http://www.w3.org/2000/svg">
<g clip-path="url(#clip0_399_14)">
<path fill-rule="evenodd" clip-rule="evenodd" d="M162.109 24.7235C162.109 36.1889 167.5 46.3952 175.886 52.9454C171.122 61.9618 168.425 72.2389 168.425 83.1459C168.425 118.9 197.409 147.884 233.163 147.884C247.886 147.884 261.46 142.97 272.336 134.692C278.263 146.273 290.314 154.2 304.217 154.2C311.106 154.2 317.54 152.254 323 148.881L289.499 298.536C288.882 301.29 287.345 303.734 285.157 305.441C282.969 307.147 280.268 308.009 277.526 307.874L59.4837 297.118C56.9147 296.992 54.4574 295.998 52.4916 294.29C50.5257 292.582 49.1606 290.255 48.6071 287.668L0.275042 61.8675C-0.368528 58.8636 0.126967 55.72 1.66014 53.08C3.19331 50.44 5.64825 48.5033 8.52249 47.6661L172.02 0C165.88 6.42545 162.109 15.134 162.109 24.7235Z" fill="#FFB96A"/>
<circle cx="102" cy="159" r="26" fill="#5D2907"/>
<circle cx="154.74" cy="263.677" r="15.7898" fill="#5D2907"/>
<circle cx="181.057" cy="198.412" r="17.8952" fill="#5D2907"/>
<circle cx="117.898" cy="81.5672" r="10.5266" fill="#5D2907"/>
<circle cx="262.112" cy="169.99" r="10.5266" fill="#5D2907"/>
<circle cx="262.112" cy="92.0938" r="10.5266" fill="#FFB96A"/>
<circle cx="288.428" cy="11.0393" r="10.5266" fill="#FFB96A"/>
<circle cx="231.584" cy="29.9871" r="10.5266" fill="#FFB96A"/>
</g>
<defs>
<clipPath id="clip0_399_14">
<rect width="323" height="309" fill="white"/>
</clipPath>
</defs>
</svg>