<svg width="41" height="40" viewBox="0 0 41 40" fill="none" xmlns="http://www.w3.org/2000/svg">
<path d="M40.4288 20.0745C40.4288 8.98647 31.4423 0 20.3543 0C9.26626 0 0.279785 8.98647 0.279785 20.0745C0.279785 29.4844 6.76479 37.3887 15.5082 39.5609V26.2066H11.3678V20.0745H15.5082V17.4319C15.5082 10.6018 18.5978 7.43384 25.3102 7.43384C26.5805 7.43384 28.7762 7.68477 29.6779 7.9357V13.4876C29.2074 13.4405 28.3841 13.4091 27.3568 13.4091C24.0634 13.4091 22.793 14.6559 22.793 17.8945V20.0745H29.3486L28.2194 26.2066H22.7852V40C32.7283 38.8002 40.4288 30.3391 40.4288 20.0745Z" fill="#E8EBFF"/>
</svg>
