<svg width="196" height="32" viewBox="0 0 196 32" fill="none" xmlns="http://www.w3.org/2000/svg">
<path d="M5.4 6.06001V14.62H16.24V18.92H5.4V30.7H0V1.78001H18.24V6.06001H5.4Z" fill="#242424"/>
<path d="M29.1594 9.86001C30.6794 9.86001 32.0594 10.1067 33.2994 10.6C34.5527 11.0933 35.6194 11.7933 36.4994 12.7C37.3927 13.6067 38.0794 14.7133 38.5594 16.02C39.0394 17.3267 39.2794 18.7867 39.2794 20.4C39.2794 22.0267 39.0394 23.4933 38.5594 24.8C38.0794 26.1067 37.3927 27.22 36.4994 28.14C35.6194 29.06 34.5527 29.7667 33.2994 30.26C32.0594 30.7533 30.6794 31 29.1594 31C27.626 31 26.2327 30.7533 24.9794 30.26C23.726 29.7667 22.6527 29.06 21.7594 28.14C20.8794 27.22 20.1927 26.1067 19.6994 24.8C19.2194 23.4933 18.9794 22.0267 18.9794 20.4C18.9794 18.7867 19.2194 17.3267 19.6994 16.02C20.1927 14.7133 20.8794 13.6067 21.7594 12.7C22.6527 11.7933 23.726 11.0933 24.9794 10.6C26.2327 10.1067 27.626 9.86001 29.1594 9.86001ZM29.1594 27.2C30.866 27.2 32.126 26.6267 32.9394 25.48C33.766 24.3333 34.1794 22.6533 34.1794 20.44C34.1794 18.2267 33.766 16.54 32.9394 15.38C32.126 14.22 30.866 13.64 29.1594 13.64C27.426 13.64 26.1394 14.2267 25.2994 15.4C24.4727 16.56 24.0594 18.24 24.0594 20.44C24.0594 22.64 24.4727 24.32 25.2994 25.48C26.1394 26.6267 27.426 27.2 29.1594 27.2Z" fill="#242424"/>
<path d="M47.7081 13.74C48.3481 12.5133 49.1081 11.5533 49.9881 10.86C50.8681 10.1533 51.9081 9.80001 53.1081 9.80001C54.0548 9.80001 54.8148 10.0067 55.3881 10.42L55.0681 14.12C55.0015 14.36 54.9015 14.5333 54.7681 14.64C54.6481 14.7333 54.4815 14.78 54.2681 14.78C54.0681 14.78 53.7681 14.7467 53.3681 14.68C52.9815 14.6133 52.6015 14.58 52.2281 14.58C51.6815 14.58 51.1948 14.66 50.7681 14.82C50.3415 14.98 49.9548 15.2133 49.6081 15.52C49.2748 15.8133 48.9748 16.1733 48.7081 16.6C48.4548 17.0267 48.2148 17.5133 47.9881 18.06V30.7H43.0481V10.18H45.9481C46.4548 10.18 46.8081 10.2733 47.0081 10.46C47.2081 10.6333 47.3415 10.9533 47.4081 11.42L47.7081 13.74Z" fill="#242424"/>
<path d="M57.97 30.7V10.18H60.99C61.63 10.18 62.05 10.48 62.25 11.08L62.57 12.6C62.93 12.2 63.3033 11.8333 63.69 11.5C64.09 11.1667 64.51 10.88 64.95 10.64C65.4033 10.4 65.8833 10.2133 66.39 10.08C66.91 9.93334 67.4767 9.86001 68.09 9.86001C69.3833 9.86001 70.4433 10.2133 71.27 10.92C72.11 11.6133 72.7367 12.54 73.15 13.7C73.47 13.02 73.87 12.44 74.35 11.96C74.83 11.4667 75.3567 11.0667 75.93 10.76C76.5033 10.4533 77.11 10.2267 77.75 10.08C78.4033 9.93334 79.0567 9.86001 79.71 9.86001C80.8433 9.86001 81.85 10.0333 82.73 10.38C83.61 10.7267 84.35 11.2333 84.95 11.9C85.55 12.5667 86.0033 13.38 86.31 14.34C86.63 15.3 86.79 16.4 86.79 17.64V30.7H81.85V17.64C81.85 16.3333 81.5633 15.3533 80.99 14.7C80.4167 14.0333 79.5767 13.7 78.47 13.7C77.9633 13.7 77.49 13.7867 77.05 13.96C76.6233 14.1333 76.2433 14.3867 75.91 14.72C75.59 15.04 75.3367 15.4467 75.15 15.94C74.9633 16.4333 74.87 17 74.87 17.64V30.7H69.91V17.64C69.91 16.2667 69.63 15.2667 69.07 14.64C68.5233 14.0133 67.7167 13.7 66.65 13.7C65.93 13.7 65.2567 13.88 64.63 14.24C64.0167 14.5867 63.4433 15.0667 62.91 15.68V30.7H57.97Z" fill="#242424"/>
<path d="M102.326 21.94C100.899 22.0067 99.699 22.1333 98.7256 22.32C97.7523 22.4933 96.9723 22.72 96.3856 23C95.799 23.28 95.379 23.6067 95.1256 23.98C94.8723 24.3533 94.7456 24.76 94.7456 25.2C94.7456 26.0667 94.999 26.6867 95.5056 27.06C96.0256 27.4333 96.699 27.62 97.5256 27.62C98.539 27.62 99.4123 27.44 100.146 27.08C100.892 26.7067 101.619 26.1467 102.326 25.4V21.94ZM91.0056 13.04C93.3656 10.88 96.2056 9.80001 99.5256 9.80001C100.726 9.80001 101.799 10 102.746 10.4C103.692 10.7867 104.492 11.3333 105.146 12.04C105.799 12.7333 106.292 13.5667 106.626 14.54C106.972 15.5133 107.146 16.58 107.146 17.74V30.7H104.906C104.439 30.7 104.079 30.6333 103.826 30.5C103.572 30.3533 103.372 30.0667 103.226 29.64L102.786 28.16C102.266 28.6267 101.759 29.04 101.266 29.4C100.772 29.7467 100.259 30.04 99.7256 30.28C99.1923 30.52 98.619 30.7 98.0056 30.82C97.4056 30.9533 96.739 31.02 96.0056 31.02C95.139 31.02 94.339 30.9067 93.6056 30.68C92.8723 30.44 92.239 30.0867 91.7056 29.62C91.1723 29.1533 90.759 28.5733 90.4656 27.88C90.1723 27.1867 90.0256 26.38 90.0256 25.46C90.0256 24.94 90.1123 24.4267 90.2856 23.92C90.459 23.4 90.739 22.9067 91.1256 22.44C91.5256 21.9733 92.039 21.5333 92.6656 21.12C93.2923 20.7067 94.059 20.3467 94.9656 20.04C95.8856 19.7333 96.9523 19.4867 98.1656 19.3C99.379 19.1 100.766 18.98 102.326 18.94V17.74C102.326 16.3667 102.032 15.3533 101.446 14.7C100.859 14.0333 100.012 13.7 98.9056 13.7C98.1056 13.7 97.439 13.7933 96.9056 13.98C96.3856 14.1667 95.9256 14.38 95.5256 14.62C95.1256 14.8467 94.759 15.0533 94.4256 15.24C94.1056 15.4267 93.7456 15.52 93.3456 15.52C92.999 15.52 92.7056 15.4333 92.4656 15.26C92.2256 15.0733 92.0323 14.86 91.8856 14.62L91.0056 13.04Z" fill="#242424"/>
<path d="M111.798 30.7V10.18H114.818C115.458 10.18 115.878 10.48 116.078 11.08L116.398 12.6C116.758 12.2 117.131 11.8333 117.518 11.5C117.918 11.1667 118.338 10.88 118.778 10.64C119.231 10.4 119.711 10.2133 120.218 10.08C120.738 9.93334 121.305 9.86001 121.918 9.86001C123.211 9.86001 124.271 10.2133 125.098 10.92C125.938 11.6133 126.565 12.54 126.978 13.7C127.298 13.02 127.698 12.44 128.178 11.96C128.658 11.4667 129.185 11.0667 129.758 10.76C130.331 10.4533 130.938 10.2267 131.578 10.08C132.231 9.93334 132.885 9.86001 133.538 9.86001C134.671 9.86001 135.678 10.0333 136.558 10.38C137.438 10.7267 138.178 11.2333 138.778 11.9C139.378 12.5667 139.831 13.38 140.138 14.34C140.458 15.3 140.618 16.4 140.618 17.64V30.7H135.678V17.64C135.678 16.3333 135.391 15.3533 134.818 14.7C134.245 14.0333 133.405 13.7 132.298 13.7C131.791 13.7 131.318 13.7867 130.878 13.96C130.451 14.1333 130.071 14.3867 129.738 14.72C129.418 15.04 129.165 15.4467 128.978 15.94C128.791 16.4333 128.698 17 128.698 17.64V30.7H123.738V17.64C123.738 16.2667 123.458 15.2667 122.898 14.64C122.351 14.0133 121.545 13.7 120.478 13.7C119.758 13.7 119.085 13.88 118.458 14.24C117.845 14.5867 117.271 15.0667 116.738 15.68V30.7H111.798Z" fill="#242424"/>
<path d="M150.434 10.18V30.7H145.474V10.18H150.434ZM151.114 4.20001C151.114 4.62668 151.027 5.02668 150.854 5.40001C150.68 5.77334 150.447 6.10001 150.154 6.38001C149.874 6.66001 149.54 6.88668 149.154 7.06001C148.767 7.22001 148.354 7.30001 147.914 7.30001C147.487 7.30001 147.08 7.22001 146.694 7.06001C146.32 6.88668 145.994 6.66001 145.714 6.38001C145.434 6.10001 145.207 5.77334 145.034 5.40001C144.874 5.02668 144.794 4.62668 144.794 4.20001C144.794 3.76001 144.874 3.34668 145.034 2.96001C145.207 2.57334 145.434 2.24001 145.714 1.96001C145.994 1.68001 146.32 1.46001 146.694 1.30001C147.08 1.12668 147.487 1.04001 147.914 1.04001C148.354 1.04001 148.767 1.12668 149.154 1.30001C149.54 1.46001 149.874 1.68001 150.154 1.96001C150.447 2.24001 150.68 2.57334 150.854 2.96001C151.027 3.34668 151.114 3.76001 151.114 4.20001Z" fill="#242424"/>
<path d="M160.09 12.7C160.503 12.2867 160.937 11.9067 161.39 11.56C161.857 11.2 162.343 10.9 162.85 10.66C163.37 10.4067 163.923 10.2133 164.51 10.08C165.097 9.93334 165.737 9.86001 166.43 9.86001C167.55 9.86001 168.543 10.0533 169.41 10.44C170.277 10.8133 170.997 11.3467 171.57 12.04C172.157 12.72 172.597 13.54 172.89 14.5C173.197 15.4467 173.35 16.4933 173.35 17.64V30.7H168.41V17.64C168.41 16.3867 168.123 15.42 167.55 14.74C166.977 14.0467 166.103 13.7 164.93 13.7C164.077 13.7 163.277 13.8933 162.53 14.28C161.783 14.6667 161.077 15.1933 160.41 15.86V30.7H155.47V10.18H158.49C159.13 10.18 159.55 10.48 159.75 11.08L160.09 12.7Z" fill="#242424"/>
<path d="M190.928 15.42C190.368 14.74 189.755 14.26 189.088 13.98C188.435 13.7 187.728 13.56 186.968 13.56C186.221 13.56 185.548 13.7 184.948 13.98C184.348 14.26 183.835 14.6867 183.408 15.26C182.981 15.82 182.655 16.54 182.428 17.42C182.201 18.2867 182.088 19.3133 182.088 20.5C182.088 21.7 182.181 22.72 182.368 23.56C182.568 24.3867 182.848 25.0667 183.208 25.6C183.568 26.12 184.008 26.5 184.528 26.74C185.048 26.9667 185.628 27.08 186.268 27.08C187.295 27.08 188.168 26.8667 188.888 26.44C189.608 26.0133 190.288 25.4067 190.928 24.62V15.42ZM195.868 0.980011V30.7H192.848C192.195 30.7 191.781 30.4 191.608 29.8L191.188 27.82C190.361 28.7667 189.408 29.5333 188.328 30.12C187.261 30.7067 186.015 31 184.588 31C183.468 31 182.441 30.7667 181.508 30.3C180.575 29.8333 179.768 29.16 179.088 28.28C178.421 27.3867 177.901 26.2867 177.528 24.98C177.168 23.6733 176.988 22.18 176.988 20.5C176.988 18.98 177.195 17.5667 177.608 16.26C178.021 14.9533 178.615 13.82 179.388 12.86C180.161 11.9 181.088 11.1533 182.168 10.62C183.248 10.0733 184.461 9.80001 185.808 9.80001C186.955 9.80001 187.935 9.98001 188.748 10.34C189.561 10.7 190.288 11.1867 190.928 11.8V0.980011H195.868Z" fill="#242424"/>
</svg>
