<svg width="41" height="40" viewBox="0 0 41 40" fill="none" xmlns="http://www.w3.org/2000/svg">
<path d="M20.7189 9.74451C15.0422 9.74451 10.4634 14.3233 10.4634 20C10.4634 25.6767 15.0422 30.2555 20.7189 30.2555C26.3956 30.2555 30.9744 25.6767 30.9744 20C30.9744 14.3233 26.3956 9.74451 20.7189 9.74451ZM20.7189 26.6674C17.0505 26.6674 14.0515 23.6773 14.0515 20C14.0515 16.3227 17.0415 13.3326 20.7189 13.3326C24.3962 13.3326 27.3863 16.3227 27.3863 20C27.3863 23.6773 24.3873 26.6674 20.7189 26.6674ZM33.7859 9.325C33.7859 10.6549 32.7149 11.7171 31.3939 11.7171C30.064 11.7171 29.0018 10.646 29.0018 9.325C29.0018 8.00402 30.0729 6.93295 31.3939 6.93295C32.7149 6.93295 33.7859 8.00402 33.7859 9.325ZM40.5783 11.7528C40.4266 8.54848 39.6947 5.71014 37.3472 3.37164C35.0087 1.03314 32.1704 0.301238 28.9661 0.140578C25.6637 -0.0468593 15.7652 -0.0468593 12.4627 0.140578C9.26736 0.292313 6.42903 1.02421 4.0816 3.36271C1.73417 5.70122 1.0112 8.53955 0.850539 11.7438C0.663102 15.0463 0.663102 24.9448 0.850539 28.2472C1.00227 31.4515 1.73417 34.2899 4.0816 36.6284C6.42903 38.9669 9.25844 39.6988 12.4627 39.8594C15.7652 40.0469 25.6637 40.0469 28.9661 39.8594C32.1704 39.7077 35.0087 38.9758 37.3472 36.6284C39.6858 34.2899 40.4177 31.4515 40.5783 28.2472C40.7657 24.9448 40.7657 15.0552 40.5783 11.7528ZM36.3119 31.7907C35.6157 33.5401 34.2679 34.8879 32.5096 35.593C29.8765 36.6373 23.6286 36.3963 20.7189 36.3963C17.8091 36.3963 11.5523 36.6284 8.92819 35.593C7.17878 34.8968 5.83101 33.549 5.12589 31.7907C4.0816 29.1576 4.32259 22.9097 4.32259 20C4.32259 17.0903 4.09053 10.8334 5.12589 8.20931C5.82209 6.45989 7.16985 5.11213 8.92819 4.40701C11.5612 3.36271 17.8091 3.6037 20.7189 3.6037C23.6286 3.6037 29.8855 3.37164 32.5096 4.40701C34.259 5.1032 35.6068 6.45097 36.3119 8.20931C37.3562 10.8424 37.1152 17.0903 37.1152 20C37.1152 22.9097 37.3562 29.1666 36.3119 31.7907Z" fill="#E8EBFF"/>
</svg>
