<svg width="665" height="423" viewBox="0 0 665 423" fill="none" xmlns="http://www.w3.org/2000/svg" preserveAspectRatio="none">
<path fill-rule="evenodd" clip-rule="evenodd" d="M664.5 422.5C664.5 420.377 664.442 418.266 664.326 416.169L658.335 416.499C658.445 418.486 658.5 420.487 658.5 422.5H664.5ZM662.93 403.627C662.228 399.464 661.294 395.359 660.135 391.311L654.367 392.964C655.465 396.798 656.349 400.685 657.013 404.624L662.93 403.627ZM656.005 379.392C654.429 375.528 652.641 371.724 650.649 367.981L645.352 370.8C647.252 374.368 648.952 377.988 650.449 381.658L656.005 379.392ZM644.218 357.169C641.948 353.724 639.5 350.337 636.878 347.008L632.165 350.72C634.686 353.922 637.035 357.172 639.208 360.47L644.218 357.169ZM628.76 337.478C625.984 334.455 623.06 331.483 619.992 328.564L615.856 332.91C618.83 335.74 621.659 338.616 624.34 341.536L628.76 337.478ZM610.686 320.237C607.557 317.599 604.306 315.008 600.936 312.464L597.321 317.252C600.608 319.734 603.775 322.259 606.819 324.824L610.686 320.237ZM590.82 305.207C587.447 302.906 583.972 300.646 580.398 298.428L577.235 303.526C580.737 305.7 584.14 307.913 587.439 310.163L590.82 305.207ZM569.722 292.092C566.176 290.079 562.544 288.103 558.829 286.165L556.054 291.484C559.708 293.391 563.277 295.333 566.76 297.31L569.722 292.092ZM547.752 280.615C544.078 278.848 540.332 277.114 536.514 275.416L534.075 280.897C537.84 282.573 541.532 284.281 545.151 286.022L547.752 280.615ZM525.135 270.541C521.363 268.985 517.528 267.461 513.632 265.969L511.486 271.573C515.336 273.047 519.124 274.552 522.848 276.088L525.135 270.541ZM502.016 261.681C498.164 260.31 494.257 258.969 490.298 257.659L488.412 263.355C492.331 264.652 496.195 265.978 500.004 267.334L502.016 261.681ZM478.523 253.898C474.628 252.699 470.685 251.527 466.696 250.383L465.042 256.151C468.995 257.284 472.9 258.444 476.757 259.633L478.523 253.898ZM454.791 247.09C450.84 246.037 446.848 245.01 442.814 244.01L441.37 249.834C445.37 250.825 449.329 251.844 453.245 252.888L454.791 247.09ZM430.772 241.134C426.801 240.22 422.791 239.331 418.746 238.468L417.494 244.336C421.509 245.193 425.487 246.074 429.427 246.981L430.772 241.134ZM406.659 235.987C402.643 235.195 398.594 234.427 394.513 233.684L393.438 239.587C397.491 240.325 401.511 241.087 405.497 241.874L406.659 235.987ZM382.345 231.558C378.319 230.884 374.264 230.233 370.18 229.606L369.27 235.537C373.327 236.159 377.355 236.806 381.354 237.475L382.345 231.558ZM357.965 227.814C353.905 227.246 349.818 226.7 345.706 226.178L344.95 232.13C349.037 232.649 353.099 233.191 357.133 233.756L357.965 227.814ZM333.486 224.703C331.437 224.469 329.383 224.24 327.323 224.017C325.353 223.804 323.39 223.582 321.432 223.351L320.728 229.309C322.705 229.543 324.688 229.767 326.677 229.983C328.725 230.204 330.767 230.432 332.803 230.665L333.486 224.703ZM309.756 221.855C305.831 221.313 301.932 220.735 298.058 220.121L297.119 226.048C301.032 226.667 304.971 227.252 308.935 227.799L309.756 221.855ZM286.423 218.158C282.538 217.462 278.682 216.73 274.855 215.963L273.676 221.846C277.544 222.621 281.44 223.36 285.364 224.064L286.423 218.158ZM263.299 213.523C259.435 212.665 255.603 211.771 251.803 210.842L250.378 216.67C254.22 217.609 258.093 218.513 261.998 219.38L263.299 213.523ZM240.389 207.922C236.572 206.901 232.79 205.845 229.042 204.755L227.366 210.516C231.155 211.619 234.98 212.686 238.839 213.718L240.389 207.922ZM217.739 201.327C213.965 200.136 210.231 198.91 206.535 197.649L204.598 203.328C208.337 204.604 212.116 205.844 215.933 207.049L217.739 201.327ZM195.438 193.718C191.727 192.354 188.059 190.955 184.435 189.523L182.229 195.102C185.899 196.553 189.612 197.969 193.368 199.35L195.438 193.718ZM173.513 185.047C169.868 183.5 166.271 181.918 162.723 180.302L160.237 185.763C163.832 187.4 167.477 189.003 171.168 190.57L173.513 185.047ZM152.074 175.283C148.522 173.55 145.023 171.783 141.578 169.983L138.799 175.3C142.293 177.126 145.842 178.918 149.444 180.675L152.074 175.283ZM131.228 164.385C127.769 162.449 124.369 160.479 121.032 158.476L117.945 163.621C121.335 165.655 124.786 167.655 128.298 169.621L131.228 164.385ZM111.032 152.263C107.702 150.119 104.44 147.943 101.248 145.736L97.8354 150.671C101.083 152.916 104.4 155.129 107.785 157.308L111.032 152.263ZM91.6987 138.886C88.5238 136.522 85.4265 134.127 82.4087 131.702L78.6505 136.379C81.7271 138.852 84.8829 141.292 88.116 143.699L91.6987 138.886ZM73.4054 124.175C70.4208 121.577 67.5253 118.949 64.721 116.293L60.5952 120.65C63.4618 123.365 66.4196 126.049 69.4662 128.701L73.4054 124.175ZM56.3932 108.047C53.6469 105.2 51.0037 102.325 48.4659 99.4255L43.9507 103.377C46.5542 106.352 49.2632 109.298 52.0752 112.212L56.3932 108.047ZM40.9904 90.4228C38.5485 87.3172 36.2262 84.1868 34.0261 81.0344L29.1059 84.4682C31.3731 87.7168 33.7635 90.9389 36.2739 94.1315L40.9904 90.4228ZM27.641 71.2616C25.5914 67.8979 23.6806 64.5136 21.9115 61.1124L16.5885 63.881C18.4219 67.4059 20.3994 70.9079 22.5172 74.3836L27.641 71.2616ZM16.9218 50.6045C15.3747 47.0054 13.9868 43.3917 12.7614 39.7674L7.07747 41.6891C8.35553 45.4693 9.80106 49.2323 11.4095 52.974L16.9218 50.6045ZM9.52182 28.6446C8.59734 24.8626 7.85169 21.0731 7.28865 17.2803L1.35369 18.1614C1.94449 22.1411 2.7261 26.112 3.69342 30.0693L9.52182 28.6446ZM6.1449 5.77448C6.04847 3.84946 6 1.92444 6 0H0C0 2.02524 0.0510132 4.05032 0.15241 6.07465L6.1449 5.77448Z" fill="#FFB96A"/>
</svg>
