<svg width="371" height="371" viewBox="0 0 371 371" fill="none" xmlns="http://www.w3.org/2000/svg">
<path d="M126.914 25.5144H122.093V129.158H126.914V25.5144Z" fill="#3E629B"/>
<path d="M52.167 26.3863V129.233C52.167 129.271 52.1982 129.302 52.2367 129.302H121.291C121.33 129.302 121.361 129.271 121.361 129.233V26.3863C121.361 26.3477 121.33 26.3165 121.291 26.3165H52.2367C52.1982 26.3165 52.167 26.3477 52.167 26.3863Z" fill="#5274B8"/>
<path d="M122.093 130.104H51.435C51.3964 130.104 51.3652 130.073 51.3652 130.034V25.5842C51.3652 25.5456 51.3964 25.5144 51.435 25.5144H122.093C122.131 25.5144 122.162 25.5456 122.162 25.5842V130.034C122.162 130.073 122.131 130.104 122.093 130.104ZM53.0377 128.5H120.488C120.527 128.5 120.558 128.469 120.558 128.431V27.1876C120.558 27.149 120.527 27.1179 120.488 27.1179H53.0377C52.9991 27.1179 52.968 27.149 52.968 27.1876V128.431C52.9687 128.469 52.9999 128.5 53.0377 128.5Z" fill="#5274B8"/>
<path d="M59.1338 32.7392V122.811C59.1338 122.85 59.165 122.881 59.2035 122.881H114.445C114.484 122.881 114.515 122.85 114.515 122.811V32.7392C114.515 32.7007 114.484 32.6695 114.445 32.6695H59.2035C59.165 32.6695 59.1338 32.7007 59.1338 32.7392Z" fill="white"/>
<path d="M102.264 94.6918H71.2633C71.2373 94.6918 71.2158 94.6703 71.2158 94.6443V58.2922C71.2158 58.2655 71.2373 58.2448 71.2633 58.2448H102.264C102.291 58.2448 102.312 58.2663 102.312 58.2922V94.6443C102.312 94.6703 102.29 94.6918 102.264 94.6918Z" fill="#5274B8"/>
<path d="M99.8501 90.2309C99.8901 90.3482 98.3557 91.0204 95.4352 90.6783C93.9972 90.4832 92.2075 89.966 90.4719 88.695C88.7735 87.4232 87.1619 85.3716 86.6158 82.6299C86.0489 79.9097 86.9586 76.5187 89.5652 74.3388C90.213 73.7978 90.9661 73.3415 91.8016 73.0284C92.689 72.6989 93.6477 72.5899 94.5989 72.7064C95.545 72.8221 96.5474 73.1516 97.3955 73.9277C98.2525 74.7053 98.7215 76.0179 98.4981 77.1858C98.2956 78.3648 97.653 79.2686 96.9629 79.9824C96.2506 80.7103 95.4433 81.2475 94.6205 81.7083C92.948 82.6321 91.0358 83.2108 89.0317 83.3043C87.0365 83.4001 84.9277 82.9905 83.0764 81.9487C81.2422 80.9188 79.6743 79.3576 78.6934 77.4054C77.6991 75.477 77.3831 73.136 77.9069 71.0428C78.4115 68.957 79.5964 67.0924 81.2607 65.8006C82.0962 65.1535 83.0408 64.6749 84.0722 64.3811C85.111 64.1147 86.1817 64.065 87.2376 64.2824C88.2823 64.5021 89.35 65.0155 90.1106 65.903C90.8815 66.7822 91.2265 67.9308 91.2369 68.9726C91.2533 70.0203 90.9676 71.0421 90.4875 71.8968C90.0163 72.7546 89.3819 73.4498 88.7141 74.0286C87.3689 75.1676 85.8589 75.917 84.3089 76.3696C82.7596 76.8148 81.171 76.932 79.6743 76.7273C78.1822 76.5165 76.7768 75.9674 75.6408 75.1824C73.3488 73.6272 72.0243 71.2639 71.7884 69.0809C71.5287 66.8579 72.3419 65.0341 73.216 63.8498C74.1145 62.6419 75.1467 62.0238 75.856 61.7411C76.5824 61.4658 76.9965 61.4754 77.0143 61.5444C77.0447 61.6431 76.6856 61.8034 76.0964 62.1967C75.5199 62.5973 74.7044 63.2726 74.0433 64.4034C73.3978 65.5119 72.865 67.1206 73.2026 68.8717C73.5098 70.6169 74.7037 72.4919 76.6277 73.6687C78.5116 74.8656 81.1546 75.1735 83.693 74.3417C84.9507 73.9359 86.2039 73.2577 87.2286 72.3413C88.2452 71.4294 88.9375 70.2555 88.8803 69.0283C88.8477 67.7973 88.0716 66.9291 86.7523 66.6769C86.109 66.5515 85.387 66.5915 84.7192 66.7726C84.0559 66.9751 83.3814 67.3135 82.8011 67.7773C81.6273 68.7003 80.7399 70.1012 80.3822 71.6319C80.0142 73.1612 80.2338 74.7825 80.9758 76.2524C81.7067 77.7186 82.9243 78.9399 84.3215 79.7301C85.7127 80.5226 87.3318 80.8602 88.9249 80.8008C90.5202 80.7437 92.0858 80.2933 93.4518 79.5632C94.1426 79.1899 94.7785 78.77 95.2586 78.2899C95.7505 77.8091 96.0926 77.26 96.1749 76.7963C96.2647 76.3266 96.1215 75.9185 95.8047 75.5942C95.4715 75.264 94.9046 75.0147 94.3073 74.9346C93.707 74.8433 93.0853 74.8997 92.5443 75.0845C91.9493 75.2885 91.395 75.5987 90.9015 75.9845C89.9147 76.7577 89.1742 77.8165 88.7594 78.9354C88.3372 80.0574 88.2385 81.2178 88.3988 82.3249C88.7275 84.5487 89.98 86.3888 91.3616 87.5738C92.7706 88.7655 94.3259 89.3791 95.6207 89.6996C98.2503 90.3118 99.8293 90.0091 99.8501 90.2309Z" fill="#FCB86A"/>
<path d="M309.191 327.921C308.266 327.146 306.205 324.691 307.795 321.834C308.378 320.787 309.616 320.269 310.736 319.808C311.857 319.346 313.034 318.946 313.962 318.174C315.71 316.719 316.193 314.303 317.353 312.363C318.686 310.135 321.173 308.466 323.801 308.583C326.809 308.717 329.319 311.12 330.456 313.86C331.594 316.6 331.634 319.642 331.657 322.602C331.67 324.238 331.595 326.082 330.367 327.187C329.235 328.206 327.53 328.218 325.995 328.172C320.514 328.008 315.032 327.843 309.551 327.678" fill="#FCB86A"/>
<path d="M340.641 283.706H297.396L305.186 329.124C305.527 331.109 306.994 332.637 308.878 333.168C308.928 333.184 308.979 333.195 309.03 333.209C309.158 333.241 309.283 333.284 309.415 333.306C309.7 333.364 309.995 333.393 310.294 333.405C310.296 333.419 310.299 333.435 310.301 333.449L310.511 333.416C310.512 333.416 310.512 333.416 310.513 333.416H329.786C330.149 333.416 330.502 333.38 330.845 333.313C333.122 332.969 334.943 331.183 335.22 328.874L338.975 297.579L339.144 296.335H339.124L340.611 283.941L340.641 283.706ZM332.483 312.678H328.045L328.492 299.496H333.634L332.483 312.678ZM334.065 299.496H338.314L336.732 312.678H332.914L334.065 299.496ZM321.387 327.29L321.117 315.839H327.508L327.119 327.29H321.387ZM314.478 315.839H320.688L320.957 327.29H315.388L314.478 315.839ZM314.957 327.29H309.751C309.256 324.198 308.613 320.18 307.915 315.839H314.047L314.957 327.29ZM314.227 312.678L313.179 299.496H320.303L320.613 312.678H314.227ZM321.043 312.678L320.732 299.496H328.063L327.615 312.678H321.043ZM320.657 296.336L320.37 284.128H328.585L328.17 296.336H320.657ZM320.228 296.336H312.927L311.958 284.128H319.941L320.228 296.336ZM312.498 296.336H304.773C304.5 294.65 304.241 293.054 304.006 291.618C303.2 286.683 302.898 284.826 302.729 284.128H311.527L312.498 296.336ZM312.748 299.496L313.796 312.678H307.408C307.193 311.34 306.976 309.988 306.758 308.633C306.257 305.521 305.757 302.411 305.285 299.496H312.748ZM306.974 312.678H302.801L300.54 299.496H304.851C305.509 303.57 306.239 308.104 306.974 312.678ZM307.482 315.839C308.118 319.801 308.744 323.709 309.317 327.29H305.307L303.343 315.839H307.482ZM327.548 327.29L327.937 315.839H332.207L331.206 327.29H327.548ZM328.6 296.336L329.015 284.128H334.977L333.911 296.336H328.6ZM302.32 284.128C302.492 285.01 303.281 289.814 304.339 296.336H299.998L297.904 284.128H302.32ZM334.979 327.29H331.637L332.637 315.839H336.353L334.979 327.29ZM338.693 296.336H334.341L335.408 284.128H340.158L338.693 296.336Z" fill="#5274B8"/>
<path d="M360.867 333.374C360.867 333.41 284.549 333.439 190.428 333.439C96.273 333.439 19.9717 333.41 19.9717 333.374C19.9717 333.338 96.2738 333.309 190.428 333.309C284.549 333.309 360.867 333.338 360.867 333.374Z" fill="#263238"/>
<path d="M310.267 161.438H166.796C164.173 161.438 162.047 159.311 162.047 156.688V26.2015C162.047 23.5785 164.173 21.452 166.796 21.452H310.267C312.89 21.452 315.017 23.5785 315.017 26.2015V156.688C315.017 159.311 312.89 161.438 310.267 161.438Z" fill="white"/>
<path d="M310.267 161.438C310.262 161.409 310.786 161.477 311.728 161.185C312.193 161.033 312.757 160.766 313.31 160.294C313.854 159.82 314.406 159.143 314.712 158.234C315.063 157.331 314.956 156.235 314.968 155.052C314.965 153.864 314.962 152.566 314.959 151.159C314.954 148.344 314.948 145.098 314.941 141.444C314.927 126.822 314.906 105.67 314.88 79.535C314.872 66.4654 314.865 52.1507 314.856 36.7831C314.855 34.8621 314.855 32.9247 314.853 30.9711C314.853 29.9946 314.852 29.0137 314.852 28.029L314.851 26.5487C314.861 26.0479 314.831 25.5834 314.715 25.1137C314.499 24.1788 313.954 23.3285 313.222 22.7015C312.483 22.0812 311.546 21.6894 310.573 21.6345C308.58 21.6041 306.531 21.6271 304.49 21.6211C296.304 21.6241 287.879 21.6263 279.239 21.6293C244.681 21.6337 206.687 21.6389 166.809 21.6441C165.609 21.6382 164.423 22.1264 163.579 22.973C162.729 23.813 162.237 24.995 162.239 26.1859C162.239 28.6642 162.239 31.1343 162.239 33.5963C162.239 38.5209 162.238 43.4129 162.238 48.2693C162.237 57.9821 162.236 67.5524 162.235 76.9565C162.231 95.764 162.227 113.905 162.224 131.187C162.221 139.828 162.219 148.254 162.216 156.441C162.175 157.447 162.452 158.424 162.994 159.245C163.55 160.049 164.347 160.694 165.272 161.006C166.185 161.36 167.192 161.254 168.198 161.272C169.198 161.273 170.195 161.273 171.187 161.274C175.158 161.275 179.066 161.277 182.908 161.279C198.277 161.287 212.592 161.295 225.662 161.303C251.797 161.329 272.946 161.349 287.568 161.364C294.873 161.38 300.546 161.392 304.398 161.401C306.319 161.409 307.785 161.415 308.775 161.42C309.762 161.424 310.267 161.438 310.267 161.438C310.267 161.438 309.762 161.451 308.775 161.458C307.785 161.462 306.319 161.468 304.398 161.477C300.546 161.485 294.873 161.498 287.568 161.513C272.946 161.528 251.797 161.549 225.662 161.575C212.592 161.582 198.277 161.59 182.908 161.599C179.066 161.6 175.158 161.602 171.187 161.604C170.194 161.605 169.198 161.605 168.198 161.605L166.691 161.601C166.17 161.6 165.653 161.49 165.161 161.323C164.169 160.988 163.312 160.297 162.715 159.435C162.131 158.563 161.833 157.485 161.877 156.443C161.874 148.256 161.871 139.83 161.868 131.189C161.865 113.907 161.861 95.7655 161.857 76.958C161.856 67.5539 161.855 57.9836 161.854 48.2708C161.854 43.4144 161.854 38.5224 161.854 33.5977C161.854 31.135 161.854 28.6649 161.854 26.1866C161.851 24.8956 162.386 23.6112 163.308 22.7015C164.221 21.7836 165.512 21.2531 166.81 21.2598C206.69 21.265 244.682 21.2702 279.241 21.2746C287.88 21.2776 296.305 21.2798 304.491 21.2828C306.542 21.2909 308.559 21.2679 310.596 21.3013C311.64 21.3622 312.647 21.7829 313.438 22.4492C314.222 23.1214 314.806 24.0341 315.037 25.0373C315.161 25.5307 315.193 26.0635 315.181 26.551L315.18 28.0313C315.18 29.0159 315.18 29.9968 315.179 30.9733C315.178 32.927 315.177 34.8643 315.177 36.7854C315.169 52.1529 315.16 66.4676 315.153 79.5372C315.127 105.672 315.106 126.823 315.091 141.447C315.085 145.101 315.079 148.347 315.074 151.161C315.071 152.568 315.067 153.866 315.065 155.054C315.046 156.231 315.149 157.342 314.786 158.263C314.468 159.184 313.903 159.867 313.348 160.341C312.784 160.815 312.211 161.078 311.74 161.225C311.266 161.368 310.892 161.417 310.643 161.431C310.393 161.438 310.267 161.438 310.267 161.438Z" fill="#263238"/>
<path d="M229.814 118.36C220.694 118.36 213.3 125.754 213.3 134.875C213.3 143.995 220.694 151.39 229.814 151.39C238.935 151.39 246.329 143.995 246.329 134.875C246.329 125.754 238.935 118.36 229.814 118.36ZM229.814 144.101C224.719 144.101 220.588 139.97 220.588 134.875C220.588 129.779 224.719 125.649 229.814 125.649C234.91 125.649 239.041 129.779 239.041 134.875C239.041 139.97 234.91 144.101 229.814 144.101Z" fill="#FCB86A"/>
<path d="M229.815 151.39C238.838 151.39 246.167 144.151 246.323 135.164H239.027C238.872 140.124 234.813 144.101 229.815 144.101C224.817 144.101 220.757 140.124 220.603 135.164H213.307C213.462 144.151 220.79 151.39 229.815 151.39Z" fill="#5274B8"/>
<path d="M229.815 118.36C229.717 118.36 229.622 118.366 229.524 118.368V125.664C229.622 125.661 229.717 125.649 229.815 125.649C234.91 125.649 239.041 129.779 239.041 134.875C239.041 134.973 239.029 135.068 239.026 135.165H246.322C246.323 135.068 246.329 134.972 246.329 134.875C246.329 125.754 238.935 118.36 229.815 118.36Z" fill="#E0E0E0"/>
<path d="M246.413 135.257H238.93L238.933 135.161C238.934 135.118 238.937 135.076 238.94 135.034C238.944 134.981 238.948 134.928 238.948 134.875C238.948 129.838 234.85 125.741 229.814 125.741C229.759 125.741 229.705 125.744 229.651 125.748C229.609 125.751 229.569 125.754 229.526 125.756L229.431 125.759V118.276L229.636 118.27C229.695 118.268 229.753 118.267 229.813 118.267C238.971 118.267 246.421 125.716 246.421 134.874C246.421 134.93 246.419 134.987 246.417 135.043C246.416 135.084 246.414 135.124 246.414 135.166L246.413 135.257ZM239.123 135.071H246.231C246.232 135.06 246.232 135.048 246.233 135.037C246.234 134.983 246.236 134.929 246.236 134.875C246.236 125.819 238.869 118.453 229.814 118.453C229.756 118.453 229.7 118.454 229.644 118.457L229.617 118.457V125.565C229.624 125.564 229.632 125.564 229.638 125.563C229.696 125.56 229.754 125.555 229.814 125.555C234.953 125.555 239.133 129.736 239.133 134.875C239.133 134.933 239.129 134.99 239.125 135.047C239.124 135.055 239.124 135.063 239.123 135.071Z" fill="#E0E0E0"/>
<path d="M239.032 135.165C238.947 137.903 237.673 140.34 235.704 141.975L240.247 147.675C243.888 144.703 246.233 140.21 246.321 135.165H239.032Z" fill="black"/>
<path d="M254.163 126.552C254.163 127.366 253.503 128.026 252.688 128.026C251.874 128.026 251.214 127.366 251.214 126.552C251.214 125.737 251.874 125.077 252.688 125.077C253.502 125.077 254.163 125.738 254.163 126.552Z" fill="#FCB86A"/>
<path d="M254.163 133.194C254.163 134.008 253.503 134.668 252.688 134.668C251.874 134.668 251.214 134.008 251.214 133.194C251.214 132.38 251.874 131.72 252.688 131.72C253.502 131.72 254.163 132.379 254.163 133.194Z" fill="#E0E0E0"/>
<path d="M254.163 139.713C254.163 140.527 253.503 141.187 252.688 141.187C251.874 141.187 251.214 140.527 251.214 139.713C251.214 138.899 251.874 138.238 252.688 138.238C253.502 138.238 254.163 138.899 254.163 139.713Z" fill="#5274B8"/>
<path d="M254.163 146.144C254.163 146.958 253.503 147.619 252.688 147.619C251.874 147.619 251.214 146.959 251.214 146.144C251.214 145.33 251.874 144.67 252.688 144.67C253.502 144.67 254.163 145.33 254.163 146.144Z" fill="black"/>
<path d="M265.652 127.338H258.425C258.086 127.338 257.811 127.062 257.811 126.723V126.466C257.811 126.127 258.086 125.851 258.425 125.851H265.652C265.991 125.851 266.266 126.127 266.266 126.466V126.723C266.266 127.063 265.991 127.338 265.652 127.338Z" fill="#FCB86A"/>
<path d="M265.652 133.865H258.425C258.086 133.865 257.811 133.59 257.811 133.251V132.993C257.811 132.654 258.086 132.379 258.425 132.379H265.652C265.991 132.379 266.266 132.654 266.266 132.993V133.251C266.266 133.59 265.991 133.865 265.652 133.865Z" fill="#E0E0E0"/>
<path d="M265.652 140.392H258.425C258.086 140.392 257.811 140.116 257.811 139.777V139.52C257.811 139.181 258.086 138.905 258.425 138.905H265.652C265.991 138.905 266.266 139.181 266.266 139.52V139.777C266.266 140.116 265.991 140.392 265.652 140.392Z" fill="#5274B8"/>
<path d="M265.652 146.918H258.425C258.086 146.918 257.811 146.643 257.811 146.304V146.046C257.811 145.707 258.086 145.432 258.425 145.432H265.652C265.991 145.432 266.266 145.707 266.266 146.046V146.304C266.266 146.644 265.991 146.918 265.652 146.918Z" fill="black"/>
<path d="M299.487 95.3076H180.057V44.1794H299.487V95.3076ZM180.327 95.0628H299.217V44.4242H180.327V95.0628Z" fill="#EBEBEB"/>
<path d="M299.352 86.5817H180.191V86.8266H299.352V86.5817Z" fill="#EBEBEB"/>
<path d="M299.352 78.1014H180.191V78.3462H299.352V78.1014Z" fill="#EBEBEB"/>
<path d="M299.352 69.6204H180.191V69.8652H299.352V69.6204Z" fill="#EBEBEB"/>
<path d="M299.352 61.14H180.191V61.3849H299.352V61.14Z" fill="#EBEBEB"/>
<path d="M299.352 52.6597H180.191V52.9046H299.352V52.6597Z" fill="#EBEBEB"/>
<path d="M195.412 60.6132H191.485V95.0049H195.412V60.6132Z" fill="#FCB86A"/>
<path d="M202.548 52.2961H197.697V95.0049H202.548V52.2961Z" fill="#5274B8"/>
<path d="M222.888 85.2461H218.961V95.0049H222.888V85.2461Z" fill="#FCB86A"/>
<path d="M229.1 65.1498H225.173V95.0056H229.1V65.1498Z" fill="#5274B8"/>
<path d="M248.515 45.9172H244.588V95.0049H248.515V45.9172Z" fill="#FCB86A"/>
<path d="M255.651 83.3014H251.725V95.005H255.651V83.3014Z" fill="#5274B8"/>
<path d="M274.142 50.8871H270.216V95.0049H274.142V50.8871Z" fill="#FCB86A"/>
<path d="M280.353 69.6434H276.427V95.0049H280.353V69.6434Z" fill="#5274B8"/>
<path d="M293.353 91.5806H289.427V95.0056H293.353V91.5806Z" fill="#FCB86A"/>
<path d="M200.204 100.856H192.203C191.864 100.856 191.589 100.581 191.589 100.242V99.8487C191.589 99.5096 191.864 99.2343 192.203 99.2343H200.204C200.543 99.2343 200.819 99.5096 200.819 99.8487V100.242C200.819 100.581 200.544 100.856 200.204 100.856Z" fill="#E0E0E0"/>
<path d="M226.945 100.856H218.944C218.605 100.856 218.33 100.581 218.33 100.242V99.8487C218.33 99.5096 218.605 99.2343 218.944 99.2343H226.945C227.285 99.2343 227.56 99.5096 227.56 99.8487V100.242C227.559 100.581 227.285 100.856 226.945 100.856Z" fill="#E0E0E0"/>
<path d="M250.552 100.856H242.551C242.212 100.856 241.937 100.581 241.937 100.242V99.8487C241.937 99.5096 242.212 99.2343 242.551 99.2343H250.552C250.891 99.2343 251.166 99.5096 251.166 99.8487V100.242C251.166 100.581 250.891 100.856 250.552 100.856Z" fill="#E0E0E0"/>
<path d="M274.864 100.856H266.863C266.524 100.856 266.249 100.581 266.249 100.242V99.8487C266.249 99.5096 266.524 99.2343 266.863 99.2343H274.864C275.203 99.2343 275.479 99.5096 275.479 99.8487V100.242C275.479 100.581 275.203 100.856 274.864 100.856Z" fill="#E0E0E0"/>
<path d="M295.467 100.856H287.466C287.127 100.856 286.852 100.581 286.852 100.242V99.8487C286.852 99.5096 287.127 99.2343 287.466 99.2343H295.467C295.806 99.2343 296.081 99.5096 296.081 99.8487V100.242C296.081 100.581 295.807 100.856 295.467 100.856Z" fill="#E0E0E0"/>
<path d="M230.025 136.023H229.339V136.934H228.389V136.023H226.121V135.347L228.106 132.595H229.128L227.288 135.205H228.419V134.392H229.339V135.205H230.025V136.023Z" fill="#263238"/>
<path d="M233.058 134.59C233.341 134.834 233.482 135.16 233.482 135.569C233.482 135.834 233.418 136.075 233.29 136.292C233.161 136.509 232.966 136.682 232.703 136.813C232.44 136.943 232.117 137.008 231.732 137.008C231.435 137.008 231.143 136.968 230.856 136.887C230.57 136.806 230.326 136.692 230.126 136.543L230.511 135.774C230.671 135.898 230.856 135.994 231.065 136.063C231.272 136.131 231.487 136.165 231.708 136.165C231.952 136.165 232.145 136.115 232.285 136.016C232.425 135.917 232.495 135.779 232.495 135.6C232.495 135.415 232.422 135.274 232.276 135.179C232.129 135.084 231.876 135.037 231.515 135.037H230.439L230.655 132.594H233.223V133.4H231.468L231.401 134.224H231.744C232.338 134.224 232.776 134.346 233.058 134.59Z" fill="#263238"/>
<path d="M175.618 31.2798C175.618 32.349 174.752 33.2164 173.682 33.2164C172.613 33.2164 171.745 32.3497 171.745 31.2798C171.745 30.2105 172.613 29.3431 173.682 29.3431C174.752 29.3431 175.618 30.2098 175.618 31.2798Z" fill="#263238"/>
<path d="M181.014 31.2798C181.014 32.349 180.146 33.2164 179.077 33.2164C178.008 33.2164 177.141 32.3497 177.141 31.2798C177.141 30.2105 178.008 29.3431 179.077 29.3431C180.146 29.3431 181.014 30.2098 181.014 31.2798Z" fill="#263238"/>
<path d="M186.407 31.2798C186.407 32.349 185.541 33.2164 184.471 33.2164C183.402 33.2164 182.534 32.3497 182.534 31.2798C182.534 30.2105 183.402 29.3431 184.471 29.3431C185.541 29.3431 186.407 30.2098 186.407 31.2798Z" fill="#263238"/>
<path d="M165.939 153.422C165.939 153.422 165.577 156.836 164.93 158.418C164.283 160 163.308 160.552 163.346 162.998C163.383 165.444 163.307 168.076 163.307 168.076C163.307 168.076 159.703 173.146 159.945 173.166C160.188 173.187 166.396 179.209 166.396 179.209L172.238 169.638L180.652 160.554L182.679 151.907L182.16 151.398L182.172 149.811C182.172 149.811 180.876 148.382 179.93 150.037C179.93 150.037 179.513 147.987 177.856 149.978C176.2 151.968 173.532 156.653 173.251 156.8C172.97 156.947 169.645 159.573 169.645 159.573L167.757 159.951C167.757 159.951 168.851 158.577 168.788 157.009C168.725 155.44 169.387 154.25 168.218 153.345C167.048 152.441 165.939 153.422 165.939 153.422Z" fill="#FDD7C6"/>
<path d="M168.823 165.099C168.844 165.117 169.012 164.944 169.333 164.659C169.668 164.386 170.177 164.019 170.868 163.648C172.248 162.911 174.315 162.128 176.714 161.53L176.772 161.516L176.809 161.47C177.092 161.117 177.389 160.747 177.691 160.369C177.838 160.185 177.984 160.002 178.129 159.822L178.165 159.776L178.166 159.723C178.183 158.769 178.201 157.852 178.216 156.983C178.215 156.574 178.303 156.178 178.525 155.909C178.74 155.637 179.118 155.538 179.429 155.567L179.316 155.469C180.115 158 180.786 159.611 180.883 159.566C180.904 159.552 180.737 159.161 180.513 158.43C180.281 157.704 179.96 156.658 179.585 155.387L179.559 155.3L179.472 155.29C179.064 155.241 178.6 155.353 178.293 155.711C177.994 156.063 177.898 156.536 177.892 156.982C177.87 157.846 177.847 158.759 177.822 159.708L177.859 159.609C177.715 159.79 177.568 159.972 177.421 160.156C177.12 160.534 176.824 160.905 176.541 161.259L176.635 161.2C174.203 161.818 172.134 162.647 170.755 163.452C170.067 163.855 169.564 164.261 169.248 164.569C168.946 164.889 168.81 165.09 168.823 165.099Z" fill="#F7996E"/>
<path d="M175.512 157.754C175.595 157.799 176.617 156.091 177.794 153.938C178.971 151.785 179.857 150.003 179.774 149.957C179.691 149.912 178.67 151.62 177.493 153.774C176.315 155.926 175.428 157.708 175.512 157.754Z" fill="#F7996E"/>
<path d="M179.93 155.246C179.978 155.254 180.058 154.987 180.164 154.558C180.273 154.131 180.408 153.539 180.685 152.95C180.962 152.364 181.361 151.919 181.701 151.67C182.041 151.416 182.305 151.332 182.291 151.28C182.285 151.24 181.985 151.24 181.571 151.466C181.158 151.686 180.677 152.159 180.375 152.803C180.074 153.445 179.974 154.073 179.924 154.516C179.878 154.962 179.884 155.24 179.93 155.246Z" fill="#F7996E"/>
<path d="M172.838 157.88C172.842 157.984 173.955 157.882 175.14 158.464C176.337 159.022 176.955 159.953 177.038 159.891C177.074 159.869 176.971 159.603 176.687 159.245C176.405 158.888 175.921 158.458 175.288 158.154C174.654 157.852 174.016 157.744 173.561 157.749C173.104 157.752 172.832 157.839 172.838 157.88Z" fill="#F7996E"/>
<path d="M113.075 310.466H121.212V266.943H113.075V310.466Z" fill="#E0E0E0"/>
<path d="M146.254 259.935C146.121 259.935 121.212 267.751 121.212 267.751H113.075L84.5186 259.935H146.254Z" fill="#E0E0E0"/>
<path d="M151.702 325.908C151.702 325.908 147.937 314.413 142.746 311.633C134.405 307.165 115.182 305.027 115.182 305.027L113.075 310.467C113.075 310.467 138.714 311.475 142.747 316.649C146.472 321.426 149.184 325.909 149.184 325.909H151.702V325.908Z" fill="#E0E0E0"/>
<path d="M152.364 331.891C154.491 329.765 154.491 326.317 152.365 324.191C150.238 322.065 146.791 322.065 144.664 324.191C142.538 326.317 142.538 329.765 144.664 331.891C146.791 334.017 150.238 334.017 152.364 331.891Z" fill="#263238"/>
<path d="M82.2109 325.685C82.2109 325.685 85.9758 314.19 91.1669 311.409C99.5084 306.942 118.731 304.802 118.731 304.802L120.838 310.243C120.838 310.243 95.1996 311.251 91.1661 316.424C87.4413 321.202 84.7293 325.685 84.7293 325.685H82.2109Z" fill="#E0E0E0"/>
<path d="M87.5422 331.89C89.6685 329.764 89.6685 326.317 87.5422 324.19C85.4159 322.064 81.9685 322.064 79.8422 324.19C77.7159 326.317 77.7159 329.764 79.8422 331.89C81.9685 334.017 85.4159 334.017 87.5422 331.89Z" fill="#263238"/>
<path d="M119.949 307.946L118.756 322.735L115.394 323.399V307.946" fill="#E0E0E0"/>
<path d="M122.089 329.281C122.778 326.354 120.963 323.422 118.036 322.734C115.109 322.045 112.178 323.86 111.489 326.787C110.8 329.714 112.615 332.645 115.542 333.334C118.469 334.022 121.4 332.208 122.089 329.281Z" fill="#263238"/>
<path d="M113.266 267.924C113.266 268.019 115.002 268.096 117.143 268.096C119.285 268.096 121.022 268.019 121.022 267.924C121.022 267.829 119.285 267.751 117.143 267.751C115.002 267.751 113.266 267.829 113.266 267.924Z" fill="#263238"/>
<path d="M113.111 305.95C113.055 306.011 114.708 306.981 117.004 307.029C119.3 307.1 121.001 306.218 120.948 306.154C120.916 306.048 119.22 306.757 117.013 306.685C114.806 306.643 113.149 305.846 113.111 305.95Z" fill="#263238"/>
<path d="M124.058 141.479H85.8685C76.4339 141.479 68.7861 149.126 68.7861 158.561V242.882C68.7861 247.599 72.6097 251.422 77.3265 251.422H132.601C137.318 251.422 141.142 247.599 141.142 242.882V158.561C141.141 149.127 133.493 141.479 124.058 141.479Z" fill="#455B64"/>
<path d="M150.585 259.935H73.2646C70.7908 259.935 68.7852 257.929 68.7852 255.455V253.993C68.7852 251.519 70.7908 249.514 73.2646 249.514H150.585C153.059 249.514 155.065 251.519 155.065 253.993V255.455C155.066 257.929 153.06 259.935 150.585 259.935Z" fill="#455B64"/>
<path d="M142.679 249.457C142.679 249.353 126.758 249.267 107.123 249.267C87.4809 249.267 71.5635 249.353 71.5635 249.457C71.5635 249.562 87.4809 249.647 107.123 249.647C126.758 249.647 142.679 249.562 142.679 249.457Z" fill="#263238"/>
<path d="M162.285 304.719L158.214 319.775C158.214 319.775 171.726 329.087 171.237 331.945L142.57 324.874L147.979 301.148L162.285 304.719Z" fill="black"/>
<path d="M149.648 316.311C149.056 316.33 148.524 316.877 148.518 317.486C148.512 318.093 149.048 318.656 149.64 318.647C150.231 318.639 150.891 318.003 150.83 317.397C150.77 316.792 150.105 316.168 149.532 316.322" fill="#E0E0E0"/>
<path d="M142.57 324.874L143.206 322.504L170.454 330.17C170.454 330.17 171.597 331.056 171.237 331.945L142.57 324.874Z" fill="#263238"/>
<path d="M158.713 319.739C158.674 319.881 157.96 319.775 157.163 320.068C156.359 320.339 155.859 320.876 155.743 320.787C155.62 320.727 156.03 319.918 157 319.581C157.968 319.234 158.775 319.614 158.713 319.739Z" fill="white"/>
<path d="M161.422 321.759C161.421 321.906 160.758 322.002 160.141 322.494C159.509 322.967 159.236 323.596 159.097 323.555C158.961 323.545 159.06 322.679 159.839 322.082C160.614 321.479 161.452 321.622 161.422 321.759Z" fill="white"/>
<path d="M162.266 325.882C162.132 325.881 162.105 325.114 162.648 324.414C163.187 323.71 163.919 323.562 163.951 323.697C164.002 323.835 163.479 324.153 163.041 324.735C162.591 325.305 162.409 325.902 162.266 325.882Z" fill="white"/>
<path d="M159.271 316.203C159.182 316.319 158.586 315.962 157.782 315.823C156.98 315.666 156.301 315.787 156.257 315.645C156.201 315.521 156.926 315.136 157.871 315.315C158.816 315.486 159.366 316.106 159.271 316.203Z" fill="white"/>
<path d="M137.055 314.262L140.081 332.91L146.609 346.95C147.079 347.962 146.618 349.173 145.605 349.586C145.037 349.817 144.401 349.756 143.889 349.413C140.63 347.235 128.918 338.966 128.672 337.986C128.283 336.432 124.071 318.331 124.071 318.331L137.055 314.262Z" fill="black"/>
<path d="M145.605 349.587L128.3 336.53L128.445 337.317C128.661 338.105 128.925 338.611 129.45 339.045C130.853 340.206 134.796 343.326 143.834 349.426C144.36 349.78 145.027 349.841 145.605 349.587Z" fill="#263238"/>
<g opacity="0.6">
<path d="M130.897 329.813C131.409 330.046 131.687 330.721 131.481 331.257C131.276 331.793 130.611 332.089 130.095 331.865C129.58 331.642 129.221 330.842 129.484 330.334C129.747 329.825 130.546 329.521 130.994 329.865" fill="white"/>
</g>
<path d="M139.975 342.28C140.086 342.311 140.313 341.259 141.29 340.525C142.246 339.762 143.292 339.829 143.294 339.709C143.301 339.661 143.045 339.561 142.612 339.582C142.182 339.601 141.581 339.781 141.048 340.194C140.516 340.608 140.181 341.15 140.045 341.571C139.905 341.994 139.927 342.274 139.975 342.28Z" fill="white"/>
<path d="M141.722 344.515C141.823 344.579 142.29 343.861 143.173 343.404C144.047 342.925 144.886 342.946 144.893 342.824C144.928 342.719 143.986 342.495 142.987 343.035C141.983 343.563 141.618 344.484 141.722 344.515Z" fill="white"/>
<path d="M136.99 339.561C137.091 339.633 137.805 338.526 139.118 337.69C140.418 336.832 141.697 336.648 141.678 336.523C141.689 336.418 140.299 336.423 138.903 337.338C137.498 338.239 136.894 339.527 136.99 339.561Z" fill="white"/>
<path d="M135.61 333.972C135.679 334.074 136.597 333.45 137.886 333.148C139.171 332.827 140.264 332.964 140.281 332.841C140.314 332.74 139.176 332.402 137.793 332.743C136.408 333.071 135.536 333.897 135.61 333.972Z" fill="white"/>
<path d="M134.587 328.52C134.663 328.617 135.552 327.801 136.935 327.597C138.314 327.361 139.4 327.862 139.444 327.747C139.466 327.702 139.225 327.508 138.763 327.341C138.305 327.174 137.616 327.069 136.873 327.187C136.129 327.307 135.504 327.621 135.116 327.923C134.725 328.225 134.553 328.486 134.587 328.52Z" fill="white"/>
<path d="M136.71 326.566C136.733 326.562 136.728 326.304 136.604 325.859C136.481 325.417 136.232 324.78 135.721 324.126C135.462 323.818 135.176 323.415 134.627 323.269C134.354 323.194 133.989 323.315 133.82 323.603C133.652 323.884 133.642 324.202 133.691 324.498C133.927 325.673 135.123 326.621 136.443 326.537C137.765 326.43 138.797 325.44 139.121 324.322C139.185 324.036 139.202 323.698 139.004 323.411C138.808 323.122 138.417 323.068 138.167 323.163C137.646 323.351 137.366 323.735 137.095 324.032C136.568 324.669 136.283 325.285 136.13 325.716C135.976 326.151 135.948 326.407 135.971 326.412C136.043 326.449 136.258 325.411 137.307 324.228C137.576 323.951 137.881 323.607 138.26 323.494C138.445 323.438 138.62 323.483 138.717 323.626C138.813 323.763 138.819 324.003 138.76 324.229C138.481 325.147 137.536 326.049 136.417 326.122C135.304 326.204 134.255 325.369 134.056 324.425C134.011 324.198 134.027 323.956 134.121 323.797C134.213 323.64 134.384 323.569 134.563 323.606C134.942 323.683 135.25 324.027 135.502 324.314C136.516 325.529 136.633 326.6 136.71 326.566Z" fill="white"/>
<path d="M143.602 225.558C149.063 228.486 170.349 240.758 176.059 244.479C180.241 247.203 182.815 254.585 181.483 259.191C175.953 278.309 160.235 317.121 160.235 317.121L142.122 314.84L154.777 260.671L129.196 248.641L104.22 223.844L143.602 225.558Z" fill="black"/>
<path d="M113.706 226.712C113.706 226.712 136.45 253.314 136.925 258.796C137.566 266.178 143.602 331.469 143.602 331.469L124.639 334.327L110.075 266.923L92.2636 246.169L89.9961 234.676L92.49 222.588L113.706 226.712Z" fill="black"/>
<path d="M119.874 234.675C119.869 234.679 119.92 234.754 120.024 234.895C120.142 235.05 120.296 235.256 120.492 235.516C120.923 236.076 121.535 236.872 122.316 237.887C123.9 239.945 126.204 242.914 129.003 246.619C130.403 248.471 131.93 250.504 133.519 252.722C134.305 253.834 135.134 254.982 135.879 256.216C136.275 256.811 136.392 257.51 136.533 258.249C136.674 258.977 136.769 259.729 136.872 260.487C137.605 266.574 138.065 273.314 138.655 280.374C138.956 283.906 139.249 287.354 139.533 290.684C139.853 294.011 140.162 297.219 140.457 300.276C141.053 306.384 141.591 311.886 142.043 316.516C142.507 321.121 142.883 324.854 143.146 327.46C143.282 328.734 143.389 329.731 143.465 330.434C143.503 330.758 143.534 331.014 143.557 331.207C143.58 331.38 143.595 331.469 143.601 331.468C143.608 331.468 143.606 331.378 143.595 331.203C143.581 331.008 143.563 330.752 143.54 330.427C143.482 329.723 143.399 328.723 143.293 327.446C143.059 324.836 142.724 321.1 142.31 316.49C141.881 311.86 141.371 306.356 140.805 300.245C140.518 297.187 140.216 293.979 139.902 290.653C139.621 287.322 139.33 283.875 139.033 280.344C138.443 273.283 137.973 266.548 137.219 260.442C137.112 259.68 137.015 258.926 136.868 258.186C136.81 257.815 136.716 257.449 136.624 257.084C136.527 256.724 136.367 256.336 136.164 256.046C135.4 254.792 134.567 253.651 133.774 252.538C132.17 250.325 130.63 248.299 129.215 246.456C126.387 242.771 124.05 239.826 122.43 237.795C121.625 236.799 120.994 236.018 120.55 235.469C120.342 235.218 120.177 235.02 120.052 234.87C119.94 234.738 119.88 234.671 119.874 234.675Z" fill="#455B64"/>
<path d="M161.357 254.723C161.285 254.647 159.641 256.08 157.684 257.924C155.728 259.767 154.199 261.324 154.271 261.4C154.343 261.476 155.987 260.044 157.944 258.2C159.901 256.357 161.429 254.8 161.357 254.723Z" fill="#455B64"/>
<path d="M127.25 157.782C127.25 157.782 133.142 158.32 135.703 161.814C138.705 165.91 152.642 184.535 152.642 184.535L162.896 167.797L173.517 173.135C173.517 173.135 163.638 198.979 159.764 201.234C155.889 203.489 150.742 203.726 148.415 201.234C146.088 198.742 133.265 181.916 133.265 181.916L127.25 157.782Z" fill="black"/>
<path d="M142.342 225.072L118.47 157.149L115.235 153.157L97.3002 150.837L94.2432 159.427L104.219 225.61L142.342 225.072Z" fill="#FAFBFB"/>
<path d="M120.663 209.85C120.676 209.849 120.68 209.701 120.675 209.419C120.666 209.096 120.654 208.687 120.639 208.184C120.626 207.648 120.581 206.994 120.522 206.234C120.471 205.473 120.399 204.609 120.293 203.655C119.914 199.837 119.1 194.595 117.929 188.864C116.753 183.131 115.49 177.987 114.532 174.277C114.055 172.421 113.651 170.923 113.364 169.891C113.225 169.409 113.112 169.016 113.023 168.705C112.941 168.435 112.892 168.295 112.879 168.297C112.867 168.3 112.891 168.447 112.949 168.723C113.02 169.039 113.11 169.437 113.221 169.927C113.48 171.018 113.836 172.514 114.271 174.34C115.162 178.066 116.384 183.215 117.558 188.939C118.727 194.662 119.581 199.884 120.026 203.684C120.149 204.633 120.24 205.494 120.31 206.251C120.389 207.007 120.456 207.658 120.491 208.193C120.535 208.693 120.571 209.099 120.599 209.421C120.628 209.703 120.649 209.851 120.663 209.85Z" fill="#263238"/>
<path d="M142.851 215.607C142.851 214.904 134.76 166.498 134.76 166.498L133.479 162.73C132.369 160.038 130.04 158.039 127.213 157.349L118.867 155.31L115.34 152.577L115.188 154.222L118.867 166.195L133.987 215.717L142.851 215.607Z" fill="black"/>
<path d="M106.72 214.296C106.72 212.89 108.036 202.478 107.151 194.197C106.497 188.087 104.745 177.627 103.44 170.193C102.447 164.538 100.702 159.043 98.2485 153.852L96.7526 150.687L93.634 155.657L80.1504 160.992L85.2361 214.296H106.72Z" fill="black"/>
<path d="M80.1501 215.874L72.7383 242.645L102.852 250.918L105.313 213.398L80.1501 215.874Z" fill="black"/>
<path d="M80.1504 215.874C80.146 215.872 80.1296 215.914 80.1014 215.996C80.0703 216.095 80.0324 216.216 79.9849 216.366C79.8818 216.716 79.7386 217.198 79.5568 217.813C79.1873 219.104 78.6583 220.954 77.9912 223.287C76.6645 228.016 74.7902 234.695 72.5731 242.599L72.5264 242.765L72.6926 242.811C78.6449 244.451 85.3748 246.307 92.4773 248.265C96.0374 249.242 99.504 250.192 102.801 251.097L103.021 251.157L103.035 250.93C103.713 240.192 104.305 230.818 104.729 224.103C104.924 220.774 105.081 218.104 105.19 216.241C105.236 215.34 105.272 214.635 105.297 214.13C105.305 213.905 105.312 213.725 105.316 213.584C105.319 213.461 105.318 213.398 105.312 213.398C105.306 213.397 105.296 213.459 105.283 213.582C105.269 213.723 105.252 213.902 105.231 214.126C105.19 214.629 105.134 215.333 105.062 216.232C104.927 218.093 104.733 220.761 104.491 224.087C104.034 230.801 103.397 240.171 102.666 250.906L102.899 250.74C99.6027 249.832 96.1368 248.879 92.5782 247.899C85.472 245.954 78.7384 244.11 72.7838 242.48L72.9033 242.691C75.0662 234.773 76.8945 228.08 78.1886 223.342C78.8163 220.999 79.3134 219.14 79.6614 217.842C79.8217 217.221 79.9471 216.734 80.0384 216.381C80.0747 216.228 80.1044 216.105 80.1282 216.004C80.1474 215.919 80.1549 215.875 80.1504 215.874Z" fill="#455B64"/>
<path d="M110.59 203.28L86.9511 201.472L86.2603 175.758L80.8949 160.697C80.8949 160.697 72.5689 163.728 72.3723 173.805C72.1749 183.88 71.9033 205.297 73.6774 211.624C73.7405 211.85 73.8088 212.07 73.8822 212.283C75.4701 216.943 80.279 219.709 85.1584 219.054L112.673 215.357L110.59 203.28Z" fill="black"/>
<path d="M85.9378 177.12C85.9244 177.121 85.9192 177.289 85.92 177.61C85.9259 177.969 85.9334 178.434 85.943 179.011C85.9808 180.273 86.0328 182.021 86.0973 184.162C86.2658 188.55 86.4958 194.537 86.7495 201.151C86.754 201.264 86.7592 201.377 86.7636 201.48L86.7703 201.649L86.9373 201.661C93.4646 202.169 99.3561 202.626 103.671 202.961C105.775 203.107 107.493 203.226 108.734 203.312C109.3 203.343 109.757 203.368 110.11 203.388C110.425 203.401 110.591 203.402 110.591 203.389C110.592 203.375 110.429 203.35 110.116 203.312C109.764 203.275 109.309 203.226 108.745 203.166C107.507 203.051 105.793 202.892 103.692 202.697C99.3799 202.332 93.4914 201.835 86.9677 201.284L87.1421 201.465C87.1376 201.361 87.1332 201.248 87.1287 201.135C86.8319 194.523 86.5626 188.538 86.3659 184.151C86.2517 182.013 86.1589 180.266 86.0914 179.005C86.0528 178.429 86.0216 177.965 85.9979 177.606C85.9704 177.287 85.9504 177.119 85.9378 177.12Z" fill="#455B64"/>
<path d="M80.9019 162.318C80.8054 162.4 82.7473 164.181 84.0702 167.067C85.4281 169.939 85.5409 172.571 85.6663 172.55C85.7093 172.548 85.7405 171.895 85.5958 170.848C85.4533 169.804 85.0942 168.374 84.4138 166.907C83.7289 165.443 82.8652 164.248 82.1581 163.466C81.4517 162.683 80.9308 162.286 80.9019 162.318Z" fill="#455B64"/>
<path d="M93.3118 156.51C93.2992 156.512 93.3036 156.654 93.3229 156.926C93.3444 157.197 93.3712 157.598 93.4305 158.113C93.5381 159.145 93.7355 160.638 94.0657 162.479C94.7171 166.157 95.9874 171.23 98.2001 176.632L98.258 176.773L98.4086 176.746C99.0044 176.638 99.6388 176.523 100.279 176.407C100.586 176.352 100.891 176.296 101.176 176.245L100.997 175.936C100.04 177.08 99.0267 178.325 98.882 179.851C98.8041 180.603 99.0022 181.331 99.2567 181.973C99.5179 182.62 99.8169 183.214 100.088 183.807C101.191 186.154 102.185 188.268 103.026 190.057C103.857 191.794 104.535 193.211 105.028 194.24C105.257 194.701 105.442 195.074 105.588 195.366C105.72 195.622 105.794 195.754 105.806 195.748C105.818 195.743 105.766 195.601 105.656 195.334C105.527 195.034 105.363 194.651 105.16 194.178C104.694 193.137 104.052 191.702 103.266 189.945C102.447 188.147 101.478 186.021 100.402 183.661C99.8993 182.476 99.1202 181.25 99.2493 179.885C99.3776 178.515 100.328 177.316 101.286 176.18L101.626 175.778L101.108 175.872C100.825 175.923 100.519 175.979 100.212 176.034C99.5713 176.151 98.9369 176.266 98.3411 176.374L98.5496 176.488C96.3406 171.118 95.034 166.084 94.3179 162.431C93.9558 160.604 93.7199 159.12 93.5693 158.096C93.498 157.616 93.4402 157.226 93.3949 156.918C93.3526 156.649 93.3244 156.509 93.3118 156.51Z" fill="#455B64"/>
<path d="M128.537 192.263C128.551 192.263 128.561 192.128 128.569 191.872C128.575 191.616 128.585 191.237 128.58 190.75C128.563 189.777 128.511 188.367 128.345 186.633C128.028 183.161 127.162 178.417 125.934 173.255C125.322 170.673 124.755 168.209 124.134 165.989C123.516 163.77 122.823 161.803 122.092 160.216C121.37 158.624 120.628 157.414 120.065 156.618C119.791 156.214 119.549 155.922 119.386 155.723C119.224 155.525 119.133 155.425 119.123 155.433C119.093 155.456 119.423 155.882 119.941 156.701C120.464 157.515 121.163 158.735 121.847 160.325C122.54 161.91 123.199 163.868 123.796 166.082C124.396 168.294 124.952 170.761 125.564 173.341C126.79 178.498 127.694 183.212 128.077 186.661C128.278 188.384 128.37 189.786 128.432 190.755C128.456 191.204 128.476 191.574 128.491 191.872C128.509 192.128 128.525 192.263 128.537 192.263Z" fill="#455B64"/>
<path d="M80.8003 206.858C80.9072 206.919 81.6388 204.996 83.5398 203.464C85.4156 201.9 87.4442 201.559 87.4049 201.443C87.3989 201.4 86.8892 201.42 86.1034 201.655C85.3198 201.886 84.2736 202.375 83.2986 203.171C82.3274 203.97 81.6432 204.9 81.2633 205.623C80.8797 206.347 80.7603 206.844 80.8003 206.858Z" fill="#455B64"/>
<path d="M111.896 169.796L113.907 217.084L119.874 227.922L123.851 215.414L114.226 169.384L111.896 169.796Z" fill="#5274B8"/>
<path d="M162.363 185.332C162.273 185.602 145.746 221.668 145.746 221.668H115.188L128.632 187.586C128.632 187.586 139.094 188.941 148.392 188.172C155.814 187.558 162.363 185.332 162.363 185.332Z" fill="#E0E0E0"/>
<path d="M162.364 185.332C162.356 185.334 162.318 185.357 162.218 185.393C162.106 185.432 161.961 185.483 161.777 185.547C161.386 185.676 160.803 185.862 160.037 186.082C158.503 186.52 156.234 187.117 153.294 187.635C147.418 188.757 138.804 188.89 128.612 187.75L128.787 187.647C124.92 197.473 120.326 209.148 115.41 221.638L115.371 221.738L115.191 221.474C126.193 221.481 136.602 221.488 145.747 221.494L145.589 221.595C155.458 200.26 161.727 186.709 162.364 185.332C161.739 186.713 155.588 200.318 145.904 221.741L145.858 221.842H145.746C136.6 221.848 126.191 221.855 115.189 221.862H114.905L115.01 221.598L115.049 221.497C119.984 209.015 124.597 197.346 128.479 187.526L128.526 187.408L128.655 187.423C138.81 188.593 147.403 188.51 153.262 187.447C156.198 186.957 158.47 186.392 160.01 185.986C160.765 185.776 161.35 185.613 161.763 185.498C161.95 185.444 162.096 185.402 162.211 185.369C162.309 185.34 162.372 185.329 162.364 185.332Z" fill="#263238"/>
<path d="M110.562 203.515L112.644 203.639C112.644 203.639 119.523 197.237 120.515 197.237C121.508 197.237 124.491 198.087 124.491 198.087L123.653 200.214C123.653 200.214 128.723 199.943 130.256 200.214C131.789 200.485 133.593 201.296 132.963 203.19C132.963 203.19 134.225 205.265 131.61 206.257C131.61 206.257 132.232 207.361 130.695 208.362C130.475 208.506 130.212 208.647 129.897 208.782C127.372 209.864 127.552 210.079 127.552 210.079C127.552 210.079 127.461 211.217 126.56 212.119C125.658 213.021 120.571 214.958 117.793 215.072C115.015 215.186 112.49 214.374 112.49 214.374L110.562 203.515Z" fill="#FDD7C6"/>
<path d="M117.819 200.197C117.822 200.302 119.161 200.384 120.809 200.382C122.458 200.379 123.796 200.291 123.798 200.186C123.801 200.081 122.463 199.999 120.808 200.002C119.155 200.005 117.816 200.092 117.819 200.197Z" fill="#F7996E"/>
<path d="M119.141 204.146C119.147 204.2 119.914 204.156 121.15 204.069C122.513 203.977 124.159 203.867 125.979 203.744C127.801 203.65 129.449 203.565 130.813 203.495C132.051 203.435 132.817 203.387 132.817 203.334C132.817 203.283 132.049 203.236 130.807 203.227C129.565 203.218 127.849 203.254 125.957 203.366C124.065 203.479 122.356 203.646 121.125 203.802C119.892 203.958 119.135 204.096 119.141 204.146Z" fill="#F7996E"/>
<path d="M122.031 207.771C122.046 207.875 124.265 207.646 126.988 207.261C129.712 206.876 131.907 206.48 131.892 206.376C131.877 206.272 129.658 206.501 126.934 206.886C124.212 207.272 122.016 207.668 122.031 207.771Z" fill="#F7996E"/>
<path d="M122.57 210.787C122.574 210.887 123.765 210.915 125.207 210.666C126.649 210.42 127.763 209.998 127.732 209.901C127.702 209.797 126.559 210.05 125.142 210.292C123.726 210.537 122.564 210.679 122.57 210.787Z" fill="#F7996E"/>
<g opacity="0.3">
<path d="M147.776 227.925L155.098 232.126L74.7412 235.412L76.8166 227.917L147.776 227.925Z" fill="black"/>
</g>
<path d="M111.896 169.796L110.242 167.701L111.473 164.159H113.413L114.978 167.381L114.226 169.384L111.896 169.796Z" fill="#5274B8"/>
<path d="M118.427 163.621C118.441 163.625 118.422 163.762 118.361 164.018C118.295 164.271 118.18 164.642 117.976 165.095C117.572 165.99 116.777 167.252 115.327 168.262L115.163 168.375L115.095 168.184C114.785 167.315 114.446 166.355 113.952 165.397C113.461 164.446 112.786 163.487 111.803 162.838L112.092 162.73C111.917 163.365 111.72 164.029 111.507 164.7C110.948 166.454 110.316 168.099 109.676 169.567L109.586 169.776L109.405 169.641C107.272 168.058 105.594 166.53 104.462 165.403C103.895 164.839 103.463 164.377 103.174 164.052C102.886 163.728 102.741 163.544 102.755 163.531C102.77 163.517 102.945 163.673 103.258 163.971C103.619 164.31 104.07 164.734 104.614 165.243C105.784 166.321 107.484 167.802 109.618 169.351L109.346 169.425C109.966 167.96 110.584 166.324 111.139 164.582C111.351 163.917 111.548 163.258 111.724 162.628L111.795 162.374L112.014 162.52C113.072 163.225 113.774 164.251 114.27 165.236C114.767 166.23 115.094 167.207 115.387 168.085L115.155 168.007C116.566 167.068 117.378 165.873 117.82 165.02C118.261 164.153 118.387 163.609 118.427 163.621Z" fill="#263238"/>
<path d="M119.94 108.121C116.942 107.558 114.209 110.49 111.168 110.238C109.322 110.085 107.797 108.794 106.089 108.075C103.536 107 100.112 107.162 97.7966 108.682C95.4801 110.202 94.0466 111.71 94.0161 114.48C91.6388 113.447 88.2241 116.675 87.2565 119.53C86.2889 122.385 86.9204 125.156 87.9651 127.984C89.7637 132.853 92.5299 137.363 96.0552 141.174C96.3675 141.511 96.8454 141.87 97.2372 141.629C97.5087 141.463 97.5622 141.097 97.5777 140.78C97.7083 138.072 97.0695 135.396 96.5404 132.737C96.0114 130.079 95.5899 127.324 96.1524 124.672C96.7148 122.02 98.4555 119.466 101.041 118.649C102.95 118.046 105.048 118.455 106.892 119.236C108.736 120.016 110.406 121.15 112.182 122.075C113.957 122.999 115.917 123.727 117.914 123.592C119.912 123.457 121.94 122.282 122.587 120.387C123.233 118.492 121.998 116.04 120.005 115.844C121.774 115.48 123.164 113.762 123.149 111.956C123.133 110.151 121.715 108.455 119.94 108.121Z" fill="#9E724D"/>
<path d="M121.67 140.116C121.176 136.441 119.543 128.958 117.986 122.201C116.312 114.934 109.34 110.171 101.962 111.255L101.229 111.363C93.3935 112.987 91.3604 120.718 93.1998 128.506L97.2237 151.683L111.84 162.678L115.771 155.922L115.488 149.949C115.488 149.949 122.694 147.726 121.67 140.116Z" fill="#FDD7C6"/>
<path d="M115.489 149.949C115.489 149.949 110.535 151.115 104.961 148.66C104.961 148.66 108.1 153.644 115.579 151.845L115.489 149.949Z" fill="#F6BAA6"/>
<path d="M116.712 129.673C116.817 130.242 116.42 130.801 115.827 130.921C115.235 131.04 114.669 130.677 114.565 130.107C114.46 129.537 114.856 128.978 115.448 128.858C116.042 128.738 116.608 129.104 116.712 129.673Z" fill="#263238"/>
<path d="M116.899 126.154C116.786 126.315 115.875 125.828 114.708 126.003C113.54 126.161 112.771 126.887 112.623 126.763C112.552 126.708 112.652 126.433 112.984 126.107C113.311 125.782 113.899 125.427 114.627 125.323C115.355 125.22 116.005 125.398 116.397 125.621C116.797 125.842 116.957 126.081 116.899 126.154Z" fill="#9E724D"/>
<path d="M105.975 131.55C106.079 132.12 105.682 132.679 105.089 132.798C104.497 132.917 103.932 132.555 103.827 131.984C103.723 131.414 104.119 130.855 104.711 130.735C105.305 130.616 105.87 130.98 105.975 131.55Z" fill="#263238"/>
<path d="M105.456 128.059C105.342 128.22 104.43 127.733 103.263 127.907C102.096 128.066 101.327 128.792 101.179 128.667C101.108 128.613 101.206 128.338 101.54 128.011C101.868 127.686 102.455 127.332 103.183 127.228C103.911 127.125 104.562 127.303 104.954 127.525C105.353 127.748 105.513 127.986 105.456 128.059Z" fill="#9E724D"/>
<path d="M110.966 136.093C110.951 136.028 111.658 135.796 112.812 135.472C113.106 135.398 113.379 135.297 113.399 135.086C113.438 134.861 113.266 134.558 113.071 134.232C112.684 133.553 112.28 132.839 111.855 132.092C110.156 129.04 108.879 126.513 109.002 126.446C109.126 126.379 110.604 128.798 112.303 131.85C112.715 132.604 113.108 133.322 113.483 134.009C113.646 134.332 113.897 134.687 113.81 135.156C113.762 135.391 113.567 135.584 113.384 135.664C113.201 135.75 113.034 135.779 112.888 135.809C111.714 136.046 110.981 136.159 110.966 136.093Z" fill="#263238"/>
<path d="M104.693 122.06C104.624 122.395 103.437 122.416 102.091 122.782C100.739 123.122 99.6932 123.685 99.4691 123.427C99.3682 123.303 99.5166 122.976 99.918 122.603C100.315 122.231 100.979 121.836 101.788 121.623C102.597 121.412 103.369 121.432 103.897 121.562C104.431 121.69 104.72 121.902 104.693 122.06Z" fill="#F6BAA6"/>
<path d="M115.973 122.839C115.807 123.134 114.962 122.977 113.993 123.107C113.019 123.202 112.233 123.547 112.004 123.298C111.902 123.176 111.991 122.892 112.313 122.587C112.628 122.285 113.188 121.994 113.855 121.917C114.523 121.84 115.134 121.996 115.511 122.218C115.892 122.44 116.044 122.696 115.973 122.839Z" fill="#F6BAA6"/>
<path d="M94.2779 133.74C94.1399 133.702 88.2365 133.094 89.1655 138.263C90.0953 143.432 95.4896 141.696 95.4896 141.696L94.2779 133.74Z" fill="#FDD7C6"/>
<path d="M93.1441 139.609C93.1182 139.596 93.0655 139.688 92.926 139.785C92.7902 139.88 92.5431 139.972 92.2552 139.92C91.6728 139.818 91.0576 139.034 90.8647 138.107C90.7668 137.64 90.7853 137.174 90.8848 136.773C90.9745 136.366 91.1719 136.058 91.4375 135.96C91.6995 135.847 91.9243 135.977 92.0133 136.111C92.1083 136.243 92.0942 136.352 92.1232 136.356C92.1395 136.366 92.2181 136.249 92.1387 136.043C92.0987 135.945 92.0163 135.833 91.8768 135.756C91.7343 135.678 91.5429 135.659 91.3552 135.714C90.9612 135.813 90.6688 136.245 90.5583 136.685C90.4269 137.13 90.395 137.656 90.5056 138.182C90.726 139.218 91.4346 140.096 92.2204 140.178C92.601 140.208 92.8844 140.043 93.0195 139.893C93.1575 139.735 93.1634 139.615 93.1441 139.609Z" fill="#F7996E"/>
<path d="M117.035 115.098C116.139 113.705 114.758 112.688 113.305 111.894C110.174 110.18 106.515 109.363 102.975 109.827C99.4353 110.292 96.0421 112.084 93.8473 114.901C92.091 117.154 91.1434 119.981 90.9297 122.83C90.716 125.679 90.9765 129.431 91.8847 132.14C92.2831 133.329 93.0363 133.669 94.0254 134.441C94.6435 134.922 95.6177 135.156 96.1623 134.593C96.4836 134.262 96.5452 133.765 96.5905 133.306C97.0008 129.151 97.3532 124.697 95.3179 121.052C96.12 119.612 97.0995 118.237 98.4113 117.238C99.7232 116.24 101.405 115.648 103.035 115.899C105.455 116.271 107.212 118.313 109.291 119.609C112.261 121.46 116.145 121.754 119.359 120.371L117.035 115.098Z" fill="#9E724D"/>
<path d="M87.3408 126.205C87.3401 126.147 87.8996 126.133 88.7684 125.946C89.6366 125.762 90.8082 125.351 91.9405 124.609C93.0698 123.862 93.9097 122.948 94.4225 122.224C94.9389 121.5 95.1726 120.991 95.2253 121.015C95.2572 121.026 95.0984 121.574 94.6184 122.355C94.1427 123.133 93.2969 124.113 92.1238 124.888C90.9484 125.658 89.7145 126.049 88.8115 126.178C87.9055 126.311 87.3393 126.239 87.3408 126.205Z" fill="#E0E0E0"/>
<path d="M87.9434 127.68C87.9426 127.622 88.5021 127.608 89.371 127.42C90.2391 127.236 91.4107 126.826 92.543 126.084C93.6723 125.336 94.5123 124.422 95.025 123.697C95.5414 122.973 95.7752 122.465 95.8279 122.489C95.8598 122.5 95.701 123.048 95.2209 123.829C94.7453 124.607 93.8994 125.586 92.7263 126.362C91.551 127.132 90.317 127.522 89.414 127.651C88.508 127.785 87.9411 127.714 87.9434 127.68Z" fill="#E0E0E0"/>
<path d="M108.145 138.188C108.145 138.188 109.431 138.422 110.566 138.766L112.195 139.134C112.011 139.814 111.703 140.919 111.11 141.316C110.515 141.713 109.422 141.88 108.811 141.468C108.322 141.137 108.007 140.636 107.838 139.898C107.693 139.262 108.145 138.188 108.145 138.188Z" fill="#F6BAA6"/>
<path d="M111.796 140.353C111.822 140.357 111.81 140.527 111.69 140.795C111.629 140.929 111.548 141.089 111.422 141.26C111.358 141.346 111.285 141.436 111.181 141.519C111.066 141.61 110.94 141.652 110.813 141.694C110.551 141.775 110.26 141.807 109.953 141.819C109.638 141.831 109.288 141.79 108.947 141.65C108.61 141.512 108.282 141.277 108.049 140.94C107.81 140.613 107.697 140.163 107.718 139.754C107.727 139.34 107.811 138.955 107.895 138.596C107.919 138.502 107.93 138.428 107.97 138.31C107.99 138.202 108.155 138.017 108.328 138.028C108.483 138.031 108.553 138.069 108.638 138.088L108.884 138.155C109.494 138.33 110.068 138.494 110.606 138.647C111.583 138.938 112.18 139.144 112.167 139.195C112.153 139.247 111.532 139.135 110.537 138.911C109.993 138.783 109.412 138.646 108.794 138.499L108.546 138.439C108.463 138.419 108.367 138.392 108.343 138.397C108.336 138.408 108.323 138.367 108.341 138.397C108.341 138.397 108.331 138.41 108.322 138.438C108.304 138.49 108.284 138.596 108.264 138.681C108.186 139.035 108.112 139.397 108.104 139.762C108.051 140.489 108.517 141.085 109.087 141.323C109.645 141.568 110.28 141.518 110.739 141.431C110.985 141.384 111.115 141.281 111.253 141.125C111.383 140.982 111.48 140.84 111.557 140.725C111.711 140.49 111.769 140.346 111.796 140.353Z" fill="#263238"/>
<path d="M137.273 188.224C137.167 188.241 136.459 184.33 135.69 179.491C134.921 174.649 134.383 170.713 134.489 170.696C134.594 170.679 135.303 174.589 136.071 179.43C136.84 184.269 137.378 188.207 137.273 188.224Z" fill="#455B64"/>
<path d="M112.06 215.414C112.063 215.427 111.943 215.458 111.715 215.503C111.442 215.552 111.111 215.612 110.713 215.684C109.779 215.834 108.532 216.036 107.018 216.28C103.896 216.766 99.5792 217.41 94.8081 218.1C92.4218 218.438 90.1498 218.791 88.0633 218.995C85.979 219.205 84.081 219.255 82.4961 219.136C80.9097 219.027 79.6438 218.762 78.792 218.518C78.3624 218.406 78.0396 218.282 77.8207 218.202C77.6019 218.121 77.4898 218.072 77.4943 218.059C77.5061 218.023 77.9706 218.179 78.8291 218.371C79.6854 218.569 80.9431 218.789 82.5132 218.863C84.0817 218.946 85.9575 218.868 88.027 218.64C90.0971 218.418 92.3654 218.055 94.7532 217.716C99.5242 217.028 103.847 216.425 106.98 216.008C108.501 215.814 109.755 215.654 110.692 215.534C111.094 215.49 111.428 215.455 111.704 215.425C111.936 215.406 112.059 215.401 112.06 215.414Z" fill="#455B64"/>
<path d="M243.67 219.006H233.219C233.206 218.922 233.195 218.838 233.175 218.754L226.037 188.72C225.673 187.19 224.307 186.111 222.734 186.111H183.766C181.529 186.111 179.903 188.236 180.49 190.396L188.653 220.43C188.969 221.59 189.559 222.779 191.011 222.934H191.929H229.873H246.975V222.31C246.975 220.485 245.495 219.006 243.67 219.006Z" fill="#E0E0E0"/>
<path d="M243.67 219.006C243.67 219.006 243.795 219.001 244.041 219.015C244.285 219.044 244.657 219.101 245.104 219.309C245.548 219.513 246.067 219.882 246.473 220.496C246.677 220.8 246.842 221.167 246.935 221.583C247.038 222 247.018 222.459 247.022 222.933L247.023 222.981H246.974C237.659 222.995 217.052 223.026 191.009 223.065H191.003L190.995 223.064C190.347 223.004 189.709 222.67 189.305 222.145C188.893 221.627 188.667 221.001 188.502 220.384C188.168 219.158 187.83 217.919 187.49 216.667C186.809 214.163 186.113 211.61 185.407 209.013C183.995 203.82 182.536 198.456 181.046 192.978C180.896 192.426 180.746 191.875 180.597 191.325C180.462 190.779 180.254 190.233 180.233 189.63C180.177 188.442 180.787 187.273 181.747 186.606C182.225 186.268 182.788 186.054 183.368 185.993C183.956 185.947 184.493 185.981 185.056 185.97C186.168 185.97 187.275 185.97 188.376 185.971C192.778 185.973 197.081 185.974 201.261 185.976C205.442 185.978 209.5 185.98 213.415 185.982C215.371 185.984 217.291 185.985 219.173 185.987C220.114 185.988 221.045 185.988 221.966 185.989C222.422 185.999 222.886 185.959 223.358 186.047C223.822 186.133 224.264 186.311 224.655 186.565C225.435 187.075 225.989 187.899 226.171 188.785C226.374 189.64 226.573 190.485 226.771 191.319C227.165 192.987 227.549 194.611 227.922 196.189C228.667 199.344 229.369 202.314 230.021 205.078C231.319 210.607 232.444 215.292 233.282 218.996L233.219 218.943C236.618 218.956 239.229 218.966 240.998 218.973C241.874 218.981 242.54 218.986 242.995 218.989C243.443 218.995 243.67 219.006 243.67 219.006C243.67 219.006 243.443 219.017 242.995 219.023C242.539 219.027 241.874 219.032 240.998 219.039C239.229 219.046 236.619 219.056 233.219 219.07H233.17L233.157 219.016C232.276 215.329 231.156 210.64 229.837 205.121C229.177 202.36 228.467 199.392 227.712 196.238C227.335 194.661 226.948 193.038 226.549 191.371C226.351 190.538 226.149 189.694 225.945 188.839C225.77 188 225.253 187.241 224.524 186.764C224.159 186.529 223.747 186.364 223.315 186.284C222.888 186.203 222.428 186.241 221.966 186.233C221.045 186.234 220.114 186.235 219.173 186.235C217.291 186.237 215.371 186.238 213.415 186.24C209.5 186.242 205.442 186.244 201.261 186.246C197.081 186.248 192.777 186.249 188.376 186.251C187.275 186.251 186.168 186.252 185.056 186.252C184.507 186.261 183.926 186.23 183.399 186.274C182.865 186.33 182.347 186.527 181.908 186.838C181.023 187.453 180.462 188.531 180.513 189.623C180.528 190.162 180.729 190.699 180.868 191.255C181.018 191.805 181.167 192.356 181.318 192.908C182.806 198.386 184.264 203.751 185.674 208.944C186.379 211.541 187.072 214.095 187.752 216.599C188.092 217.85 188.428 219.09 188.761 220.316C188.922 220.92 189.138 221.51 189.513 221.982C189.883 222.456 190.434 222.746 191.025 222.805L191.011 222.804C217.053 222.843 237.661 222.874 246.976 222.888L246.928 222.935C246.927 222.456 246.95 222.009 246.854 221.603C246.767 221.197 246.609 220.836 246.413 220.537C246.023 219.933 245.519 219.563 245.085 219.355C244.196 218.944 243.66 219.041 243.67 219.006Z" fill="#263238"/>
<path d="M222.517 189.072H183.39L191.164 216.855H229.224L222.517 189.072Z" fill="white"/>
<path d="M229.248 216.873H191.149L191.145 216.859L183.364 189.053H222.531L222.534 189.068L229.248 216.873ZM191.178 216.835H229.201L222.503 189.091H183.414L191.178 216.835Z" fill="#263238"/>
<path d="M233.605 219.082C233.605 219.159 224.384 219.222 213.012 219.222C201.635 219.222 192.416 219.159 192.416 219.082C192.416 219.005 201.635 218.942 213.012 218.942C224.384 218.942 233.605 219.005 233.605 219.082Z" fill="#263238"/>
<path d="M225.406 214.247C225.406 214.252 225.362 214.257 225.276 214.261C225.174 214.265 225.049 214.27 224.897 214.275C224.539 214.282 224.051 214.29 223.435 214.301C222.141 214.312 220.311 214.327 218.06 214.346C213.5 214.356 207.241 214.371 200.327 214.387C198.173 214.385 196.082 214.384 194.121 214.382H194.018L193.991 214.284C192.548 209.059 191.294 204.519 190.394 201.259C189.962 199.654 189.615 198.366 189.369 197.453C189.259 197.024 189.172 196.685 189.106 196.43C189.049 196.197 189.023 196.074 189.031 196.072C189.039 196.07 189.08 196.188 189.152 196.417C189.229 196.668 189.33 197.004 189.459 197.428C189.723 198.335 190.096 199.617 190.56 201.211C191.484 204.466 192.771 208.996 194.251 214.21L194.121 214.111C196.081 214.109 198.172 214.108 200.327 214.106C207.241 214.123 213.499 214.137 218.059 214.147C220.31 214.166 222.14 214.181 223.434 214.192C224.051 214.203 224.538 214.212 224.896 214.218C225.049 214.224 225.173 214.228 225.276 214.232C225.362 214.238 225.406 214.242 225.406 214.247Z" fill="#263238"/>
<path d="M199.254 204.706H194.551L196.824 212.138H201.527L199.254 204.706Z" fill="#5274B8"/>
<path d="M221.264 204.706H216.561L218.834 212.138H223.537L221.264 204.706Z" fill="#FCB86A"/>
<path d="M205.767 202.104H201.063L203.993 212.138H208.696L205.767 202.104Z" fill="#FCB86A"/>
<path d="M211.841 197.461H207.138L211.681 212.138H216.384L211.841 197.461Z" fill="#5274B8"/>
<path d="M258.422 230.739H250.429V333.449H258.422V230.739Z" fill="#E0E0E0"/>
<path d="M258.423 333.449C258.423 333.449 258.414 333.263 258.409 332.914C258.406 332.554 258.402 332.039 258.396 331.368C258.39 330.002 258.38 328.006 258.369 325.436C258.356 320.281 258.336 312.827 258.311 303.579C258.291 285.095 258.262 259.446 258.23 230.739L258.423 230.932C255.883 230.932 253.171 230.932 250.434 230.933H250.429L250.622 230.74C250.566 277.415 250.52 317.316 250.5 333.45L250.429 333.378C253.025 333.396 255.012 333.41 256.365 333.419C257.033 333.427 257.542 333.432 257.897 333.436C258.241 333.44 258.423 333.449 258.423 333.449C258.423 333.449 258.259 333.458 257.921 333.463C257.57 333.467 257.067 333.473 256.406 333.48C255.044 333.49 253.042 333.503 250.428 333.521L250.357 333.522V333.45C250.338 317.316 250.29 277.415 250.235 230.74V230.547H250.429H250.434C253.171 230.547 255.883 230.547 258.423 230.548H258.616V230.74C258.584 259.503 258.555 285.201 258.534 303.721C258.509 312.95 258.49 320.389 258.476 325.533C258.464 328.085 258.455 330.065 258.449 331.421C258.443 332.082 258.439 332.588 258.436 332.942C258.431 333.281 258.423 333.449 258.423 333.449Z" fill="#263238"/>
<path d="M44.2152 227.175H36.2217V333.438H44.2152V227.175Z" fill="#E0E0E0"/>
<path d="M44.2148 333.438C44.2148 333.438 44.2059 333.246 44.2014 332.885C44.1985 332.513 44.194 331.98 44.1881 331.284C44.1822 329.872 44.1725 327.807 44.1614 325.146C44.148 319.812 44.128 312.098 44.1035 302.528C44.0827 283.402 44.0545 256.866 44.0226 227.175L44.2155 227.368C41.6772 227.368 38.9637 227.368 36.2272 227.369H36.222L36.4149 227.176C36.3578 275.654 36.3103 317.051 36.291 333.438L36.2212 333.369C38.8309 333.386 40.8187 333.4 42.1676 333.409C42.8339 333.416 43.34 333.421 43.6924 333.425C44.0352 333.43 44.2148 333.438 44.2148 333.438C44.2148 333.438 44.0523 333.447 43.7169 333.452C43.3682 333.456 42.8673 333.461 42.2077 333.468C40.8498 333.477 38.8479 333.49 36.2212 333.508L36.1515 333.509V333.438C36.1322 317.052 36.0847 275.654 36.0283 227.176V226.983H36.222H36.2272C38.9637 226.983 41.6772 226.984 44.2155 226.984H44.4085V227.177C44.3766 256.923 44.3476 283.509 44.3268 302.671C44.3024 312.222 44.2831 319.919 44.269 325.244C44.2571 327.885 44.2482 329.935 44.2423 331.338C44.2363 332.023 44.2319 332.547 44.2289 332.912C44.2237 333.264 44.2148 333.438 44.2148 333.438Z" fill="#263238"/>
<path d="M105.103 227.175H97.1094V333.487H105.103V227.175Z" fill="#E0E0E0"/>
<path d="M105.103 333.487C105.103 333.487 105.094 333.294 105.09 332.933C105.087 332.561 105.082 332.028 105.077 331.332C105.07 329.918 105.061 327.853 105.049 325.19C105.036 319.853 105.016 312.136 104.991 302.562C104.97 283.427 104.942 256.878 104.91 227.175L105.103 227.368C102.565 227.368 99.8514 227.368 97.1149 227.369H97.1097L97.3026 227.176C97.2462 275.678 97.1987 317.097 97.1794 333.487L97.1097 333.417C99.7193 333.435 101.707 333.448 103.056 333.457C103.722 333.464 104.228 333.47 104.581 333.473C104.924 333.478 105.103 333.487 105.103 333.487C105.103 333.487 104.941 333.496 104.605 333.5C104.257 333.504 103.756 333.51 103.096 333.516C101.738 333.525 99.7364 333.539 97.1089 333.556L97.0392 333.557V333.487C97.0199 317.097 96.9724 275.678 96.916 227.176V226.983H97.1097H97.1149C99.8514 226.983 102.565 226.984 105.103 226.984H105.296V227.177C105.264 256.936 105.235 283.534 105.215 302.705C105.191 312.26 105.171 319.961 105.157 325.288C105.146 327.931 105.137 329.981 105.131 331.385C105.125 332.069 105.12 332.594 105.117 332.961C105.113 333.313 105.103 333.487 105.103 333.487Z" fill="#263238"/>
<path d="M275.817 222.084H22.8691V235.041H275.817V222.084Z" fill="#6F453A"/>
<g opacity="0.3">
<path d="M91.7675 222.11H23.2705V235.016H91.7675V222.11Z" fill="black"/>
</g>
<path d="M70.1639 211.137H89.1807V203.644H70.1639V211.137Z" fill="#EBEBEB"/>
<path d="M30.25 203.927H89.9736V202.358H30.25V203.927Z" fill="#FCB86A"/>
<path d="M30.2495 212.372H89.6963V210.803H30.2495V212.372Z" fill="#FCB86A"/>
<path d="M70.1642 202.732L70.0744 212.073H30.249V202.732H70.1642Z" fill="#FCB86A"/>
<path d="M60.4854 207.393C60.4854 208.676 61.4492 209.717 62.6379 209.717C63.8266 209.717 64.7904 208.676 64.7904 207.393C64.7904 206.109 63.8266 205.068 62.6379 205.068C61.4492 205.068 60.4854 206.109 60.4854 207.393Z" fill="#263238"/>
<path d="M60.1514 207.393C60.1514 205.927 61.2673 204.734 62.6385 204.734C64.009 204.734 65.125 205.927 65.125 207.393C65.125 208.859 64.009 210.051 62.6385 210.051C61.2673 210.051 60.1514 208.859 60.1514 207.393ZM60.8192 207.393C60.8192 208.49 61.6354 209.383 62.6378 209.383C63.6402 209.383 64.4557 208.49 64.4557 207.393C64.4557 206.295 63.6402 205.403 62.6378 205.403C61.6354 205.402 60.8192 206.295 60.8192 207.393Z" fill="#E0E0E0"/>
<path d="M71.5938 209.3C71.5938 209.396 75.5011 209.473 80.3197 209.473C85.1404 209.473 89.0471 209.395 89.0471 209.3C89.0471 209.204 85.1404 209.126 80.3197 209.126C75.5011 209.126 71.5938 209.204 71.5938 209.3Z" fill="#263238"/>
<path d="M71.5938 207.994C71.5938 208.091 75.5011 208.169 80.3197 208.169C85.1404 208.169 89.0471 208.091 89.0471 207.994C89.0471 207.899 85.1404 207.821 80.3197 207.821C75.5011 207.821 71.5938 207.899 71.5938 207.994Z" fill="#263238"/>
<path d="M71.5938 206.69C71.5938 206.786 75.5011 206.864 80.3197 206.864C85.1404 206.864 89.0471 206.786 89.0471 206.69C89.0471 206.594 85.1404 206.516 80.3197 206.516C75.5011 206.516 71.5938 206.594 71.5938 206.69Z" fill="#263238"/>
<path d="M71.5938 205.385C71.5938 205.481 75.5011 205.558 80.3197 205.558C85.1404 205.558 89.0471 205.481 89.0471 205.385C89.0471 205.289 85.1404 205.211 80.3197 205.211C75.5011 205.211 71.5938 205.288 71.5938 205.385Z" fill="#263238"/>
<path d="M34.6656 209.718H52.6123V204.718H34.6656V209.718Z" fill="white"/>
<path d="M49.8172 209.209C49.9136 209.209 49.9908 208.317 49.9908 207.218C49.9908 206.117 49.9129 205.226 49.8172 205.226C49.7215 205.226 49.6436 206.118 49.6436 207.218C49.6428 208.318 49.7207 209.209 49.8172 209.209Z" fill="#E0E0E0"/>
<path d="M47.4441 209.209C47.5406 209.209 47.6185 208.317 47.6185 207.218C47.6185 206.117 47.5406 205.226 47.4441 205.226C47.3484 205.226 47.2705 206.118 47.2705 207.218C47.2705 208.318 47.3484 209.209 47.4441 209.209Z" fill="#E0E0E0"/>
<path d="M45.0711 209.209C45.1675 209.209 45.2455 208.317 45.2455 207.218C45.2455 206.117 45.1675 205.226 45.0711 205.226C44.9754 205.226 44.8975 206.118 44.8975 207.218C44.8975 208.318 44.9754 209.209 45.0711 209.209Z" fill="#E0E0E0"/>
<path d="M42.698 209.209C42.7945 209.209 42.8717 208.317 42.8717 207.218C42.8717 206.117 42.7938 205.226 42.698 205.226C42.6023 205.226 42.5244 206.118 42.5244 207.218C42.5244 208.318 42.6023 209.209 42.698 209.209Z" fill="#E0E0E0"/>
<path d="M40.325 209.209C40.4215 209.209 40.4986 208.317 40.4986 207.218C40.4986 206.117 40.4207 205.226 40.325 205.226C40.2293 205.226 40.1514 206.118 40.1514 207.218C40.1514 208.318 40.2293 209.209 40.325 209.209Z" fill="#E0E0E0"/>
<path d="M37.9519 209.209C38.0484 209.209 38.1256 208.317 38.1256 207.218C38.1256 206.117 38.0477 205.226 37.9519 205.226C37.8562 205.226 37.7783 206.118 37.7783 207.218C37.7783 208.318 37.8562 209.209 37.9519 209.209Z" fill="#E0E0E0"/>
<path d="M69.8943 212.351C69.9908 212.351 70.068 210.13 70.068 207.391C70.068 204.65 69.99 202.43 69.8943 202.43C69.7986 202.43 69.7207 204.65 69.7207 207.391C69.7207 210.13 69.7986 212.351 69.8943 212.351Z" fill="#263238"/>
<path d="M32.2734 187.786V185.346L83.3171 185.453H86.2665V187.822H83.3171V202.43H28.1895V187.786H32.2734Z" fill="#F5F5F5"/>
<path d="M44.7887 202.43V185.346H32.2734V187.786H28.1895V202.43H44.7887Z" fill="#EBEBEB"/>
<path d="M32.2734 185.346C32.2734 185.443 44.2575 185.52 59.0374 185.52C73.8225 185.52 85.8043 185.442 85.8043 185.346C85.8043 185.251 73.8225 185.173 59.0374 185.173C44.2575 185.173 32.2734 185.251 32.2734 185.346Z" fill="#E0E0E0"/>
<path d="M28.5986 193.02C28.5986 193.116 40.803 193.194 55.8538 193.194C70.9104 193.194 83.1119 193.116 83.1119 193.02C83.1119 192.924 70.9104 192.847 55.8538 192.847C40.8023 192.846 28.5986 192.924 28.5986 193.02Z" fill="#E0E0E0"/>
<path d="M28.1895 198.254C28.1895 198.35 40.4851 198.428 55.6494 198.428C70.8188 198.428 83.1123 198.35 83.1123 198.254C83.1123 198.158 70.8188 198.081 55.6494 198.081C40.4851 198.08 28.1895 198.158 28.1895 198.254Z" fill="#E0E0E0"/>
<path d="M85.8041 187.786C85.8041 187.69 73.82 187.612 59.0394 187.612C44.2543 187.612 32.2725 187.69 32.2725 187.786C32.2725 187.882 44.2543 187.96 59.0394 187.96C73.82 187.96 85.8041 187.882 85.8041 187.786Z" fill="#E0E0E0"/>
<path d="M67.6376 220.875H86.6543V213.383H67.6376V220.875Z" fill="#EBEBEB"/>
<path d="M27.7237 213.665H87.4473V212.096H27.7237V213.665Z" fill="#5274B8"/>
<path d="M27.7231 222.11H87.1699V220.541H27.7231V222.11Z" fill="#5274B8"/>
<path d="M67.6378 212.469L67.548 221.811H27.7227V212.469H67.6378Z" fill="#5274B8"/>
<path d="M57.959 217.131C57.959 218.414 58.9228 219.455 60.1115 219.455C61.3002 219.455 62.2641 218.414 62.2641 217.131C62.2641 215.847 61.3002 214.806 60.1115 214.806C58.9228 214.806 57.959 215.847 57.959 217.131Z" fill="#263238"/>
<path d="M57.625 217.131C57.625 215.665 58.741 214.472 60.1122 214.472C61.4834 214.472 62.5994 215.665 62.5994 217.131C62.5994 218.597 61.4834 219.789 60.1122 219.789C58.7402 219.789 57.625 218.597 57.625 217.131ZM58.2928 217.131C58.2928 218.228 59.109 219.121 60.1114 219.121C61.1139 219.121 61.9301 218.228 61.9301 217.131C61.9301 216.033 61.1139 215.141 60.1114 215.141C59.109 215.141 58.2928 216.033 58.2928 217.131Z" fill="#E0E0E0"/>
<path d="M69.0674 219.038C69.0674 219.135 72.9748 219.212 77.7933 219.212C82.6141 219.212 86.5207 219.134 86.5207 219.038C86.5207 218.943 82.6141 218.865 77.7933 218.865C72.9748 218.864 69.0674 218.942 69.0674 219.038Z" fill="#263238"/>
<path d="M69.0674 217.733C69.0674 217.829 72.9748 217.907 77.7933 217.907C82.6141 217.907 86.5207 217.829 86.5207 217.733C86.5207 217.637 82.6141 217.56 77.7933 217.56C72.9748 217.559 69.0674 217.637 69.0674 217.733Z" fill="#263238"/>
<path d="M69.0674 216.428C69.0674 216.524 72.9748 216.602 77.7933 216.602C82.6141 216.602 86.5207 216.524 86.5207 216.428C86.5207 216.332 82.6141 216.254 77.7933 216.254C72.9748 216.254 69.0674 216.332 69.0674 216.428Z" fill="#263238"/>
<path d="M69.0674 215.123C69.0674 215.219 72.9748 215.296 77.7933 215.296C82.6141 215.296 86.5207 215.219 86.5207 215.123C86.5207 215.026 82.6141 214.949 77.7933 214.949C72.9748 214.948 69.0674 215.026 69.0674 215.123Z" fill="#263238"/>
<path d="M32.1392 219.456H50.0859V214.456H32.1392V219.456Z" fill="white"/>
<path d="M47.2908 218.947C47.3865 218.947 47.4644 218.055 47.4644 216.956C47.4644 215.855 47.3865 214.964 47.2908 214.964C47.1951 214.964 47.1172 215.856 47.1172 216.956C47.1165 218.056 47.1944 218.947 47.2908 218.947Z" fill="#E0E0E0"/>
<path d="M44.9178 218.947C45.0142 218.947 45.0921 218.055 45.0921 216.956C45.0921 215.855 45.0142 214.964 44.9178 214.964C44.8221 214.964 44.7441 215.856 44.7441 216.956C44.7441 218.056 44.8221 218.947 44.9178 218.947Z" fill="#E0E0E0"/>
<path d="M42.5447 218.947C42.6412 218.947 42.7191 218.055 42.7191 216.956C42.7191 215.855 42.6412 214.964 42.5447 214.964C42.449 214.964 42.3711 215.856 42.3711 216.956C42.3711 218.056 42.449 218.947 42.5447 218.947Z" fill="#E0E0E0"/>
<path d="M40.1717 218.947C40.2681 218.947 40.346 218.055 40.346 216.956C40.346 215.855 40.2681 214.964 40.1717 214.964C40.076 214.964 39.998 215.856 39.998 216.956C39.998 218.056 40.076 218.947 40.1717 218.947Z" fill="#E0E0E0"/>
<path d="M37.7986 218.947C37.8951 218.947 37.9723 218.055 37.9723 216.956C37.9723 215.855 37.8943 214.964 37.7986 214.964C37.7029 214.964 37.625 215.856 37.625 216.956C37.625 218.056 37.7029 218.947 37.7986 218.947Z" fill="#E0E0E0"/>
<path d="M35.4256 218.947C35.522 218.947 35.6 218.055 35.6 216.956C35.6 215.855 35.522 214.964 35.4256 214.964C35.3299 214.964 35.252 215.856 35.252 216.956C35.252 218.056 35.3299 218.947 35.4256 218.947Z" fill="#E0E0E0"/>
<path d="M67.368 222.09C67.4644 222.09 67.5416 219.869 67.5416 217.129C67.5416 214.389 67.4637 212.169 67.368 212.169C67.2722 212.169 67.1943 214.39 67.1943 217.129C67.1943 219.868 67.2722 222.09 67.368 222.09Z" fill="#263238"/>
<path d="M334.55 122.437C334.122 121.042 332.721 120.006 331.26 120.007C329.842 118.389 327.243 117.964 325.383 119.045C324.267 118.074 322.631 117.742 321.226 118.201C319.819 118.66 318.695 119.894 318.367 121.336C316.954 120.838 315.249 121.339 314.332 122.523C313.414 123.706 313.353 125.483 314.188 126.727C312.51 126.951 311.138 128.57 311.193 130.262C311.247 131.954 312.72 133.481 314.409 133.597L333.189 126.295C334.398 125.477 334.979 123.833 334.55 122.437Z" fill="#B38C67"/>
<path d="M313.827 133.982C315.802 126.604 323.113 121.98 330.626 123.357L331.373 123.493C339.337 125.438 342.134 133.288 339.97 141.195L333.327 168.241L333.149 168.501L319.712 177.802L317.411 176.105L314.462 168.727L315.607 162.571C315.607 162.571 308.088 159.95 309.41 152.195C310.048 148.45 311.99 140.845 313.827 133.982Z" fill="#FDD7C6"/>
<path d="M315.615 162.584C315.615 162.584 320.432 163.75 326.227 161.438C326.227 161.438 322.762 166.622 315.239 164.547L315.615 162.584Z" fill="#F6BAA6"/>
<path d="M314.239 141.761C314.112 142.34 314.497 142.926 315.101 143.07C315.702 143.214 316.295 142.862 316.422 142.283C316.55 141.703 316.164 141.116 315.562 140.973C314.958 140.829 314.366 141.181 314.239 141.761Z" fill="#263238"/>
<path d="M314.638 138.45C314.749 138.619 315.699 138.152 316.888 138.373C318.078 138.577 318.839 139.348 318.995 139.227C319.07 139.174 318.978 138.888 318.649 138.542C318.325 138.197 317.736 137.813 316.995 137.68C316.254 137.549 315.581 137.707 315.171 137.921C314.754 138.135 314.582 138.373 314.638 138.45Z" fill="#B38C67"/>
<path d="M324.507 143.772C324.379 144.352 324.765 144.938 325.368 145.082C325.97 145.226 326.562 144.874 326.69 144.294C326.817 143.715 326.432 143.128 325.83 142.984C325.227 142.839 324.634 143.193 324.507 143.772Z" fill="#263238"/>
<path d="M326.044 140.367C326.155 140.536 327.107 140.07 328.294 140.291C329.484 140.495 330.245 141.266 330.401 141.145C330.476 141.092 330.385 140.806 330.054 140.46C329.731 140.116 329.142 139.731 328.401 139.598C327.66 139.467 326.987 139.626 326.577 139.839C326.162 140.053 325.989 140.291 326.044 140.367Z" fill="#B38C67"/>
<path d="M324.56 150.324C324.364 150.273 323.972 151.257 322.943 151.89C321.924 152.537 320.842 152.476 320.809 152.671C320.789 152.761 321.048 152.911 321.525 152.946C321.995 152.984 322.69 152.874 323.329 152.475C323.967 152.075 324.359 151.506 324.519 151.073C324.685 150.636 324.653 150.343 324.56 150.324Z" fill="#263238"/>
<path d="M320.514 148.462C320.532 148.395 319.816 148.132 318.647 147.76C318.349 147.673 318.073 147.56 318.059 147.343C318.028 147.111 318.215 146.807 318.427 146.48C318.847 145.798 319.287 145.082 319.748 144.333C321.598 141.269 322.996 138.729 322.873 138.655C322.748 138.582 321.149 141.005 319.299 144.069C318.85 144.826 318.421 145.547 318.013 146.237C317.835 146.561 317.566 146.916 317.638 147.4C317.678 147.642 317.871 147.847 318.056 147.935C318.24 148.03 318.41 148.065 318.558 148.101C319.75 148.387 320.497 148.529 320.514 148.462Z" fill="#263238"/>
<path d="M326.651 136.969C326.735 137.303 327.811 137.214 329.051 137.462C330.297 137.683 331.28 138.159 331.465 137.875C331.547 137.739 331.391 137.42 331.003 137.076C330.618 136.734 329.991 136.393 329.246 136.252C328.5 136.112 327.804 136.204 327.335 136.386C326.862 136.567 326.615 136.81 326.651 136.969Z" fill="#F6BAA6"/>
<path d="M315.506 135.238C315.639 135.559 316.518 135.5 317.488 135.748C318.467 135.962 319.226 136.408 319.489 136.181C319.608 136.069 319.55 135.768 319.26 135.421C318.975 135.076 318.44 134.713 317.771 134.553C317.101 134.395 316.461 134.481 316.051 134.662C315.636 134.842 315.45 135.085 315.506 135.238Z" fill="#F6BAA6"/>
<path d="M315.221 130.57C315.221 130.57 318.149 126.098 320.692 125.395C323.772 124.544 324.421 127.872 327.254 127.612C330.088 127.352 333.029 126.533 335.402 129.121C337.999 131.954 336.294 133.296 335.851 136.763C334.057 150.82 335.878 155.222 337.802 148.798C338.013 148.095 340.111 147.889 340.962 144.908C342.066 141.043 343.092 136.293 342.726 133.34C342.416 130.85 341.372 128.978 339.294 126.745C336.014 123.219 330.806 122.202 327.197 121.91C323.588 121.617 316.009 124.444 315.221 130.57Z" fill="#B38C67"/>
<path d="M337.348 148.498C337.616 147.312 338.817 146.558 339.986 146.889C341.404 147.291 342.86 148.404 342.219 151.369C341.082 156.627 336.036 154.401 336.06 154.248C336.075 154.144 336.852 150.694 337.348 148.498Z" fill="#FDD7C6"/>
<path d="M337.632 152.517C337.658 152.505 337.71 152.6 337.849 152.705C337.985 152.807 338.234 152.911 338.531 152.868C339.131 152.784 339.789 152.003 340.02 151.061C340.137 150.585 340.135 150.108 340.048 149.694C339.97 149.275 339.78 148.952 339.511 148.842C339.247 148.718 339.013 148.842 338.916 148.977C338.814 149.109 338.824 149.221 338.794 149.224C338.777 149.234 338.701 149.111 338.79 148.903C338.834 148.804 338.923 148.692 339.068 148.619C339.217 148.543 339.414 148.531 339.604 148.594C340.003 148.71 340.288 149.162 340.385 149.617C340.503 150.078 340.517 150.617 340.385 151.151C340.123 152.204 339.366 153.078 338.558 153.133C338.167 153.15 337.882 152.971 337.75 152.813C337.613 152.646 337.611 152.523 337.632 152.517Z" fill="#F6BAA6"/>
<path d="M339.122 138.23C338.348 138.573 337.534 138.924 336.692 138.854C335.849 138.784 334.989 138.136 335 137.29C335.005 136.91 335.173 136.5 334.983 136.171C334.756 135.779 334.204 135.787 333.752 135.753C332.184 135.635 330.808 134.259 330.69 132.69C330.191 133.206 329.28 133.012 328.756 132.521C328.232 132.03 327.965 131.333 327.598 130.717C327.23 130.099 326.666 129.504 325.948 129.476C325.547 129.46 325.138 129.626 324.751 129.519C324.068 129.33 323.878 128.454 323.899 127.746C323.919 127.037 323.985 126.218 323.466 125.735C322.985 125.288 322.241 125.359 321.584 125.336C320.928 125.313 320.129 125.012 320.08 124.357C320.054 124.013 320.258 123.694 320.493 123.441C321.554 122.295 323.456 122.048 324.775 122.884C325.613 121.231 327.497 120.17 329.344 120.311C331.193 120.451 332.894 121.785 333.471 123.547C334.775 122.737 336.478 122.609 337.888 123.214C339.299 123.819 340.379 125.142 340.69 126.645C342.039 126.541 343.415 127.308 344.037 128.508C344.66 129.709 344.493 131.275 343.631 132.318C344.483 133.035 345.124 134.129 344.943 135.228C344.762 136.326 343.496 137.222 342.492 136.74C342.763 137.671 342.204 138.764 341.291 139.089C340.378 139.414 339.254 138.92 338.875 138.028" fill="#B38C67"/>
<path d="M342.881 136.8C342.902 136.789 342.898 137.263 342.365 137.757C342.104 137.99 341.691 138.206 341.189 138.195C340.698 138.187 340.136 137.963 339.762 137.48L339.992 137.487C339.647 137.895 339.216 138.295 338.694 138.613C338.359 138.815 337.998 138.973 337.62 139.036C337.248 139.111 336.851 139.052 336.537 138.94C335.88 138.744 335.361 138.276 335.171 137.785C334.969 137.301 334.952 136.884 334.945 136.606C334.941 136.325 334.963 136.172 334.983 136.171C335.006 136.17 335.025 136.324 335.065 136.596C335.108 136.866 335.161 137.268 335.369 137.691C335.731 138.542 337.294 139.229 338.535 138.348C339.02 138.054 339.434 137.676 339.768 137.296L339.889 137.157L339.998 137.303C340.298 137.709 340.776 137.921 341.199 137.944C341.627 137.971 341.995 137.806 342.249 137.614C342.762 137.211 342.837 136.778 342.881 136.8Z" fill="#B38C67"/>
<path d="M335.099 122.889C335.098 122.907 334.954 122.9 334.7 122.957C334.45 123.015 334.073 123.152 333.75 123.504L333.668 123.593L333.613 123.482C333.24 122.728 332.568 121.724 331.435 120.943C330.871 120.559 330.193 120.242 329.436 120.105C328.683 119.963 327.855 120.036 327.079 120.335C326.475 120.566 325.938 120.923 325.513 121.355C325.094 121.793 324.792 122.31 324.639 122.843L324.591 123.007L324.439 122.934C323.685 122.569 322.846 122.576 322.192 122.799C321.528 123.02 321.052 123.455 320.753 123.867C320.156 124.72 320.189 125.391 320.136 125.374C320.125 125.374 320.107 125.218 320.152 124.93C320.199 124.646 320.312 124.223 320.611 123.769C320.904 123.321 321.399 122.833 322.113 122.573C322.815 122.314 323.722 122.286 324.563 122.677L324.364 122.768C324.522 122.185 324.846 121.62 325.294 121.145C325.749 120.676 326.323 120.293 326.967 120.047C327.794 119.728 328.686 119.653 329.49 119.811C330.295 119.964 331.006 120.309 331.588 120.722C332.759 121.56 333.42 122.621 333.765 123.412L333.628 123.39C334.004 123.019 334.418 122.904 334.684 122.87C334.956 122.838 335.1 122.877 335.099 122.889Z" fill="#B38C67"/>
<path d="M251.212 223.053C251.212 223.053 251.755 217.349 254.335 215.719C256.915 214.09 263.807 212.678 263.807 212.678L266.557 220.843L261.94 226.663L251.212 223.053Z" fill="#FDD7C6"/>
<path d="M235.957 306.365L236.569 323.936C236.569 323.936 219.003 330.094 218.801 333.352L252.824 333.755L252.993 306.337L235.957 306.365Z" fill="black"/>
<path d="M247.055 322.532C247.72 322.714 248.179 323.462 248.024 324.134C247.869 324.805 247.112 325.279 246.444 325.108C245.776 324.937 245.197 324.056 245.427 323.406C245.657 322.756 246.575 322.249 247.183 322.575" fill="#E0E0E0"/>
<path d="M252.987 333.752L253.001 331.569L219.971 331.842C219.971 331.842 218.886 332.506 218.793 333.533L252.987 333.752Z" fill="#455B64"/>
<path d="M236.423 324.047C236.428 324.215 237.267 324.292 238.092 324.832C238.931 325.351 239.355 326.078 239.51 326.012C239.665 325.98 239.415 324.976 238.405 324.339C237.402 323.694 236.386 323.893 236.423 324.047Z" fill="#455B64"/>
<path d="M232.818 325.533C232.779 325.696 233.506 325.982 234.075 326.692C234.665 327.385 234.808 328.153 234.975 328.146C235.133 328.172 235.249 327.19 234.526 326.32C233.809 325.445 232.822 325.374 232.818 325.533Z" fill="#455B64"/>
<path d="M230.767 329.844C230.919 329.88 231.154 329.042 230.724 328.123C230.301 327.2 229.51 326.837 229.438 326.977C229.343 327.115 229.852 327.609 230.194 328.368C230.553 329.12 230.6 329.827 230.767 329.844Z" fill="#455B64"/>
<path d="M236.731 319.999C236.801 320.151 237.57 319.921 238.519 319.986C239.469 320.032 240.206 320.351 240.294 320.208C240.391 320.087 239.671 319.465 238.553 319.404C237.435 319.333 236.648 319.867 236.731 319.999Z" fill="#455B64"/>
<path d="M236.122 316.212C236.12 316.281 236.783 316.386 237.843 316.206C238.37 316.114 238.991 315.943 239.644 315.654C239.969 315.51 240.303 315.337 240.632 315.131C240.791 315.029 240.978 314.927 241.152 314.727C241.338 314.552 241.444 314.107 241.23 313.834C241.054 313.57 240.743 313.456 240.495 313.45C240.242 313.442 240.037 313.492 239.851 313.538C239.468 313.63 239.109 313.757 238.781 313.904C238.124 314.202 237.59 314.579 237.193 314.943C236.395 315.681 236.122 316.307 236.18 316.34C236.256 316.395 236.644 315.871 237.456 315.262C237.861 314.96 238.378 314.647 238.991 314.399C239.299 314.278 239.63 314.172 239.98 314.096C240.344 314.001 240.653 313.999 240.747 314.161C240.78 314.222 240.785 314.247 240.709 314.353C240.63 314.451 240.483 314.547 240.327 314.648C240.024 314.846 239.717 315.018 239.418 315.167C238.818 315.464 238.245 315.666 237.754 315.803C236.767 316.076 236.119 316.122 236.122 316.212Z" fill="#455B64"/>
<path d="M221.534 272.31L213.249 287.817C213.249 287.817 194.965 284.332 193.155 287.049L222.386 304.465L236.286 280.832L221.534 272.31Z" fill="black"/>
<path d="M222.884 291.78C223.367 292.272 223.389 293.149 222.918 293.652C222.447 294.155 221.555 294.185 221.063 293.702C220.571 293.22 220.512 292.167 221.037 291.72C221.561 291.272 222.611 291.294 222.972 291.881" fill="#E0E0E0"/>
<path d="M222.387 304.463L223.494 302.58L194.784 286.247C194.784 286.247 193.511 286.278 192.916 287.121L222.387 304.463Z" fill="#455B64"/>
<path d="M212.925 287.757C212.846 287.905 213.533 288.392 213.975 289.274C214.44 290.143 214.443 290.986 214.61 291.006C214.759 291.055 215.047 290.063 214.493 289.005C213.948 287.943 212.971 287.606 212.925 287.757Z" fill="#455B64"/>
<path d="M209.061 287.235C208.946 287.357 209.432 287.968 209.567 288.868C209.729 289.764 209.468 290.5 209.616 290.577C209.739 290.679 210.333 289.888 210.143 288.772C209.963 287.656 209.145 287.098 209.061 287.235Z" fill="#455B64"/>
<path d="M205.124 289.935C205.238 290.043 205.861 289.436 205.951 288.424C206.047 287.414 205.546 286.704 205.414 286.788C205.262 286.86 205.455 287.542 205.369 288.371C205.303 289.201 204.989 289.837 205.124 289.935Z" fill="#455B64"/>
<path d="M215.222 284.409C215.206 284.577 215.988 284.763 216.775 285.296C217.573 285.812 218.051 286.458 218.199 286.378C218.343 286.321 218.033 285.423 217.096 284.809C216.166 284.187 215.217 284.253 215.222 284.409Z" fill="#455B64"/>
<path d="M216.595 280.829C216.559 280.888 217.08 281.311 218.087 281.686C218.589 281.872 219.213 282.036 219.922 282.113C220.275 282.151 220.651 282.168 221.039 282.156C221.227 282.147 221.441 282.153 221.691 282.067C221.94 282.009 222.254 281.677 222.206 281.334C222.187 281.017 221.975 280.762 221.763 280.633C221.549 280.498 221.345 280.44 221.161 280.385C220.783 280.273 220.409 280.203 220.051 280.165C219.334 280.093 218.683 280.152 218.156 280.268C217.097 280.506 216.546 280.911 216.58 280.968C216.617 281.054 217.216 280.795 218.224 280.676C218.726 280.617 219.33 280.606 219.985 280.699C220.313 280.748 220.652 280.823 220.992 280.932C221.355 281.032 221.624 281.186 221.623 281.373C221.621 281.444 221.613 281.467 221.493 281.521C221.376 281.566 221.2 281.575 221.015 281.584C220.652 281.603 220.301 281.598 219.968 281.576C219.3 281.533 218.702 281.42 218.209 281.291C217.221 281.035 216.639 280.749 216.595 280.829Z" fill="#263238"/>
<path d="M328.439 246.332C328.411 245.967 328.392 245.764 328.392 245.764L328.439 246.332Z" fill="#263238"/>
<path d="M328.974 246.336L289.863 231.698C289.863 231.698 266.754 220.911 258.353 218.595C249.361 216.116 241.249 222.881 236.236 233.369C232.841 240.473 213.87 284.768 213.87 284.768L228.907 294.513L258.95 240.953L302.891 269.475C302.891 269.475 311.553 269.303 319.926 269.303C327.494 269.303 329.239 249.79 328.974 246.336Z" fill="black"/>
<path d="M233.361 321.056L238.868 260.328C238.868 260.328 239.837 247.686 247.132 245.163C254.427 242.639 262.956 243.654 262.956 243.654L303.839 269.458L261.895 270.179C261.895 270.179 259.761 279.005 259.152 282.832C258.427 287.396 253.002 321.848 253.002 321.848L233.361 321.056Z" fill="black"/>
<path d="M302.891 267.215C302.891 267.215 302.829 267.17 302.702 267.09C302.566 267.007 302.379 266.892 302.135 266.742C301.624 266.435 300.883 265.989 299.925 265.413C297.981 264.257 295.162 262.58 291.617 260.471C288.06 258.364 283.777 255.827 278.925 252.954C276.497 251.518 273.927 249.998 271.234 248.407C269.887 247.611 268.51 246.797 267.104 245.967C265.683 245.163 264.234 244.342 262.758 243.507L262.729 243.491L262.695 243.49C260.902 243.434 258.971 243.374 257.008 243.312H257.002H256.996C254.585 243.432 252.103 243.668 249.632 244.264C249.015 244.418 248.401 244.586 247.794 244.827C247.219 245.131 246.639 245.413 246.088 245.759L245.297 246.331L244.9 246.619L244.542 246.955L243.824 247.627C243.594 247.861 243.394 248.123 243.177 248.37C241.666 250.174 240.609 252.286 239.91 254.452C239.193 256.616 238.791 258.847 238.658 261.045C238.265 265.416 237.885 269.632 237.523 273.65C236.807 281.682 236.161 288.915 235.619 294.994C235.087 301.063 234.658 305.978 234.359 309.386C234.218 311.078 234.107 312.395 234.031 313.3C233.997 313.741 233.972 314.079 233.954 314.319C233.937 314.548 233.937 314.667 233.937 314.667C233.937 314.667 233.957 314.55 233.983 314.322C234.008 314.083 234.043 313.745 234.089 313.306C234.177 312.401 234.305 311.086 234.47 309.396C234.79 305.99 235.251 301.078 235.82 295.011C236.381 288.933 237.047 281.7 237.787 273.67C238.154 269.652 238.539 265.436 238.938 261.065C239.073 258.882 239.471 256.683 240.18 254.542C240.873 252.402 241.916 250.323 243.397 248.555C243.609 248.312 243.806 248.055 244.031 247.826L244.733 247.168L245.083 246.84L245.47 246.559L246.243 245.999C246.778 245.664 247.355 245.384 247.902 245.091C248.48 244.861 249.093 244.692 249.699 244.54C252.139 243.95 254.609 243.713 257.008 243.591H256.997C258.96 243.65 260.892 243.708 262.685 243.762L262.621 243.744C264.097 244.577 265.547 245.394 266.969 246.196C268.376 247.023 269.755 247.834 271.103 248.627C273.8 250.212 276.374 251.725 278.806 253.154C283.669 256.007 287.963 258.525 291.529 260.617C295.09 262.696 297.924 264.351 299.876 265.491C300.843 266.05 301.592 266.483 302.108 266.782C302.357 266.923 302.549 267.031 302.687 267.11C302.821 267.184 302.891 267.215 302.891 267.215Z" fill="#455B64"/>
<path d="M294.663 215.99L283.445 218.266L273.647 221.564L290.181 231.761L293.001 225.333L294.663 215.99Z" fill="#FCB86A"/>
<path d="M335.349 167.325C335.349 167.325 344.317 179.585 341.07 195.605C337.822 211.627 332.366 242.947 332.206 246.421C332.074 249.276 330.516 248.994 330.516 248.994L290.337 232.208L298.825 198.05L311.534 174.859L313.497 168.902L334.507 163.412L335.349 167.325Z" fill="#FCB86A"/>
<path d="M291.89 227.063C291.89 227.063 292.481 234.161 292.548 235.046C292.615 235.931 291.383 238.816 291.372 240.426C291.361 242.035 291.859 243.596 291.175 244.096C290.492 244.595 288.827 244.197 288.469 243.027C288.112 241.857 288.382 238.307 288.382 238.307L287.404 241.473L287.079 247.417C287.079 247.417 286.912 248.347 285.845 248.251C284.777 248.154 284.174 247.258 284.174 247.258C284.174 247.258 282.895 247.514 282.282 246.101C282.282 246.101 280.337 246.607 279.825 243.359C279.825 243.359 278.929 243.616 278.402 242.744C277.874 241.872 276.843 239.707 276.843 239.707C276.843 239.707 277.08 231.86 277.633 230.165C278.186 228.471 283.098 222.649 283.098 222.649C283.098 222.649 288.232 223.066 290.269 222.909L291.89 227.063Z" fill="#FDD7C6"/>
<path d="M284.952 233.657C284.934 233.65 284.852 233.817 284.719 234.127C284.582 234.435 284.414 234.893 284.233 235.468C283.871 236.617 283.512 238.258 283.413 240.101C283.319 241.945 283.503 243.615 283.744 244.795C283.863 245.386 283.982 245.859 284.086 246.18C284.186 246.502 284.25 246.676 284.268 246.671C284.314 246.659 284.125 245.94 283.938 244.76C283.749 243.582 283.598 241.934 283.691 240.116C283.789 238.298 284.112 236.675 284.423 235.523C284.733 234.37 284.995 233.674 284.952 233.657Z" fill="#F7996E"/>
<path d="M281.25 233.303C281.231 233.3 281.186 233.474 281.122 233.791C281.058 234.108 280.974 234.568 280.884 235.138C280.709 236.279 280.493 237.873 280.542 239.65C280.591 241.427 280.974 243.019 281.437 244.088C281.664 244.625 281.892 245.039 282.07 245.311C282.247 245.584 282.362 245.723 282.376 245.713C282.419 245.687 282.02 245.089 281.621 244.016C281.213 242.948 280.87 241.389 280.821 239.641C280.772 237.893 280.953 236.308 281.08 235.164C281.211 234.02 281.29 233.309 281.25 233.303Z" fill="#F7996E"/>
<path d="M279.71 233.023C279.669 233.021 279.603 233.583 279.457 234.488C279.321 235.392 279.075 236.639 278.972 238.048C278.868 239.458 279.029 240.757 279.334 241.639C279.482 242.08 279.645 242.422 279.779 242.644C279.911 242.868 280.001 242.98 280.016 242.971C280.059 242.947 279.761 242.457 279.523 241.582C279.274 240.711 279.149 239.452 279.249 238.067C279.351 236.682 279.566 235.429 279.652 234.513C279.75 233.597 279.746 233.024 279.71 233.023Z" fill="#F7996E"/>
<g opacity="0.3">
<path d="M273.019 223.103C273.019 223.103 279.693 224.986 283.887 226.099C288.08 227.212 290.373 227.542 292.601 226.576C294.829 225.611 303.529 221.215 305.549 219.671C308.373 217.513 318.344 210.332 320.137 208.423C323.543 204.796 328.415 199.07 328.415 199.07L289.265 220.482L273.964 221.343L273.019 223.103Z" fill="black"/>
</g>
<path d="M335.402 183.723C335.275 183.055 334.771 181.853 334.502 181.277C330.752 173.27 317.618 177.883 312.093 182.783C307.151 187.166 288.023 208.422 288.023 208.422L263.311 212.678L266.052 221.865C266.052 221.865 271.014 223.253 277.458 223.915C285.867 224.778 287.192 224.998 291.832 223.875C296.118 222.839 310.472 212.935 318.451 207.173C326.379 201.448 337.17 193.05 335.402 183.723Z" fill="#FCB86A"/>
<path d="M335.401 183.723C335.401 183.723 335.43 183.872 335.469 184.167C335.506 184.476 335.558 184.912 335.626 185.48C335.596 186.632 335.551 188.393 334.708 190.465C333.9 192.533 332.437 194.868 330.327 197.209C328.227 199.561 325.551 201.975 322.405 204.396C319.265 206.828 315.707 209.332 311.877 212.018C308.032 214.682 303.893 217.502 299.384 220.253C298.254 220.937 297.103 221.621 295.907 222.262C294.713 222.902 293.497 223.547 292.141 223.968C290.796 224.338 289.417 224.617 287.993 224.753C286.569 224.885 285.127 224.816 283.688 224.71C282.248 224.6 280.801 224.448 279.342 224.3C277.885 224.149 276.409 224.009 274.928 223.803C271.967 223.392 268.983 222.836 266.001 222.052L265.899 222.025L265.868 221.921C265.417 220.41 264.933 218.788 264.445 217.155C264.002 215.672 263.562 214.197 263.126 212.734L263.063 212.526L263.278 212.489C271.942 211 280.269 209.569 287.992 208.242L287.887 208.3C294.071 201.46 299.861 195.148 305.135 189.587C306.453 188.196 307.743 186.856 309.01 185.577C310.284 184.307 311.493 183.05 312.823 182.004C315.504 179.955 318.365 178.632 321.046 177.791C323.729 176.953 326.302 176.655 328.497 176.969C329.592 177.126 330.585 177.443 331.417 177.891C332.251 178.337 332.91 178.91 333.412 179.49C334.415 180.672 334.787 181.83 335.075 182.561C335.211 182.935 335.298 183.225 335.347 183.422C335.394 183.619 335.401 183.723 335.401 183.723C335.394 183.724 335.373 183.623 335.315 183.43C335.256 183.237 335.161 182.951 335.015 182.582C334.71 181.86 334.318 180.716 333.318 179.569C332.34 178.42 330.643 177.411 328.471 177.144C326.309 176.852 323.767 177.161 321.112 178.006C318.46 178.854 315.625 180.184 312.989 182.217C311.688 183.248 310.482 184.509 309.216 185.781C307.956 187.063 306.672 188.406 305.359 189.799C300.106 195.373 294.33 201.698 288.157 208.544L288.115 208.591L288.053 208.602C280.331 209.936 272.006 211.373 263.342 212.869L263.495 212.623C263.931 214.085 264.372 215.56 264.815 217.043C265.302 218.676 265.786 220.298 266.237 221.809L266.104 221.678C269.055 222.455 272.036 223.013 274.979 223.424C276.451 223.628 277.921 223.769 279.38 223.921C280.838 224.071 282.284 224.224 283.716 224.335C285.147 224.442 286.567 224.511 287.959 224.383C289.347 224.252 290.724 223.977 292.042 223.616C293.331 223.219 294.553 222.578 295.737 221.945C296.925 221.312 298.074 220.632 299.201 219.952C303.704 217.217 307.848 214.409 311.697 211.759C315.533 209.087 319.099 206.595 322.242 204.184C325.391 201.783 328.068 199.392 330.171 197.068C332.283 194.753 333.752 192.45 334.572 190.41C335.428 188.366 335.496 186.627 335.55 185.481C335.498 184.915 335.458 184.479 335.43 184.171C335.406 183.876 335.401 183.723 335.401 183.723Z" fill="#263238"/>
<path d="M334.951 167.052C334.948 167.043 334.86 167.073 334.698 167.138C334.507 167.218 334.275 167.316 333.993 167.434C333.344 167.709 332.471 168.08 331.41 168.53C329.222 169.439 326.179 170.647 322.756 171.804C319.987 172.743 317.398 173.511 315.325 174.085L315.449 174.136C314.612 172.761 314.169 171.501 313.917 170.618C313.791 170.175 313.712 169.823 313.657 169.584C313.605 169.344 313.575 169.218 313.563 169.219C313.552 169.22 313.561 169.351 313.592 169.595C313.626 169.839 313.686 170.197 313.794 170.65C314.011 171.55 314.428 172.84 315.258 174.251L315.3 174.322L315.383 174.301C317.468 173.759 320.07 173.009 322.846 172.068C326.277 170.908 329.317 169.668 331.488 168.711C332.572 168.23 333.442 167.824 334.039 167.532C334.311 167.395 334.537 167.282 334.721 167.189C334.876 167.107 334.955 167.06 334.951 167.052Z" fill="#263238"/>
<path d="M330.469 269.851H334.068C335.963 269.851 337.562 268.434 337.789 266.555C338.499 260.68 339.911 244.326 339.925 244.162L337.357 243.94C337.343 244.104 335.936 260.415 335.231 266.245C335.16 266.831 334.66 267.273 334.068 267.273H330.469V269.851Z" fill="#E0E0E0"/>
<path d="M330.468 269.851C330.472 269.848 330.476 269.787 330.48 269.673C330.484 269.543 330.488 269.379 330.494 269.173C330.502 268.72 330.514 268.086 330.528 267.274L330.469 267.334C331.051 267.339 331.72 267.346 332.472 267.352C332.85 267.355 333.249 267.358 333.668 267.361C333.877 267.355 334.089 267.383 334.329 267.337C334.56 267.29 334.786 267.176 334.962 267C335.14 266.827 335.268 266.594 335.316 266.339C335.352 266.089 335.368 265.855 335.395 265.606C335.445 265.111 335.496 264.599 335.55 264.069C335.655 263.008 335.767 261.879 335.885 260.69C336.348 255.919 336.905 250.177 337.509 243.955L337.344 244.093C337.948 244.145 338.595 244.202 339.247 244.258C339.474 244.277 339.701 244.297 339.911 244.315L339.771 244.15C338.96 252.842 338.23 260.679 337.699 266.369C337.6 267.778 336.71 268.872 335.73 269.366C334.734 269.905 333.723 269.758 332.95 269.794C332.174 269.808 331.563 269.819 331.124 269.827C330.926 269.832 330.767 269.836 330.64 269.839C330.531 269.844 330.472 269.848 330.468 269.851C330.465 269.855 330.516 269.859 330.62 269.862C330.742 269.866 330.896 269.87 331.087 269.875C331.529 269.883 332.142 269.894 332.921 269.908C333.324 269.909 333.769 269.928 334.262 269.914C334.753 269.892 335.291 269.778 335.807 269.516C336.838 269.019 337.795 267.865 337.912 266.394C338.466 260.703 339.23 252.867 340.077 244.175L340.092 244.023L339.938 244.01C339.728 243.992 339.501 243.972 339.274 243.952C338.622 243.896 337.975 243.84 337.37 243.788L337.219 243.776L337.205 243.928C336.622 250.15 336.085 255.891 335.638 260.662C335.529 261.852 335.426 262.981 335.329 264.043C335.281 264.573 335.235 265.086 335.19 265.581C335.165 265.825 335.15 266.078 335.12 266.302C335.082 266.518 334.976 266.716 334.827 266.864C334.679 267.015 334.488 267.115 334.291 267.159C334.099 267.2 333.876 267.179 333.668 267.187C333.249 267.19 332.85 267.193 332.472 267.196C331.72 267.203 331.05 267.209 330.469 267.214L330.408 267.215L330.409 267.274C330.424 268.1 330.435 268.746 330.443 269.207C330.449 269.408 330.453 269.568 330.457 269.695C330.461 269.802 330.465 269.854 330.468 269.851Z" fill="#263238"/>
<path d="M273.098 272.998H330.599C332.741 272.998 334.477 271.559 334.477 269.785C334.477 268.01 332.741 266.571 330.599 266.571H273.098C270.956 266.571 269.22 268.01 269.22 269.785C269.22 271.559 270.956 272.998 273.098 272.998Z" fill="#455B64"/>
<path d="M342.899 246.087L350.745 184.534C351.016 182.409 349.513 180.467 347.388 180.196C345.263 179.925 343.321 181.429 343.05 183.553L335.204 245.106C334.934 247.231 336.436 249.172 338.561 249.443C340.686 249.714 342.628 248.211 342.899 246.087Z" fill="#455B64"/>
<path d="M273.479 270.597L264.909 333.492L268.318 333.49L281.112 272.998L273.479 270.597Z" fill="#455B64"/>
<path d="M329.93 270.597L338.262 333.492L334.853 333.49L322.296 272.998L329.93 270.597Z" fill="#455B64"/>
<path d="M273.098 272.998C273.098 273.083 286.151 273.151 302.249 273.151C318.352 273.151 331.403 273.083 331.403 272.998C331.403 272.913 318.352 272.845 302.249 272.845C286.151 272.845 273.098 272.913 273.098 272.998Z" fill="#263238"/>
</svg>
