<svg width="460" height="302" viewBox="0 0 460 302" fill="none" xmlns="http://www.w3.org/2000/svg">
<path d="M127.847 167.346C121.639 170.562 116.878 176.099 113.455 182.196C110.032 188.293 107.825 194.983 105.64 201.625L103.728 235.88C110.952 223.59 116.75 209.142 118.317 194.973C116.714 194.83 115.112 194.687 113.509 194.544C116.733 194.052 119.438 191.717 121.16 188.948C122.881 186.179 123.768 182.985 124.633 179.841C122.678 180.132 120.722 180.422 118.767 180.713C123.359 177.646 126.69 172.745 127.847 167.346Z" fill="#5274B8"/>
<path d="M102.657 243.905C102.657 243.905 86.9771 225.136 87.1581 207.22H93.4921C93.4921 207.22 86.6117 202.696 87.1567 200.162C87.7011 197.629 87.8821 188.037 87.8821 188.037L93.6731 189.485C93.6731 189.485 89.3295 187.314 88.7865 183.875C88.2435 180.437 90.0536 164.511 90.0536 164.511C90.0536 164.511 97.1116 171.931 99.2831 179.533C101.455 187.134 107.155 196.001 105.482 219.166C103.808 242.329 102.657 243.905 102.657 243.905Z" fill="#5274B8"/>
<path d="M110.608 245.676C110.608 245.676 127.596 234.359 131.37 219.915L126.278 218.529C126.278 218.529 132.799 216.397 132.916 214.241C133.033 212.085 134.986 204.334 134.986 204.334L130.013 204.232C130.013 204.232 133.98 203.436 135.169 200.79C136.358 198.145 138.387 184.945 138.387 184.945C138.387 184.945 131.089 189.366 127.68 195.002C124.271 200.638 117.748 206.52 114.025 225.51C110.303 244.499 110.608 245.676 110.608 245.676Z" fill="#5274B8"/>
<path d="M94.3378 180.874C94.3438 180.873 94.3638 180.939 94.3972 181.068C94.4333 181.217 94.4787 181.407 94.5362 181.645C94.6564 182.178 94.8247 182.923 95.0385 183.872C95.2575 184.838 95.512 186.024 95.7872 187.404C96.0677 188.784 96.3944 190.353 96.7136 192.097C97.3876 195.576 98.0983 199.736 98.829 204.365C99.5377 208.997 100.244 214.1 100.872 219.472C101.487 224.847 101.963 229.978 102.33 234.65C102.674 239.324 102.931 243.537 103.069 247.078C103.156 248.848 103.196 250.451 103.238 251.858C103.285 253.265 103.307 254.477 103.315 255.468C103.323 256.44 103.329 257.204 103.334 257.75C103.332 257.995 103.331 258.19 103.33 258.344C103.327 258.477 103.322 258.546 103.316 258.546C103.31 258.546 103.303 258.478 103.294 258.344C103.286 258.191 103.276 257.996 103.263 257.752C103.243 257.206 103.215 256.443 103.179 255.472C103.151 254.482 103.108 253.271 103.044 251.865C102.984 250.46 102.926 248.859 102.824 247.091C102.655 243.553 102.372 239.345 102.01 234.676C101.626 230.009 101.14 224.883 100.526 219.513C99.899 214.146 99.2024 209.045 98.5124 204.414C97.7997 199.786 97.1144 195.625 96.4718 192.142C96.1686 190.397 95.8587 188.826 95.5968 187.443C95.3397 186.06 95.1046 184.871 94.9062 183.9C94.7192 182.947 94.5729 182.197 94.468 181.661C94.4246 181.42 94.3899 181.228 94.3625 181.077C94.3405 180.943 94.3318 180.875 94.3378 180.874Z" fill="#5274B8"/>
<path d="M100.482 255.397C100.482 255.397 86.1327 239.116 81.6769 229.274L85.0406 227.836C82.6027 228.238 80.1046 227.191 78.2143 225.599C76.3241 224.008 74.9354 221.915 73.5742 219.853L78.0053 219.104C73.9763 217.974 70.4262 215.224 68.3242 211.606C73.5528 212.465 78.2831 215.337 82.1812 218.927C85.3378 221.834 88.0109 225.208 90.5778 228.656C91.8302 230.338 92.9256 232.13 93.8387 234.017C96.2499 239.003 100.49 249.419 100.482 255.397Z" fill="#5274B8"/>
<path d="M131.594 194.421C131.599 194.424 131.578 194.48 131.53 194.588C131.473 194.713 131.401 194.869 131.312 195.062C131.102 195.5 130.811 196.104 130.443 196.871C129.677 198.435 128.59 200.71 127.273 203.533C124.637 209.176 121.163 217.053 117.732 225.915C114.307 234.783 111.579 242.948 109.732 248.897C108.807 251.871 108.081 254.285 107.596 255.958C107.353 256.773 107.162 257.415 107.023 257.88C106.958 258.082 106.906 258.246 106.865 258.378C106.828 258.489 106.805 258.546 106.799 258.544C106.793 258.543 106.804 258.483 106.83 258.368C106.863 258.235 106.904 258.068 106.954 257.861C107.078 257.392 107.249 256.743 107.465 255.921C107.911 254.236 108.602 251.81 109.497 248.825C111.284 242.853 113.978 234.667 117.406 225.789C120.841 216.918 124.355 209.048 127.049 203.428C128.395 200.617 129.516 198.357 130.32 196.811C130.713 196.057 131.023 195.462 131.248 195.031C131.349 194.844 131.431 194.693 131.497 194.572C131.556 194.47 131.589 194.418 131.594 194.421Z" fill="#5274B8"/>
<path d="M101.699 262.374C101.675 262.377 101.598 261.963 101.48 261.212C101.367 260.461 101.178 259.378 100.912 258.047C100.387 255.386 99.4617 251.744 98.0036 247.87C96.5368 243.997 94.8235 240.653 93.4596 238.309C92.779 237.135 92.2059 236.197 91.7938 235.559C91.387 234.918 91.1713 234.556 91.1907 234.543C91.21 234.53 91.4638 234.865 91.9067 235.485C92.3542 236.1 92.9613 237.022 93.6714 238.184C95.0947 240.506 96.8541 243.853 98.3289 247.748C99.7957 251.645 100.688 255.319 101.154 258.002C101.389 259.344 101.542 260.436 101.613 261.194C101.692 261.952 101.723 262.372 101.699 262.374Z" fill="#5274B8"/>
<path d="M120.635 258.545H89.2295V264.951H120.635V258.545Z" fill="#6F453A"/>
<path d="M92.2217 264.951L95.6188 286.499H114.595L117.762 264.951H92.2217Z" fill="#6F453A"/>
<path d="M118.708 264.951C118.708 265.047 112.767 265.124 105.44 265.124C98.1108 265.124 92.1709 265.046 92.1709 264.951C92.1709 264.855 98.1108 264.777 105.44 264.777C112.767 264.777 118.708 264.855 118.708 264.951Z" fill="#E0E0E0"/>
<path d="M153.161 280.838C152.272 280.076 150.289 277.661 151.819 274.852C152.379 273.822 153.57 273.313 154.647 272.858C155.725 272.405 156.857 272.01 157.749 271.252C159.431 269.821 159.895 267.444 161.011 265.536C162.293 263.345 164.685 261.703 167.212 261.818C170.106 261.95 172.519 264.314 173.613 267.009C174.707 269.704 174.745 272.696 174.768 275.606C174.781 277.215 174.709 279.03 173.528 280.116C172.438 281.118 170.799 281.131 169.322 281.085C164.05 280.924 158.778 280.761 153.506 280.6" fill="#FCB86A"/>
<path d="M183.415 237.349H141.823L149.315 282.023C149.643 283.974 151.055 285.478 152.866 286C152.914 286.016 152.964 286.026 153.012 286.04C153.135 286.072 153.255 286.114 153.382 286.136C153.656 286.193 153.94 286.221 154.227 286.233C154.229 286.247 154.232 286.262 154.234 286.276L154.437 286.244H154.439H172.975C173.324 286.244 173.664 286.208 173.994 286.142C176.182 285.804 177.935 284.047 178.201 281.776L181.812 250.995L181.975 249.771H181.956L183.386 237.581L183.415 237.349ZM175.568 265.845H171.3L171.731 252.88H176.676L175.568 265.845ZM177.09 252.88H181.177L179.655 265.845H175.982L177.09 252.88ZM164.896 280.218L164.637 268.955H170.784L170.409 280.218H164.896ZM158.251 268.955H164.224L164.483 280.218H159.126L158.251 268.955ZM158.713 280.218H153.705C153.23 277.177 152.61 273.225 151.94 268.955H157.837L158.713 280.218ZM158.009 265.845L157.001 252.88H163.853L164.152 265.845H158.009ZM164.565 265.845L164.267 252.88H171.317L170.886 265.845H164.565ZM164.195 249.771L163.919 237.763H171.82L171.421 249.771H164.195ZM163.782 249.771H156.76L155.827 237.763H163.505L163.782 249.771ZM156.346 249.771H148.917C148.654 248.112 148.405 246.543 148.18 245.131C147.405 240.276 147.113 238.451 146.952 237.764H155.414L156.346 249.771ZM156.588 252.88L157.596 265.845H151.452C151.245 264.529 151.036 263.199 150.827 261.867C150.345 258.807 149.863 255.747 149.41 252.88H156.588ZM151.034 265.845H147.02L144.846 252.88H148.991C149.625 256.887 150.327 261.346 151.034 265.845ZM151.522 268.955C152.134 272.852 152.736 276.695 153.288 280.218H149.432L147.543 268.955H151.522ZM170.822 280.218L171.196 268.955H175.302L174.34 280.218H170.822ZM171.834 249.771L172.233 237.763H177.968L176.942 249.771H171.834ZM146.558 237.763C146.723 238.632 147.482 243.356 148.499 249.771H144.325L142.311 237.763H146.558ZM177.969 280.218H174.755L175.718 268.955H179.291L177.969 280.218ZM181.541 249.771H177.356L178.382 237.763H182.951L181.541 249.771Z" fill="#5274B8"/>
<path d="M447.412 0H443.408V86.0947H447.412V0Z" fill="#3E629B"/>
<path d="M385.323 0.723959V86.1574C385.323 86.1895 385.349 86.2156 385.381 86.2156H442.743C442.775 86.2156 442.801 86.1895 442.801 86.1574V0.723959C442.801 0.691898 442.775 0.666516 442.743 0.666516H385.381C385.349 0.665849 385.323 0.691898 385.323 0.723959Z" fill="#5274B8"/>
<path d="M443.413 86.8809H384.719C384.687 86.8809 384.661 86.8549 384.661 86.8228V0.0581102C384.661 0.0260494 384.687 0 384.719 0H443.413C443.445 0 443.471 0.0260494 443.471 0.0581102V86.8228C443.471 86.8549 443.445 86.8809 443.413 86.8809ZM386.05 85.549H442.081C442.113 85.549 442.138 85.523 442.138 85.4909V1.38997C442.138 1.35791 442.112 1.33186 442.081 1.33186H386.05C386.018 1.33186 385.993 1.35791 385.993 1.38997V85.4916C385.993 85.523 386.018 85.549 386.05 85.549Z" fill="#5274B8"/>
<path d="M391.11 6.00129V80.8226C391.11 80.8547 391.136 80.8807 391.168 80.8807H437.057C437.089 80.8807 437.115 80.8547 437.115 80.8226V6.00129C437.115 5.96923 437.089 5.94385 437.057 5.94385H391.168C391.136 5.94385 391.11 5.96923 391.11 6.00129Z" fill="white"/>
<path d="M426.934 57.4642H401.188C401.164 57.4642 401.146 57.4449 401.146 57.4215V27.2309C401.146 27.2068 401.165 27.1881 401.188 27.1881H426.933C426.957 27.1881 426.976 27.2075 426.976 27.2309V57.4208C426.977 57.4449 426.957 57.4642 426.934 57.4642Z" fill="#5274B8"/>
<path d="M424.934 53.7588C424.968 53.8563 423.693 54.4147 421.267 54.1302C420.073 53.9679 418.586 53.5384 417.144 52.4824C415.734 51.4257 414.394 49.7218 413.941 47.4441C413.47 45.1845 414.225 42.3672 416.391 40.5571C416.929 40.1082 417.554 39.7288 418.248 39.4683C418.986 39.1945 419.782 39.1043 420.572 39.2005C421.358 39.2967 422.191 39.5699 422.895 40.2151C423.607 40.861 423.997 41.9511 423.812 42.9216C423.643 43.9014 423.11 44.6515 422.536 45.2446C421.944 45.8491 421.273 46.2953 420.59 46.678C419.201 47.4455 417.613 47.9264 415.948 48.0039C414.291 48.0834 412.539 47.7434 411.001 46.8777C409.477 46.0221 408.175 44.725 407.36 43.1039C406.534 41.5015 406.271 39.5572 406.706 37.8185C407.125 36.0859 408.11 34.537 409.492 33.4636C410.186 32.9259 410.971 32.5292 411.828 32.2847C412.69 32.0636 413.58 32.0222 414.457 32.2025C415.324 32.3849 416.211 32.8117 416.843 33.5491C417.484 34.2798 417.77 35.2336 417.778 36.0993C417.792 36.9696 417.554 37.8185 417.156 38.5286C416.764 39.2406 416.237 39.8183 415.683 40.2992C414.565 41.245 413.311 41.8682 412.023 42.2436C410.737 42.6136 409.417 42.7112 408.173 42.5408C406.934 42.3658 405.766 41.9096 404.823 41.2571C402.919 39.9653 401.819 38.0022 401.623 36.1881C401.407 34.3413 402.083 32.8264 402.808 31.8425C403.554 30.8393 404.412 30.3257 405.001 30.0905C405.604 29.8621 405.948 29.8701 405.964 29.9276C405.989 30.0097 405.691 30.1426 405.201 30.4693C404.722 30.8019 404.044 31.363 403.496 32.3021C402.959 33.2232 402.517 34.559 402.798 36.0144C403.053 37.4639 404.044 39.0222 405.643 39.9987C407.208 40.9932 409.404 41.2491 411.512 40.5577C412.557 40.2211 413.598 39.6574 414.449 38.8959C415.294 38.1385 415.869 37.1633 415.821 36.144C415.794 35.1214 415.15 34.4007 414.053 34.191C413.519 34.0868 412.92 34.1202 412.365 34.2705C411.814 34.4388 411.253 34.72 410.771 35.1054C409.796 35.8722 409.059 37.0357 408.762 38.3075C408.456 39.5779 408.638 40.9244 409.255 42.1461C409.862 43.3644 410.873 44.3783 412.034 45.0349C413.189 45.6935 414.535 45.974 415.858 45.9246C417.183 45.8772 418.483 45.5031 419.618 44.8966C420.192 44.5867 420.72 44.2374 421.119 43.8386C421.528 43.4392 421.812 42.983 421.881 42.5976C421.955 42.2075 421.836 41.8689 421.573 41.5991C421.296 41.3245 420.825 41.1175 420.329 41.0513C419.83 40.9752 419.314 41.0226 418.865 41.1756C418.371 41.3446 417.91 41.6031 417.5 41.923C416.681 42.5656 416.066 43.4452 415.721 44.3743C415.37 45.3061 415.288 46.2706 415.422 47.1897C415.695 49.0365 416.735 50.5654 417.883 51.5499C419.053 52.5398 420.346 53.0494 421.421 53.316C423.605 53.8263 424.917 53.5744 424.934 53.7588Z" fill="#FCB86A"/>
<path d="M54.4879 8.0874H2.60742V83.2855H54.4879V8.0874Z" fill="#3E629B"/>
<path d="M51.8912 8.08716H0.0107422V83.2852H51.8912V8.08716Z" fill="#5274B8"/>
<path d="M45.4457 16.2323H6.45703V75.1414H45.4457V16.2323Z" fill="white"/>
<path d="M45.4486 75.1411C45.4486 75.1411 45.4433 75.0416 45.4406 74.8533C45.4386 74.6589 45.4366 74.381 45.4333 74.0177C45.4299 73.2776 45.4246 72.1936 45.4179 70.7869C45.4099 67.9635 45.3979 63.8491 45.3832 58.6519C45.3678 48.2641 45.3458 33.5542 45.3197 16.232L45.4493 16.3616C33.5374 16.3649 20.3383 16.3689 6.46531 16.3736H6.46063L6.60156 16.2327C6.59088 38.4555 6.58086 58.9457 6.57284 75.1418L6.46063 75.0296C18.3345 75.0543 28.067 75.0744 34.8392 75.089C38.2269 75.1017 40.8726 75.1111 42.6794 75.1178C43.5777 75.1231 44.2657 75.1271 44.7373 75.1305C45.2028 75.1331 45.4486 75.1411 45.4486 75.1411C45.4486 75.1411 45.2189 75.1492 44.7607 75.1532C44.2938 75.1558 43.6125 75.1605 42.7235 75.1659C40.922 75.1725 38.285 75.1819 34.908 75.1946C28.1184 75.2086 18.3619 75.2286 6.4593 75.254H6.34708V75.1411C6.33907 58.9451 6.32905 38.4548 6.31836 16.232V16.0911H6.4593H6.46397C20.337 16.0951 33.536 16.0991 45.448 16.1024H45.5775V16.232C45.5515 33.5889 45.5295 48.3283 45.5141 58.7367C45.4994 63.9212 45.4874 68.0256 45.4794 70.8423C45.4727 72.2383 45.4673 73.313 45.464 74.0477C45.4607 74.4044 45.458 74.6776 45.4566 74.8686C45.454 75.0516 45.4486 75.1411 45.4486 75.1411Z" fill="#E0E0E0"/>
<path d="M52.0335 8.0873C52.0635 8.11068 51.7115 8.62499 51.1091 9.43119C50.5066 10.2367 49.651 11.3335 48.6751 12.5184C47.6986 13.704 46.7862 14.7533 46.1109 15.4994C45.4356 16.2455 44.9981 16.6896 44.9694 16.6643C44.9394 16.6382 45.3234 16.1479 45.9593 15.3691C46.6546 14.5255 47.5109 13.4869 48.4574 12.3387C49.4025 11.1899 50.2575 10.1512 50.9528 9.30695C51.5947 8.53415 52.0028 8.06326 52.0335 8.0873Z" fill="#E0E0E0"/>
<path d="M45.6426 74.9518C47.5789 78.031 49.8653 80.8904 52.4428 83.4566Z" fill="white"/>
<path d="M52.4421 83.4566C52.4167 83.4826 51.9538 83.0812 51.2565 82.3778C50.5592 81.6758 49.6354 80.6646 48.6917 79.485C47.7479 78.3041 46.965 77.18 46.4334 76.3457C45.901 75.5108 45.6111 74.9711 45.6419 74.9517C45.6773 74.9297 46.0259 75.4313 46.5983 76.2335C47.1701 77.0364 47.9736 78.1345 48.9121 79.3087C49.8505 80.4816 50.7449 81.5069 51.4021 82.2416C52.0587 82.9756 52.4708 83.4272 52.4421 83.4566Z" fill="#E0E0E0"/>
<path d="M0.00390625 83.2261C2.26887 80.4315 4.53451 77.6369 6.79947 74.8416Z" fill="white"/>
<path d="M6.79738 74.8422C6.85816 74.8909 5.38537 76.8079 3.50914 79.123C1.63224 81.4387 0.0619306 83.2755 0.00181646 83.2261C-0.0589656 83.1773 1.41316 81.2603 3.29006 78.9446C5.16695 76.6302 6.73727 74.7927 6.79738 74.8422Z" fill="#E0E0E0"/>
<path d="M0.00588419 8.08739C0.0666662 8.03929 1.54414 9.80464 3.30414 12.0302C5.06482 14.2564 6.44277 16.0999 6.38132 16.1487C6.32054 16.1968 4.84373 14.4321 3.08306 12.2052C1.32238 9.97964 -0.0555658 8.13614 0.00588419 8.08739Z" fill="#E0E0E0"/>
<path d="M33.297 28.1929H20.2422V65.2599H33.297V28.1929Z" fill="#FCB86A"/>
<path d="M451.339 286.179C451.339 286.275 352.149 286.352 229.82 286.352C107.448 286.352 8.2793 286.274 8.2793 286.179C8.2793 286.082 107.448 286.005 229.82 286.005C352.149 286.005 451.339 286.083 451.339 286.179Z" fill="#263238"/>
<path d="M299.804 164.18H97.707C95.2263 164.18 93.2158 162.169 93.2158 159.689V5.82108C93.2158 3.34037 95.227 1.32922 97.707 1.32922H299.804C302.285 1.32922 304.296 3.34037 304.296 5.82108V159.688C304.296 162.169 302.285 164.18 299.804 164.18Z" fill="#3B55A5"/>
<path opacity="0.9" d="M299.804 164.18H97.707C95.2263 164.18 93.2158 162.169 93.2158 159.689V5.82108C93.2158 3.34037 95.227 1.32922 97.707 1.32922H299.804C302.285 1.32922 304.296 3.34037 304.296 5.82108V159.688C304.296 162.169 302.285 164.18 299.804 164.18Z" fill="white"/>
<path d="M284.474 56.0199H241.082C239.966 56.0199 239.062 55.1155 239.062 53.9994V35.8423C239.062 34.7262 239.966 33.8218 241.082 33.8218H284.474C285.59 33.8218 286.494 34.7262 286.494 35.8423V53.9994C286.494 55.1155 285.589 56.0199 284.474 56.0199Z" fill="white"/>
<path d="M277.068 38.729H249.057V40.5097H277.068V38.729Z" fill="#5274B8"/>
<path d="M280.559 44.3571H244.282V46.1378H280.559V44.3571Z" fill="#FCB86A"/>
<path d="M262.212 49.0942H244.282V50.875H262.212V49.0942Z" fill="#FCB86A"/>
<path d="M246.729 39.6201C246.729 40.2961 246.181 40.8438 245.505 40.8438C244.829 40.8438 244.281 40.2961 244.281 39.6201C244.281 38.9442 244.829 38.3965 245.505 38.3965C246.181 38.3965 246.729 38.9442 246.729 39.6201Z" fill="#5274B8"/>
<path d="M304.298 10.8027H93.1719V4.11402C93.1719 2.32129 94.6246 0.86853 96.4174 0.86853H301.706C303.138 0.86853 304.298 2.02873 304.298 3.46012V10.8027Z" fill="#5274B8"/>
<path d="M299.261 5.83601C299.261 7.00156 298.316 7.94669 297.151 7.94669C295.985 7.94669 295.04 7.00156 295.04 5.83601C295.04 4.67047 295.985 3.72534 297.151 3.72534C298.316 3.72467 299.261 4.6698 299.261 5.83601Z" fill="white"/>
<path d="M293.263 5.83601C293.263 7.00156 292.318 7.94669 291.153 7.94669C289.987 7.94669 289.042 7.00156 289.042 5.83601C289.042 4.67047 289.987 3.72534 291.153 3.72534C292.318 3.72534 293.263 4.6698 293.263 5.83601Z" fill="white"/>
<path d="M287.262 5.83601C287.262 7.00156 286.317 7.94669 285.152 7.94669C283.986 7.94669 283.041 7.00156 283.041 5.83601C283.041 4.67047 283.986 3.72534 285.152 3.72534C286.318 3.72467 287.262 4.6698 287.262 5.83601Z" fill="white"/>
<path d="M162.254 23.2096H103.249V157.676H162.254V23.2096Z" stroke="#5274B8" stroke-miterlimit="10"/>
<path d="M226.877 23.2096H167.872V157.676H226.877V23.2096Z" stroke="#5274B8" stroke-miterlimit="10"/>
<path d="M291.501 23.2096H232.496V157.676H291.501V23.2096Z" stroke="#5274B8" stroke-miterlimit="10"/>
<path d="M154.086 54.5772H110.695C109.579 54.5772 108.675 53.6728 108.675 52.5567V34.3995C108.675 33.2834 109.579 32.379 110.695 32.379H154.086C155.202 32.379 156.107 33.2834 156.107 34.3995V52.5567C156.107 53.6728 155.202 54.5772 154.086 54.5772Z" fill="white"/>
<path d="M146.68 37.2864H118.668V39.0671H146.68V37.2864Z" fill="#5274B8"/>
<path d="M150.17 42.9136H113.894V44.6943H150.17V42.9136Z" fill="#FCB86A"/>
<path d="M131.823 47.6506H113.894V49.4313H131.823V47.6506Z" fill="#FCB86A"/>
<path d="M116.341 38.1767C116.341 38.8526 115.793 39.4003 115.117 39.4003C114.441 39.4003 113.894 38.8526 113.894 38.1767C113.894 37.5007 114.441 36.953 115.117 36.953C115.793 36.9537 116.341 37.5014 116.341 38.1767Z" fill="#5274B8"/>
<path d="M154.086 138.319H110.695C109.579 138.319 108.675 137.414 108.675 136.298V118.141C108.675 117.025 109.579 116.121 110.695 116.121H154.086C155.202 116.121 156.107 117.025 156.107 118.141V136.298C156.107 137.414 155.202 138.319 154.086 138.319Z" fill="white"/>
<path d="M146.68 121.028H118.668V122.809H146.68V121.028Z" fill="#5274B8"/>
<path d="M150.17 126.656H113.894V128.436H150.17V126.656Z" fill="#FCB86A"/>
<path d="M131.823 131.392H113.894V133.173H131.823V131.392Z" fill="#FCB86A"/>
<path d="M116.341 121.919C116.341 122.595 115.793 123.143 115.117 123.143C114.441 123.143 113.894 122.595 113.894 121.919C113.894 121.243 114.441 120.695 115.117 120.695C115.793 120.695 116.341 121.243 116.341 121.919Z" fill="#5274B8"/>
<path d="M219.069 102.547H175.678C174.562 102.547 173.657 101.642 173.657 100.526V73.6506C173.657 72.5345 174.562 71.6301 175.678 71.6301H219.069C220.186 71.6301 221.09 72.5345 221.09 73.6506V100.526C221.09 101.642 220.185 102.547 219.069 102.547Z" fill="white"/>
<path d="M211.663 76.5381H183.651V78.3188H211.663V76.5381Z" fill="#5274B8"/>
<path d="M181.323 77.4285C181.323 78.1044 180.776 78.6521 180.1 78.6521C179.424 78.6521 178.876 78.1044 178.876 77.4285C178.876 76.7525 179.424 76.2048 180.1 76.2048C180.776 76.2048 181.323 76.7525 181.323 77.4285Z" fill="#5274B8"/>
<path d="M219.069 66.2208H175.678C174.562 66.2208 173.657 65.3164 173.657 64.2003V37.3246C173.657 36.2085 174.562 35.3041 175.678 35.3041H219.069C220.186 35.3041 221.09 36.2085 221.09 37.3246V64.2003C221.09 65.3164 220.185 66.2208 219.069 66.2208Z" fill="white"/>
<path d="M211.663 40.2114H183.651V41.9921H211.663V40.2114Z" fill="#5274B8"/>
<path d="M181.323 41.1024C181.323 41.7784 180.776 42.3261 180.1 42.3261C179.424 42.3261 178.876 41.7784 178.876 41.1024C178.876 40.4265 179.424 39.8788 180.1 39.8788C180.776 39.8788 181.323 40.4265 181.323 41.1024Z" fill="#5274B8"/>
<path d="M195.766 46.1378H180.224V61.68H195.766V46.1378Z" fill="#5274B8"/>
<path opacity="0.4" d="M195.766 46.1378H180.224V61.68H195.766V46.1378Z" fill="white"/>
<path d="M194.876 47.0283H181.115V60.7891H194.876V47.0283Z" fill="#5274B8"/>
<path d="M194.876 47.0283H181.115V60.7891H194.876V47.0283Z" fill="white"/>
<path d="M181.115 60.7891L185.789 54.5726L188.883 56.69L192.614 52.5621L194.876 54.6755V60.7891H181.115Z" fill="#5274B8"/>
<path d="M189.701 50.3379C189.701 51.2797 188.937 52.0432 187.995 52.0432C187.053 52.0432 186.29 51.2797 186.29 50.3379C186.29 49.3961 187.053 48.6327 187.995 48.6327C188.937 48.6327 189.701 49.3961 189.701 50.3379Z" fill="#FCB86A"/>
<path d="M217.003 52.1279H199.073V53.9086H217.003V52.1279Z" fill="#FCB86A"/>
<path d="M206.896 56.9604H199.073V58.7412H206.896V56.9604Z" fill="#FCB86A"/>
<path d="M217.003 47.2954H199.073V49.0761H217.003V47.2954Z" fill="#FCB86A"/>
<path d="M195.766 89.832L198.797 81.5055C199.926 81.9163 200.959 82.5528 201.835 83.3757C202.711 84.1986 203.409 85.1912 203.89 86.2926L195.766 89.832Z" fill="#5274B8"/>
<path d="M195.766 89.832L198.797 81.5055C199.926 81.9163 200.959 82.5528 201.835 83.3757C202.711 84.1986 203.409 85.1912 203.89 86.2926L195.766 89.832Z" fill="black"/>
<path d="M195.766 89.832L198.348 98.3081C197.511 98.5633 196.641 98.6928 195.766 98.6928C190.906 98.6928 186.905 94.6932 186.905 89.832C186.905 84.9715 190.905 80.9712 195.766 80.9712C196.785 80.9712 197.797 81.1469 198.757 81.4915L195.766 89.832Z" fill="#5274B8"/>
<path d="M195.766 89.8319L203.906 86.3313C204.381 87.4374 204.626 88.6283 204.626 89.8319C204.626 93.7073 202.084 97.1538 198.382 98.298L195.766 89.8319Z" fill="#5274B8"/>
<path d="M195.766 89.8319L203.906 86.3313C204.381 87.4374 204.626 88.6283 204.626 89.8319C204.626 93.7073 202.084 97.1538 198.382 98.298L195.766 89.8319Z" fill="#FCB86A"/>
<path d="M253.186 63.1608H240.82V75.5262H253.186V63.1608Z" fill="#5274B8"/>
<path d="M188.675 109.346H176.31V121.712H188.675V109.346Z" fill="#5274B8"/>
<path d="M203.648 109.346H191.282V121.712H203.648V109.346Z" fill="#FCB86A"/>
<path d="M219.24 109.346H206.875V121.712H219.24V109.346Z" fill="black"/>
<path d="M188.745 125.297H176.38V137.662H188.745V125.297Z" fill="white"/>
<path d="M269.244 63.1608H256.879V75.5262H269.244V63.1608Z" fill="#FCB86A"/>
<path d="M370.045 226.069H362.584V265.98H370.045V226.069Z" fill="#E0E0E0"/>
<path d="M339.621 219.642C339.743 219.642 362.585 226.81 362.585 226.81H370.046L396.233 219.642H339.621Z" fill="#E0E0E0"/>
<path d="M334.625 280.14C334.625 280.14 338.077 269.598 342.837 267.049C350.486 262.952 368.113 260.991 368.113 260.991L370.046 265.979C370.046 265.979 346.536 266.904 342.837 271.648C339.421 276.028 336.934 280.139 336.934 280.139H334.625V280.14Z" fill="#E0E0E0"/>
<path d="M341.072 284.878C343.021 282.928 343.022 279.767 341.072 277.817C339.122 275.868 335.961 275.868 334.011 277.817C332.061 279.767 332.061 282.928 334.011 284.878C335.961 286.828 339.122 286.828 341.072 284.878Z" fill="#263238"/>
<path d="M398.347 279.935C398.347 279.935 394.895 269.393 390.135 266.844C382.486 262.747 364.859 260.786 364.859 260.786L362.927 265.774C362.927 265.774 386.437 266.699 390.136 271.443C393.552 275.824 396.038 279.934 396.038 279.934H398.347V279.935Z" fill="#E0E0E0"/>
<path d="M391.597 281.267C391.597 284.024 393.832 286.26 396.589 286.26C399.347 286.26 401.582 284.024 401.582 281.267C401.582 278.51 399.347 276.274 396.589 276.274C393.832 276.275 391.597 278.51 391.597 281.267Z" fill="#263238"/>
<path d="M363.743 263.668L364.837 277.23L367.92 277.839V263.668" fill="#E0E0E0"/>
<path d="M370.82 283.529C372.011 281.042 370.96 278.06 368.473 276.869C365.986 275.679 363.005 276.729 361.814 279.216C360.623 281.703 361.673 284.685 364.16 285.876C366.647 287.066 369.629 286.016 370.82 283.529Z" fill="#263238"/>
<path d="M369.871 226.968C369.871 227.055 368.279 227.126 366.315 227.126C364.351 227.126 362.759 227.055 362.759 226.968C362.759 226.881 364.351 226.81 366.315 226.81C368.279 226.81 369.871 226.88 369.871 226.968Z" fill="#263238"/>
<path d="M370.011 261.839C370.063 261.895 368.547 262.784 366.441 262.828C364.336 262.894 362.776 262.085 362.824 262.026C362.854 261.929 364.41 262.579 366.433 262.512C368.457 262.474 369.977 261.744 370.011 261.839Z" fill="#263238"/>
<path d="M359.685 111.018H395.279C403.772 111.018 410.657 117.903 410.657 126.396V204.149C410.657 208.395 407.215 211.837 402.969 211.837H351.995C347.749 211.837 344.307 208.395 344.307 204.149V126.396C344.307 117.903 351.192 111.018 359.685 111.018Z" fill="#455B64"/>
<path d="M335.572 219.642H406.627C408.853 219.642 410.659 217.837 410.659 215.61V214.119C410.659 211.892 408.853 210.086 406.627 210.086H335.572C333.345 210.086 331.54 211.892 331.54 214.119V215.61C331.54 217.837 333.345 219.642 335.572 219.642Z" fill="#455B64"/>
<path d="M342.897 210.035C342.897 209.939 357.497 209.861 375.503 209.861C393.514 209.861 408.111 209.939 408.111 210.035C408.111 210.131 393.515 210.208 375.503 210.208C357.497 210.208 342.897 210.131 342.897 210.035Z" fill="#263238"/>
<path d="M324.922 260.712L328.656 274.517C328.656 274.517 316.266 283.057 316.714 285.677L343.001 279.193L338.042 257.436L324.922 260.712Z" fill="black"/>
<path d="M336.483 271.338C337.025 271.356 337.514 271.857 337.519 272.415C337.524 272.973 337.033 273.489 336.49 273.481C335.948 273.473 335.344 272.889 335.399 272.334C335.454 271.779 336.064 271.207 336.589 271.348" fill="#E0E0E0"/>
<path d="M342.974 279.192L342.39 277.02L317.404 284.049C317.404 284.049 316.356 284.861 316.686 285.677L342.974 279.192Z" fill="black"/>
<path d="M328.191 274.484C328.227 274.615 328.882 274.517 329.613 274.786C330.35 275.035 330.809 275.526 330.915 275.445C331.028 275.39 330.652 274.648 329.762 274.339C328.875 274.022 328.135 274.37 328.191 274.484Z" fill="white"/>
<path d="M325.715 276.335C325.715 276.47 326.323 276.558 326.889 277.009C327.469 277.442 327.719 278.019 327.846 277.981C327.971 277.972 327.88 277.178 327.165 276.631C326.456 276.078 325.688 276.209 325.715 276.335Z" fill="white"/>
<path d="M324.95 280.116C325.073 280.116 325.097 279.412 324.6 278.771C324.106 278.125 323.434 277.989 323.406 278.113C323.358 278.239 323.838 278.531 324.24 279.064C324.653 279.587 324.819 280.134 324.95 280.116Z" fill="white"/>
<path d="M327.68 271.24C327.762 271.347 328.308 271.02 329.045 270.891C329.78 270.748 330.403 270.859 330.444 270.729C330.496 270.615 329.831 270.263 328.965 270.426C328.097 270.583 327.593 271.152 327.68 271.24Z" fill="white"/>
<path d="M348.051 269.462L345.276 286.562L339.29 299.437C338.858 300.365 339.281 301.475 340.211 301.854C340.731 302.066 341.315 302.01 341.784 301.696C344.773 299.699 355.512 292.116 355.738 291.217C356.096 289.792 359.958 273.193 359.958 273.193L348.051 269.462Z" fill="black"/>
<path d="M340.214 301.853L356.083 289.88L355.949 290.602C355.751 291.325 355.51 291.788 355.028 292.186C353.741 293.251 350.125 296.112 341.838 301.705C341.355 302.031 340.744 302.087 340.214 301.853Z" fill="black"/>
<g opacity="0.6">
<path d="M353.715 283.722C353.245 283.935 352.99 284.554 353.179 285.045C353.367 285.537 353.977 285.809 354.45 285.604C354.923 285.399 355.251 284.665 355.011 284.199C354.77 283.732 354.037 283.453 353.626 283.769" fill="white"/>
</g>
<path d="M345.382 295.153C345.28 295.182 345.071 294.217 344.175 293.544C343.299 292.844 342.339 292.905 342.338 292.796C342.331 292.751 342.566 292.66 342.963 292.679C343.358 292.696 343.908 292.862 344.398 293.24C344.886 293.619 345.193 294.117 345.318 294.503C345.446 294.891 345.425 295.147 345.382 295.153Z" fill="white"/>
<path d="M343.781 297.204C343.689 297.262 343.259 296.604 342.45 296.185C341.649 295.746 340.879 295.765 340.872 295.654C340.84 295.558 341.704 295.352 342.62 295.847C343.54 296.331 343.876 297.175 343.781 297.204Z" fill="white"/>
<path d="M348.117 292.662C348.024 292.727 347.369 291.712 346.166 290.946C344.973 290.159 343.801 289.99 343.819 289.876C343.809 289.779 345.082 289.784 346.363 290.624C347.652 291.449 348.206 292.63 348.117 292.662Z" fill="white"/>
<path d="M349.384 287.534C349.321 287.628 348.479 287.055 347.296 286.778C346.118 286.484 345.116 286.61 345.1 286.498C345.07 286.405 346.114 286.095 347.381 286.407C348.652 286.709 349.451 287.465 349.384 287.534Z" fill="white"/>
<path d="M350.31 282.536C350.24 282.625 349.426 281.877 348.157 281.689C346.893 281.473 345.897 281.933 345.857 281.826C345.836 281.786 346.057 281.607 346.481 281.455C346.901 281.302 347.533 281.206 348.215 281.313C348.896 281.424 349.469 281.712 349.825 281.988C350.184 282.265 350.341 282.504 350.31 282.536Z" fill="white"/>
<path d="M348.382 280.743C348.36 280.739 348.366 280.502 348.478 280.094C348.591 279.689 348.82 279.104 349.289 278.505C349.526 278.223 349.788 277.853 350.292 277.719C350.542 277.651 350.877 277.762 351.031 278.026C351.186 278.283 351.195 278.575 351.151 278.846C350.934 279.923 349.838 280.792 348.627 280.716C347.415 280.618 346.469 279.71 346.171 278.685C346.113 278.423 346.097 278.113 346.279 277.85C346.459 277.584 346.817 277.535 347.046 277.623C347.524 277.795 347.78 278.147 348.029 278.42C348.513 279.004 348.774 279.569 348.914 279.964C349.055 280.362 349.08 280.597 349.06 280.602C348.993 280.635 348.796 279.684 347.834 278.599C347.588 278.344 347.308 278.029 346.961 277.926C346.792 277.874 346.63 277.916 346.542 278.046C346.453 278.171 346.449 278.392 346.503 278.599C346.759 279.441 347.626 280.269 348.651 280.336C349.671 280.411 350.633 279.645 350.816 278.78C350.857 278.571 350.842 278.35 350.756 278.203C350.671 278.06 350.514 277.994 350.35 278.028C350.003 278.099 349.721 278.414 349.489 278.677C348.559 279.792 348.452 280.774 348.382 280.743Z" fill="white"/>
<path d="M342.051 188.118C337.043 190.804 317.524 202.057 312.287 205.469C308.452 207.967 306.092 214.736 307.314 218.96C312.386 236.492 326.799 272.083 326.799 272.083L343.409 269.991L331.804 220.318L355.262 209.286L378.166 186.547L342.051 188.118Z" fill="black"/>
<path d="M369.465 189.178C369.465 189.178 348.609 213.572 348.173 218.598C347.586 225.368 342.051 285.24 342.051 285.24L359.44 287.861L372.795 226.051L389.128 207.019L391.207 196.48L388.92 185.395L369.465 189.178Z" fill="black"/>
<path d="M363.811 196.48C363.815 196.484 363.768 196.552 363.674 196.681C363.566 196.823 363.425 197.011 363.244 197.251C362.849 197.764 362.288 198.494 361.572 199.425C360.12 201.312 358.006 204.035 355.439 207.432C354.156 209.13 352.756 210.995 351.298 213.029C350.577 214.048 349.817 215.101 349.134 216.233C348.771 216.779 348.663 217.42 348.534 218.098C348.404 218.766 348.317 219.455 348.222 220.15C347.55 225.731 347.128 231.912 346.587 238.387C346.311 241.626 346.042 244.787 345.782 247.841C345.488 250.891 345.205 253.833 344.935 256.637C344.388 262.239 343.895 267.284 343.48 271.529C343.055 275.751 342.71 279.175 342.469 281.565C342.345 282.734 342.246 283.648 342.177 284.292C342.141 284.589 342.113 284.823 342.092 285C342.071 285.159 342.057 285.24 342.051 285.24C342.045 285.239 342.047 285.157 342.057 284.996C342.069 284.818 342.086 284.582 342.107 284.284C342.16 283.639 342.237 282.722 342.334 281.551C342.548 279.158 342.855 275.731 343.235 271.504C343.628 267.257 344.096 262.21 344.615 256.607C344.879 253.803 345.156 250.861 345.442 247.811C345.7 244.757 345.967 241.596 346.24 238.358C346.781 231.883 347.212 225.707 347.904 220.108C348.001 219.409 348.091 218.718 348.224 218.039C348.278 217.699 348.363 217.363 348.449 217.029C348.538 216.698 348.684 216.342 348.87 216.076C349.57 214.927 350.334 213.881 351.062 212.86C352.533 210.83 353.945 208.973 355.242 207.283C357.835 203.903 359.978 201.203 361.463 199.341C362.202 198.427 362.78 197.711 363.187 197.207C363.378 196.977 363.529 196.796 363.643 196.659C363.75 196.537 363.806 196.476 363.811 196.48Z" fill="#455B64"/>
<path d="M325.772 214.864C325.838 214.794 327.345 216.108 329.139 217.798C330.934 219.489 332.335 220.916 332.269 220.986C332.203 221.056 330.696 219.742 328.901 218.051C327.107 216.361 325.706 214.934 325.772 214.864Z" fill="#455B64"/>
<path d="M343.207 188.068L365.097 125.783L368.064 122.122L384.51 119.995L387.313 127.872L378.165 188.562L343.207 188.068Z" fill="#FAFBFB"/>
<path d="M363.086 173.714C363.074 173.714 363.07 173.578 363.074 173.319C363.082 173.022 363.094 172.648 363.107 172.187C363.119 171.695 363.161 171.095 363.215 170.398C363.261 169.701 363.328 168.908 363.425 168.034C363.772 164.533 364.519 159.727 365.593 154.471C366.671 149.213 367.83 144.496 368.708 141.094C369.147 139.392 369.516 138.019 369.78 137.072C369.907 136.629 370.01 136.269 370.092 135.984C370.167 135.736 370.213 135.608 370.224 135.611C370.235 135.614 370.213 135.748 370.16 136.002C370.094 136.291 370.012 136.656 369.911 137.106C369.672 138.107 369.346 139.478 368.947 141.153C368.13 144.569 367.01 149.291 365.933 154.54C364.86 159.788 364.078 164.576 363.67 168.062C363.557 168.932 363.473 169.721 363.408 170.415C363.336 171.109 363.275 171.707 363.243 172.196C363.203 172.654 363.17 173.028 363.144 173.323C363.117 173.58 363.098 173.715 363.086 173.714Z" fill="#263238"/>
<path d="M342.739 178.994C342.739 178.349 349.55 128.386 349.55 128.386L351.654 125.178C352.259 124.257 353.287 123.702 354.388 123.702H364.732L367.966 121.196L368.105 122.705L364.732 133.684L350.867 179.096L342.739 178.994Z" fill="black"/>
<path d="M375.874 177.791C375.874 176.502 374.666 166.954 375.478 159.36C376.077 153.757 377.684 144.166 378.881 137.348C379.792 132.162 381.392 127.124 383.642 122.364L385.014 119.461L387.874 124.019L400.238 128.911L395.575 177.791H375.874Z" fill="black"/>
<path d="M377.162 176.968L379.419 211.374L407.033 203.788L400.236 179.238" fill="black"/>
<path d="M400.237 179.238C400.241 179.237 400.257 179.275 400.282 179.35C400.311 179.441 400.345 179.552 400.389 179.69C400.484 180.01 400.615 180.452 400.782 181.016C401.12 182.201 401.606 183.897 402.218 186.037C403.434 190.373 405.153 196.498 407.186 203.746L407.229 203.898L407.076 203.94C401.617 205.445 395.445 207.146 388.932 208.941C385.668 209.836 382.489 210.709 379.465 211.538L379.264 211.593L379.251 211.385C378.629 201.538 378.087 192.943 377.697 186.785C377.518 183.731 377.375 181.283 377.274 179.575C377.232 178.748 377.2 178.101 377.176 177.639C377.169 177.433 377.163 177.268 377.158 177.138C377.156 177.025 377.157 176.968 377.162 176.967C377.168 176.967 377.176 177.024 377.189 177.136C377.201 177.265 377.217 177.43 377.236 177.635C377.273 178.096 377.325 178.742 377.392 179.567C377.515 181.273 377.693 183.719 377.915 186.77C378.334 192.926 378.919 201.519 379.589 211.363L379.375 211.21C382.398 210.378 385.576 209.504 388.84 208.605C395.356 206.821 401.53 205.131 406.991 203.636L406.882 203.83C404.898 196.568 403.222 190.432 402.035 186.087C401.46 183.938 401.003 182.233 400.684 181.043C400.537 180.473 400.422 180.027 400.339 179.704C400.305 179.563 400.278 179.451 400.256 179.358C400.24 179.28 400.233 179.24 400.237 179.238Z" fill="#455B64"/>
<path d="M372.322 167.689L393.999 166.032L394.632 142.452L399.552 128.641C399.552 128.641 407.187 131.421 407.368 140.661C407.549 149.9 407.798 169.54 406.171 175.341C404.544 181.143 399.302 182.647 399.302 182.647L370.412 178.766L372.322 167.689Z" fill="black"/>
<path d="M351.979 124.685C351.979 124.685 347.744 130.964 344.129 138.27C340.514 145.576 328.043 165.453 328.404 169.266C328.766 173.079 333.284 180.169 333.284 180.169L344.129 179.095L342.604 166.979L358.01 136.556L351.979 124.685Z" fill="black"/>
<path d="M394.93 143.701C394.942 143.702 394.947 143.856 394.946 144.15C394.941 144.479 394.934 144.906 394.925 145.435C394.89 146.592 394.842 148.195 394.784 150.159C394.629 154.183 394.418 159.673 394.186 165.737C394.182 165.841 394.177 165.944 394.173 166.039L394.166 166.194L394.013 166.206C388.027 166.671 382.625 167.091 378.668 167.398C376.739 167.532 375.164 167.64 374.026 167.719C373.506 167.748 373.088 167.771 372.764 167.789C372.475 167.801 372.323 167.802 372.322 167.79C372.322 167.778 372.472 167.754 372.758 167.72C373.081 167.685 373.498 167.641 374.015 167.586C375.15 167.48 376.723 167.334 378.649 167.155C382.604 166.821 388.003 166.365 393.985 165.86L393.826 166.026C393.83 165.93 393.834 165.828 393.838 165.724C394.111 159.661 394.357 154.173 394.538 150.149C394.643 148.188 394.728 146.586 394.79 145.43C394.825 144.903 394.854 144.476 394.876 144.148C394.9 143.854 394.918 143.7 394.93 143.701Z" fill="#455B64"/>
<path d="M350.301 133.513C350.313 133.516 350.287 133.676 350.229 133.978C350.158 134.312 350.067 134.75 349.953 135.293C349.706 136.434 349.354 138.085 348.94 140.13C348.103 144.217 347.051 149.884 346.039 156.17C345.027 162.457 344.229 168.167 343.673 172.303C343.401 174.342 343.179 176.005 343.018 177.202C342.94 177.751 342.878 178.193 342.83 178.533C342.783 178.837 342.752 178.996 342.741 178.994C342.729 178.993 342.736 178.831 342.76 178.525C342.792 178.184 342.833 177.739 342.884 177.186C342.998 176.024 343.182 174.345 343.43 172.272C343.922 168.126 344.683 162.407 345.695 156.115C346.709 149.825 347.8 144.158 348.7 140.08C349.144 138.04 349.533 136.395 349.822 135.263C349.962 134.726 350.074 134.294 350.161 133.962C350.241 133.664 350.289 133.51 350.301 133.513Z" fill="#455B64"/>
<path d="M399.548 130.127C399.637 130.203 397.856 131.836 396.643 134.483C395.398 137.116 395.294 139.529 395.178 139.51C395.139 139.509 395.11 138.909 395.243 137.95C395.374 136.993 395.703 135.681 396.327 134.336C396.955 132.993 397.747 131.897 398.395 131.181C399.044 130.462 399.521 130.098 399.548 130.127Z" fill="#455B64"/>
<path d="M388.166 124.802C388.177 124.803 388.173 124.934 388.156 125.183C388.136 125.431 388.112 125.8 388.057 126.272C387.958 127.218 387.778 128.587 387.475 130.275C386.877 133.648 385.713 138.3 383.683 143.254L383.63 143.383L383.492 143.359C382.945 143.26 382.364 143.155 381.776 143.048C381.495 142.997 381.215 142.947 380.955 142.899L381.119 142.616C381.997 143.665 382.925 144.806 383.058 146.206C383.129 146.895 382.947 147.563 382.714 148.152C382.474 148.746 382.2 149.289 381.951 149.833C380.94 151.986 380.028 153.924 379.257 155.565C378.495 157.157 377.873 158.457 377.421 159.401C377.211 159.823 377.041 160.165 376.907 160.434C376.786 160.668 376.718 160.788 376.708 160.784C376.697 160.779 376.744 160.649 376.845 160.405C376.963 160.129 377.114 159.779 377.301 159.345C377.728 158.39 378.317 157.075 379.038 155.463C379.789 153.814 380.678 151.865 381.664 149.7C382.125 148.614 382.84 147.489 382.721 146.238C382.603 144.982 381.732 143.882 380.853 142.841L380.541 142.472L381.016 142.558C381.276 142.605 381.557 142.655 381.838 142.707C382.426 142.814 383.007 142.919 383.553 143.018L383.362 143.123C385.387 138.198 386.586 133.582 387.242 130.232C387.574 128.557 387.791 127.197 387.928 126.258C387.994 125.817 388.046 125.459 388.088 125.178C388.129 124.929 388.155 124.8 388.166 124.802Z" fill="#455B64"/>
<path d="M355.865 157.587C355.853 157.587 355.844 157.464 355.837 157.228C355.832 156.993 355.822 156.647 355.826 156.2C355.842 155.308 355.889 154.015 356.043 152.425C356.332 149.241 357.127 144.89 358.253 140.157C358.815 137.789 359.334 135.53 359.904 133.494C360.47 131.459 361.106 129.655 361.775 128.2C362.437 126.741 363.117 125.63 363.635 124.902C363.885 124.531 364.108 124.264 364.257 124.082C364.406 123.9 364.489 123.808 364.499 123.816C364.526 123.836 364.223 124.227 363.748 124.978C363.269 125.725 362.628 126.843 362.001 128.301C361.365 129.755 360.76 131.55 360.213 133.58C359.663 135.609 359.153 137.87 358.591 140.237C357.467 144.966 356.638 149.288 356.287 152.452C356.103 154.032 356.019 155.317 355.962 156.206C355.94 156.619 355.922 156.957 355.907 157.231C355.891 157.464 355.877 157.587 355.865 157.587Z" fill="#455B64"/>
<path d="M399.64 170.97C399.542 171.027 398.871 169.263 397.128 167.859C395.408 166.424 393.547 166.112 393.584 166.005C393.589 165.966 394.056 165.984 394.777 166.2C395.496 166.412 396.455 166.86 397.349 167.59C398.239 168.323 398.866 169.176 399.216 169.839C399.568 170.503 399.677 170.957 399.64 170.97Z" fill="#455B64"/>
<path d="M324.848 151.231C324.93 151.48 341.637 183.073 341.637 183.073H367.523L355.779 153.299C355.779 153.299 346.185 154.542 337.659 153.836C330.854 153.273 324.848 151.231 324.848 151.231Z" fill="#FAFBFB"/>
<path d="M324.848 151.232C324.841 151.229 324.898 151.239 324.99 151.266C325.095 151.296 325.23 151.336 325.402 151.385C325.781 151.491 326.319 151.64 327.013 151.833C328.428 152.207 330.516 152.726 333.21 153.174C338.588 154.147 346.467 154.222 355.761 153.151L355.878 153.138L355.921 153.245C359.268 161.712 363.218 171.704 367.432 182.367C367.518 182.583 367.603 182.799 367.686 183.01L367.78 183.248H367.525C358.234 183.242 349.438 183.237 341.638 183.232H341.543L341.499 183.147C336.548 173.719 332.367 165.756 329.414 160.134C327.962 157.334 326.811 155.117 326.016 153.586C325.635 152.834 325.34 152.252 325.132 151.843C324.93 151.442 324.844 151.216 324.848 151.232C324.913 151.348 325.001 151.505 325.178 151.819C325.395 152.223 325.705 152.797 326.105 153.538C326.918 155.06 328.095 157.263 329.581 160.046C332.56 165.653 336.78 173.595 341.776 182.999L341.637 182.916C349.437 182.91 358.234 182.905 367.524 182.899L367.362 183.137C367.279 182.925 367.193 182.709 367.108 182.493C362.91 171.824 358.974 161.826 355.641 153.354L355.8 153.448C346.473 154.493 338.574 154.374 333.181 153.347C330.482 152.871 328.398 152.324 326.988 151.921C326.284 151.719 325.748 151.548 325.388 151.429C325.218 151.37 325.085 151.324 324.983 151.288C324.89 151.256 324.856 151.235 324.848 151.232Z" fill="#263238"/>
<path d="M372.35 167.905L370.441 168.02C370.441 168.02 364.132 162.149 363.222 162.149C362.313 162.149 359.577 162.929 359.577 162.929L360.345 164.878C360.345 164.878 355.696 164.631 354.29 164.878C352.884 165.126 351.23 165.871 351.809 167.608C351.809 167.608 350.651 169.51 353.049 170.42C353.049 170.42 352.479 171.433 353.888 172.351C354.089 172.481 354.331 172.611 354.62 172.735C356.936 173.728 356.77 173.925 356.77 173.925C356.77 173.925 356.853 174.968 357.68 175.795C358.507 176.622 363.171 178.398 365.719 178.503C368.266 178.607 370.582 177.863 370.582 177.863L372.35 167.905Z" fill="#FDD7C6"/>
<path d="M365.696 164.863C365.693 164.959 364.466 165.035 362.954 165.031C361.442 165.029 360.215 164.948 360.213 164.852C360.211 164.756 361.438 164.681 362.955 164.684C364.472 164.687 365.699 164.767 365.696 164.863Z" fill="#F7996E"/>
<path d="M364.483 168.485C364.478 168.534 363.774 168.494 362.641 168.414C361.391 168.33 359.882 168.228 358.213 168.116C356.543 168.03 355.032 167.952 353.781 167.888C352.646 167.833 351.943 167.789 351.943 167.74C351.943 167.693 352.647 167.65 353.786 167.642C354.925 167.633 356.499 167.666 358.235 167.769C359.969 167.873 361.536 168.026 362.666 168.169C363.795 168.312 364.489 168.438 364.483 168.485Z" fill="#F7996E"/>
<path d="M361.834 171.809C361.82 171.904 359.785 171.695 357.288 171.341C354.791 170.988 352.778 170.625 352.791 170.529C352.804 170.434 354.84 170.643 357.337 170.997C359.834 171.35 361.847 171.713 361.834 171.809Z" fill="#F7996E"/>
<path d="M361.339 174.574C361.335 174.667 360.243 174.692 358.921 174.463C357.598 174.238 356.578 173.851 356.605 173.762C356.633 173.666 357.68 173.899 358.98 174.12C360.279 174.345 361.344 174.475 361.339 174.574Z" fill="#F7996E"/>
<path d="M334.69 177.035C334.69 177.035 334.525 174.228 336.261 173.976C338.017 173.72 343.797 173.256 342.411 177.028C342.411 177.028 346.762 176.472 347.175 177.96C347.589 179.449 346.759 179.791 346.759 179.791C346.759 179.791 348.111 180.923 346.759 181.911C345.434 182.879 343.903 183.074 343.903 183.074C343.903 183.074 345.096 184.198 344.035 184.81C343.161 185.315 337.832 187.622 336.261 182.329C334.69 177.036 334.69 177.035 334.69 177.035Z" fill="#FBBF9E"/>
<path d="M347.238 179.684C347.255 179.779 345.465 180.188 343.24 180.6C341.013 181.011 339.195 181.268 339.178 181.173C339.16 181.079 340.951 180.668 343.177 180.257C345.402 179.846 347.22 179.589 347.238 179.684Z" fill="#F7996E"/>
<path d="M337.64 177.309C337.634 177.213 338.803 177.059 340.253 176.965C341.702 176.871 342.882 176.872 342.888 176.968C342.894 177.064 341.725 177.218 340.275 177.312C338.826 177.406 337.646 177.405 337.64 177.309Z" fill="#F7996E"/>
<path d="M340.39 184.298C340.366 184.203 341.353 183.878 342.56 183.466C343.768 183.056 344.748 182.713 344.787 182.803C344.825 182.888 343.896 183.38 342.672 183.795C341.449 184.213 340.412 184.389 340.39 184.298Z" fill="#F7996E"/>
<g opacity="0.3">
<path d="M338.225 190.29L331.51 194.142L405.198 197.156L403.295 190.282L338.225 190.29Z" fill="black"/>
</g>
<path d="M370.419 134.521C370.35 134.525 370.551 133.815 370.118 132.847C370.007 132.619 369.858 132.345 369.651 132.18C369.446 132.008 369.186 132.103 368.951 132.352C368.479 132.86 368.016 133.499 367.642 134.219C367.401 134.676 367.214 135.142 367.07 135.587L366.962 135.922L366.77 135.631C366.038 134.525 365.701 133.404 365.574 132.608C365.445 131.807 365.489 131.323 365.522 131.323C365.57 131.32 365.6 131.797 365.783 132.566C365.965 133.331 366.332 134.394 367.049 135.444L366.749 135.488C366.892 135.022 367.084 134.535 367.334 134.058C367.726 133.306 368.207 132.658 368.726 132.125C368.865 131.992 369.026 131.864 369.238 131.81C369.452 131.752 369.688 131.83 369.829 131.954C370.112 132.207 370.23 132.49 370.344 132.751C370.554 133.28 370.569 133.748 370.538 134.056C370.508 134.366 370.438 134.526 370.419 134.521Z" fill="#263238"/>
<path d="M379.609 131.856C379.644 131.888 379.167 132.467 378.366 133.375C377.565 134.284 376.442 135.523 375.186 136.877C374.859 137.227 374.541 137.567 374.234 137.896L374.007 138.14L373.943 137.815C373.648 136.341 373.256 135.082 372.945 134.195C372.635 133.306 372.42 132.781 372.461 132.762C372.496 132.746 372.781 133.24 373.151 134.116C373.521 134.99 373.961 136.255 374.276 137.747L373.985 137.665C374.291 137.334 374.607 136.991 374.931 136.64C376.188 135.286 377.339 134.074 378.186 133.208C379.032 132.343 379.574 131.824 379.609 131.856Z" fill="#263238"/>
<path d="M358.395 81.5451C361.046 80.652 363.901 82.9664 366.63 82.3513C368.287 81.9772 369.508 80.6106 370.967 79.7403C373.148 78.4392 376.278 78.1506 378.575 79.236C380.872 80.3214 382.366 81.5083 382.746 84.0198C384.774 82.7787 388.286 85.2755 389.528 87.7455C390.77 90.2155 390.549 92.8118 389.96 95.5129C388.947 100.164 387.009 104.612 384.293 108.52C384.052 108.866 383.664 109.253 383.277 109.085C383.009 108.968 382.914 108.643 382.859 108.357C382.396 105.915 382.636 103.403 382.778 100.921C382.92 98.4398 382.952 95.8843 382.104 93.5479C381.256 91.2114 379.349 89.1121 376.898 88.7C375.087 88.3954 373.234 89.0346 371.659 89.9777C370.084 90.9215 368.711 92.1632 367.216 93.2292C365.722 94.2953 364.035 95.2057 362.204 95.3373C360.372 95.4688 358.381 94.66 357.553 93.0215C356.724 91.3831 357.534 88.9986 359.319 88.5671C357.666 88.4622 356.185 87.0782 355.969 85.4364C355.753 83.794 356.826 82.0741 358.395 81.5451Z" fill="#9E724D"/>
<path d="M360.896 110.821C360.877 107.421 361.408 100.417 361.961 94.0821C362.557 87.2698 368.283 82.0572 375.12 82.1033L375.8 82.108C383.122 82.5856 385.952 89.3478 385.273 96.6543L384.51 119.995L371.118 132.798L368.329 125.132L367.761 118.963C367.761 118.963 360.935 117.862 360.896 110.821Z" fill="#FDD7C6"/>
<path d="M367.762 118.963C367.762 118.963 372.409 119.391 377.159 116.453C377.159 116.453 374.943 121.378 367.921 120.697L367.762 118.963Z" fill="#F6BAA6"/>
<path d="M364.991 100.826C364.968 101.357 365.4 101.813 365.954 101.847C366.507 101.881 366.974 101.479 366.996 100.948C367.018 100.417 366.588 99.9597 366.035 99.9256C365.481 99.8922 365.013 100.296 364.991 100.826Z" fill="#263238"/>
<path d="M363.442 97.5346C363.566 97.6662 364.331 97.1078 365.413 97.1178C366.494 97.1124 367.284 97.6742 367.403 97.5426C367.461 97.4845 367.335 97.2467 366.991 96.9929C366.652 96.7397 366.073 96.4919 365.399 96.4906C364.725 96.4899 364.156 96.7337 363.829 96.9862C363.496 97.2393 363.382 97.4758 363.442 97.5346Z" fill="#9E724D"/>
<path d="M375.478 100.826C375.456 101.357 375.887 101.813 376.441 101.847C376.994 101.88 377.461 101.478 377.484 100.947C377.506 100.416 377.075 99.9593 376.522 99.9259C375.967 99.8925 375.5 100.296 375.478 100.826Z" fill="#263238"/>
<path d="M374.088 97.808C374.212 97.9395 374.978 97.3818 376.06 97.3918C377.14 97.3865 377.93 97.9482 378.049 97.8166C378.107 97.7585 377.983 97.5208 377.638 97.2669C377.299 97.0138 376.721 96.766 376.047 96.7646C375.373 96.764 374.804 97.0084 374.477 97.2596C374.142 97.5127 374.027 97.7485 374.088 97.808Z" fill="#9E724D"/>
<path d="M370.109 105.805C370.115 105.744 369.443 105.623 368.355 105.476C368.079 105.446 367.817 105.389 367.772 105.2C367.709 105 367.826 104.703 367.962 104.382C368.226 103.716 368.503 103.016 368.794 102.284C369.948 99.2966 370.787 96.8393 370.666 96.7939C370.545 96.7484 369.511 99.133 368.356 102.121C368.078 102.857 367.812 103.56 367.559 104.231C367.452 104.545 367.27 104.9 367.408 105.315C367.481 105.522 367.683 105.673 367.86 105.721C368.037 105.777 368.192 105.781 368.329 105.79C369.425 105.857 370.105 105.866 370.109 105.805Z" fill="#263238"/>
<path d="M374.012 92.2635C374.117 92.5581 375.198 92.4265 376.466 92.5881C377.738 92.7244 378.759 93.1031 378.93 92.8399C379.006 92.7144 378.829 92.4365 378.417 92.1486C378.009 91.8614 377.356 91.5869 376.595 91.4967C375.833 91.4086 375.134 91.5248 374.671 91.7098C374.203 91.8935 373.967 92.1233 374.012 92.2635Z" fill="#F6BAA6"/>
<path d="M363.869 94.4055C364.058 94.6526 364.805 94.4021 365.701 94.3968C366.597 94.3594 367.355 94.5731 367.531 94.3173C367.609 94.1931 367.491 93.9459 367.16 93.7115C366.835 93.4777 366.29 93.2847 365.674 93.2987C365.058 93.3141 364.523 93.5331 364.21 93.7829C363.892 94.0327 363.786 94.2852 363.869 94.4055Z" fill="#F6BAA6"/>
<path d="M384.96 101.544C385.08 101.493 390.364 100.188 390.178 105.001C389.991 109.813 385.198 108.634 385.196 108.495C385.192 108.357 384.96 101.544 384.96 101.544Z" fill="#FDD7C6"/>
<path d="M386.736 106.729C386.758 106.714 386.818 106.791 386.957 106.861C387.093 106.93 387.329 106.983 387.583 106.898C388.099 106.731 388.558 105.94 388.615 105.074C388.645 104.636 388.568 104.215 388.427 103.864C388.294 103.506 388.076 103.252 387.822 103.196C387.569 103.127 387.382 103.274 387.318 103.407C387.249 103.539 387.275 103.636 387.249 103.643C387.235 103.654 387.149 103.558 387.196 103.361C387.219 103.266 387.28 103.155 387.397 103.067C387.516 102.978 387.687 102.936 387.865 102.962C388.235 103.002 388.556 103.356 388.712 103.743C388.888 104.131 388.984 104.604 388.95 105.095C388.882 106.064 388.351 106.952 387.647 107.126C387.305 107.201 387.027 107.088 386.885 106.969C386.741 106.846 386.72 106.737 386.736 106.729Z" fill="#F6BAA6"/>
<path d="M361.92 87.511C362.556 86.1317 363.681 85.033 364.899 84.1259C367.525 82.1709 370.743 80.9632 374.017 80.9352C377.291 80.9071 380.6 82.1027 382.952 84.3811C384.833 86.2045 386.054 88.6505 386.611 91.2107C387.167 93.7709 387.408 97.2114 386.929 99.787C386.718 100.918 386.078 101.323 385.278 102.149C384.777 102.664 383.923 103.001 383.357 102.56C383.023 102.3 382.904 101.856 382.804 101.445C381.902 97.725 381.015 93.7248 382.4 90.156C381.488 88.9504 380.424 87.8263 379.105 87.0862C377.787 86.3461 376.184 86.0235 374.736 86.4583C372.585 87.1042 371.25 89.1828 369.528 90.6236C367.066 92.6828 363.576 93.4436 360.48 92.5973L361.92 87.511Z" fill="#9E724D"/>
<path d="M390.301 93.8188C390.295 93.7661 389.785 93.8249 388.972 93.7647C388.16 93.708 387.044 93.4842 385.92 92.9552C384.8 92.4202 383.921 91.6968 383.363 91.1044C382.802 90.5126 382.525 90.0804 382.48 90.1085C382.452 90.1225 382.666 90.6007 383.202 91.248C383.733 91.8945 384.626 92.676 385.789 93.2311C386.955 93.7808 388.125 93.9785 388.961 93.9805C389.802 93.9858 390.307 93.8489 390.301 93.8188Z" fill="#E0E0E0"/>
<path d="M390.227 96.1874C390.231 96.1347 389.676 96.0859 388.817 95.8668C387.958 95.6504 386.802 95.2203 385.665 94.4895C384.532 93.7541 383.664 92.8751 383.114 92.1812C382.561 91.4878 382.29 91.0029 382.243 91.0276C382.214 91.041 382.421 91.5667 382.942 92.3107C383.459 93.0542 384.33 93.9873 385.499 94.7454C386.67 95.4988 387.879 95.9102 388.769 96.0766C389.662 96.2469 390.226 96.2188 390.227 96.1874Z" fill="#E0E0E0"/>
<path d="M358.15 90.1526C358.116 90.1633 358.166 90.4912 358.418 90.9601C358.663 91.4257 359.141 92.0208 359.848 92.4383C360.555 92.8564 361.307 92.9866 361.833 92.9773C362.364 92.9706 362.676 92.8564 362.668 92.821C362.661 92.7736 362.343 92.809 361.842 92.7609C361.344 92.7155 360.656 92.5605 360.003 92.1744C359.349 91.7884 358.881 91.2614 358.601 90.8473C358.318 90.4318 358.195 90.1366 358.15 90.1526Z" fill="#E0E0E0"/>
<path d="M357.583 91.1451C357.549 91.1564 357.61 91.4683 357.851 91.9172C358.088 92.3647 358.535 92.9325 359.172 93.386C359.812 93.8375 360.496 94.0706 360.997 94.1461C361.5 94.2242 361.814 94.1781 361.814 94.1427C361.829 94.0492 360.559 94.0118 359.349 93.1362C358.122 92.2859 357.665 91.0996 357.583 91.1451Z" fill="#E0E0E0"/>
<path d="M373.186 107.111C372.162 107.497 371.168 107.977 370.213 108.547L369.206 109.124C369.658 109.672 370.159 110.597 370.772 110.83C371.384 111.063 372.395 110.988 372.858 110.494C373.227 110.1 373.391 109.49 373.405 108.893C373.42 108.295 373.302 107.699 373.186 107.111Z" fill="#F6BAA6"/>
<path d="M369.696 109.787C369.724 109.771 369.801 109.922 369.994 110.138C370.181 110.354 370.517 110.629 371.015 110.725C371.502 110.817 372.159 110.733 372.691 110.357C373.192 109.977 373.368 109.156 373.28 108.399C373.23 107.948 373.102 107.514 372.954 107.115L373.178 107.2C372.017 107.79 371 108.292 370.269 108.638C369.537 108.984 369.092 109.173 369.074 109.139C369.056 109.104 369.469 108.851 370.174 108.455C370.879 108.059 371.877 107.52 373.03 106.915L373.189 106.832L373.254 107.001C373.415 107.414 373.554 107.872 373.609 108.363C373.695 109.193 373.529 110.106 372.87 110.604C372.228 111.032 371.512 111.085 370.965 110.954C370.409 110.814 370.058 110.471 369.893 110.218C369.72 109.961 369.683 109.791 369.696 109.787Z" fill="#263238"/>
<path d="M441.982 185.98H433.834V286.179H441.982V185.98Z" fill="#59322A"/>
<path d="M215.483 178.68H207.335V286.179H215.483V178.68Z" fill="#59322A"/>
<path d="M459.712 177.327H192.58V190.282H459.712V177.327Z" fill="#6F453A"/>
<path d="M350.61 173.139H308.933V177.368H350.61V173.139Z" fill="#E0E0E0"/>
<path d="M336.117 174.613C336.117 174.71 330.058 174.787 322.586 174.787C315.111 174.787 309.054 174.709 309.054 174.613C309.054 174.518 315.111 174.44 322.586 174.44C330.058 174.439 336.117 174.517 336.117 174.613Z" fill="#263238"/>
<path d="M340.172 175.779C340.172 175.875 334.113 175.952 326.641 175.952C319.166 175.952 313.108 175.875 313.108 175.779C313.108 175.683 319.166 175.605 326.641 175.605C334.113 175.605 340.172 175.683 340.172 175.779Z" fill="#263238"/>
<path d="M49.9882 264.445L49.4479 278.765C49.4479 278.765 63.8218 284.123 63.9795 286.779L36.1767 286.729L36.1025 264.382L49.9882 264.445Z" fill="black"/>
<path d="M40.8464 277.547C40.3081 277.694 39.9353 278.298 40.0589 278.842C40.1825 279.386 40.7943 279.77 41.3347 279.633C41.875 279.497 42.3453 278.785 42.1616 278.258C41.9779 277.732 41.2351 277.32 40.7429 277.582" fill="#E0E0E0"/>
<path d="M36.1729 286.733L36.2537 284.48L62.8802 285.37C62.8802 285.37 64.1172 285.911 63.9756 286.782L36.1729 286.733Z" fill="#263238"/>
<path d="M49.8891 278.624C49.8845 278.76 49.2058 278.82 48.5366 279.255C47.8566 279.673 47.5113 280.261 47.3864 280.206C47.2615 280.18 47.4652 279.369 48.2841 278.856C49.0983 278.336 49.9192 278.5 49.8891 278.624Z" fill="white"/>
<path d="M52.7808 279.839C52.8115 279.971 52.2231 280.201 51.7608 280.774C51.2819 281.334 51.1644 281.955 51.0295 281.948C50.9019 281.97 50.8097 281.174 51.3975 280.472C51.9793 279.765 52.7781 279.71 52.7808 279.839Z" fill="white"/>
<path d="M54.4631 283.329C54.3396 283.358 54.1519 282.679 54.5019 281.937C54.8472 281.191 55.4871 280.899 55.5445 281.012C55.6213 281.124 55.2079 281.522 54.93 282.136C54.6381 282.743 54.5981 283.317 54.4631 283.329Z" fill="white"/>
<path d="M49.6538 275.349C49.5964 275.473 48.9739 275.284 48.2064 275.335C47.4383 275.37 46.8405 275.626 46.7697 275.51C46.6915 275.412 47.2753 274.91 48.1804 274.864C49.0841 274.809 49.7206 275.242 49.6538 275.349Z" fill="white"/>
<path d="M27.1016 265.244L22.5156 281.963L22.7012 296.232C22.7146 297.261 21.8543 298.086 20.827 298.029C20.2519 297.997 19.7309 297.694 19.4244 297.206C17.4726 294.104 10.629 282.585 10.796 281.673C11.0605 280.225 14.4215 263.491 14.4215 263.491L27.1016 265.244Z" fill="black"/>
<path d="M20.8265 298.03L11.0373 280.313L10.8589 281.026C10.7407 281.767 10.7714 282.292 11.054 282.862C11.8081 284.384 13.9829 288.54 19.3724 297.195C19.6864 297.698 20.2334 298.013 20.8265 298.03Z" fill="#263238"/>
<g opacity="0.6">
<path d="M15.8551 275.75C16.2038 276.146 16.1824 276.818 15.8003 277.182C15.4183 277.547 14.7343 277.531 14.3796 277.14C14.0243 276.75 14.0249 275.943 14.4457 275.623C14.8659 275.304 15.6674 275.366 15.9192 275.831" fill="white"/>
</g>
<path d="M18.817 289.719C18.9005 289.789 19.4996 289.003 20.6184 288.78C21.7305 288.522 22.6002 288.992 22.6476 288.893C22.6723 288.856 22.492 288.671 22.1126 288.518C21.7372 288.363 21.1541 288.276 20.5383 288.408C19.9231 288.541 19.4281 288.86 19.1496 289.157C18.8671 289.454 18.7789 289.695 18.817 289.719Z" fill="white"/>
<path d="M19.4532 292.272C19.5146 292.364 20.1912 291.952 21.1237 291.921C22.0554 291.868 22.7661 292.217 22.8189 292.119C22.889 292.046 22.1683 291.486 21.1063 291.54C20.0443 291.583 19.377 292.205 19.4532 292.272Z" fill="white"/>
<path d="M17.3139 286.276C17.3727 286.376 18.41 285.736 19.8554 285.56C21.2981 285.361 22.4644 285.713 22.4957 285.601C22.5458 285.519 21.3542 284.973 19.8066 285.182C18.2564 285.376 17.2444 286.209 17.3139 286.276Z" fill="white"/>
<path d="M18.284 281.077C18.3033 281.189 19.33 281.033 20.5496 281.291C21.7733 281.533 22.6556 282.08 22.7177 281.985C22.7845 281.914 21.9402 281.181 20.6257 280.919C19.3146 280.643 18.2506 280.985 18.284 281.077Z" fill="white"/>
<path d="M19.5105 276.134C19.5386 276.244 20.6126 275.917 21.875 276.294C23.1461 276.643 23.8828 277.49 23.965 277.412C24.0017 277.383 23.8701 277.126 23.5388 276.805C23.2102 276.484 22.6618 276.124 21.9799 275.928C21.2972 275.734 20.6413 275.748 20.1931 275.845C19.7416 275.942 19.4945 276.091 19.5105 276.134Z" fill="white"/>
<path d="M22.0865 275.349C22.1079 275.354 22.2028 275.138 22.2689 274.718C22.333 274.302 22.3651 273.672 22.1794 272.926C22.0758 272.568 21.987 272.119 21.5729 271.779C21.3678 271.609 21.0085 271.566 20.754 271.739C20.5022 271.906 20.3706 272.166 20.2985 272.432C20.0493 273.504 20.7079 274.766 21.8701 275.219C23.043 275.652 24.3068 275.237 25.0148 274.434C25.1791 274.222 25.324 273.947 25.2646 273.63C25.2078 273.312 24.8945 273.112 24.6434 273.093C24.1251 273.043 23.7383 273.252 23.3917 273.392C22.6957 273.713 22.2148 274.113 21.9175 274.412C21.619 274.712 21.4967 274.915 21.5141 274.928C21.5622 274.987 22.1453 274.208 23.4985 273.639C23.8352 273.514 24.2286 273.348 24.596 273.405C24.7756 273.432 24.9092 273.539 24.9359 273.696C24.9667 273.847 24.8785 274.05 24.7409 274.215C24.1484 274.868 22.9923 275.245 22.007 274.863C21.0239 274.491 20.4461 273.381 20.6385 272.516C20.6879 272.309 20.7948 272.114 20.9364 272.019C21.0753 271.926 21.2496 271.934 21.3885 272.035C21.6831 272.249 21.814 272.657 21.9202 272.996C22.3196 274.408 22.0077 275.347 22.0865 275.349Z" fill="white"/>
<path d="M62.3632 154.733C61.885 151.58 62.3819 144.537 62.3819 144.537C62.3819 144.537 25.1306 141.973 25.1306 142.762L22.5871 158.13C22.5437 160.015 25.2668 173.798 25.2668 173.798C25.8526 186.657 22.4862 215.547 22.4862 215.547L9.01465 276.161L27.6894 278.439C27.6894 278.439 45.3904 225.397 46.4484 219.354C47.5064 213.31 55.8502 176.577 55.8502 176.577C55.8502 176.577 62.8415 157.886 62.3632 154.733Z" fill="black"/>
<path d="M70.5706 153.493C70.3061 154.807 70.8538 179.93 63.2059 220.235L52.7674 278.487L32.7588 277.254L39.6178 227.066L55.7605 151.391L70.5706 153.493Z" fill="black"/>
<path d="M63.113 158.07C63.119 158.07 63.1104 158.164 63.0876 158.345C63.0643 158.527 63.0315 158.798 62.9721 159.15C62.8625 159.856 62.6688 160.893 62.3963 162.225C62.1091 163.561 61.7598 165.188 61.3537 167.077C60.9456 168.969 60.4446 171.122 60.0252 173.524L60.0138 173.589L59.9537 173.616C59.1061 174.005 58.1863 174.427 57.2352 174.862L57.312 174.763C55.8332 183.301 53.639 194.391 50.6774 206.347C48.9862 213.19 47.2128 219.669 45.4936 225.529C43.7683 231.388 42.0884 236.625 40.6337 241.009C39.1649 245.387 37.9172 248.911 37.0295 251.335C36.5847 252.532 36.2367 253.467 35.9922 254.123C35.8753 254.427 35.7831 254.666 35.7143 254.844C35.6502 255.006 35.6142 255.088 35.6082 255.086C35.6028 255.084 35.6268 254.998 35.681 254.832C35.7417 254.651 35.8226 254.408 35.9261 254.099C36.1552 253.438 36.4825 252.495 36.9013 251.29C37.7495 248.851 38.9612 245.318 40.3999 240.932C41.8239 236.541 43.4791 231.299 45.1857 225.439C46.8869 219.578 48.6489 213.101 50.3394 206.262C53.2991 194.316 55.5206 183.241 57.0475 174.716L57.0602 174.646L57.1243 174.617C58.0781 174.187 59.0005 173.771 59.8508 173.387L59.7794 173.48C60.2169 171.067 60.7352 168.921 61.1613 167.031C61.5901 165.148 61.9595 163.527 62.2621 162.195C62.5553 160.868 62.7697 159.836 62.902 159.135C62.9654 158.798 63.0155 158.534 63.0522 158.337C63.0863 158.16 63.107 158.068 63.113 158.07Z" fill="#455B64"/>
<path d="M91.7446 125.658H94.7897C95.5425 124.518 96.3053 124.302 97.8889 123.365C101.923 120.979 107.301 119.052 108.447 119.97C109.593 120.888 108.182 121.897 107.742 122.172C107.301 122.448 103.422 123.958 103.598 125.221C103.775 126.485 116.437 128.764 116.998 129.973C117.753 131.598 116.409 132.261 111.032 131.343L109.505 131.074C109.505 131.074 110.387 132.358 109.417 133.368C108.447 134.378 107.653 133.919 107.653 133.919C107.653 133.919 107.742 135.112 106.507 135.662C105.273 136.212 104.747 135.662 104.747 135.662C104.747 135.662 105.039 138.692 102.363 138.232C99.9529 137.816 98.3024 137.816 95.9259 137.321C94.8558 137.098 93.9374 136.578 93.9374 136.578L90.9244 135.428C90.4334 133.261 91.5135 126.243 91.7446 125.658Z" fill="#FDD7C6"/>
<path d="M107.656 133.919C107.613 133.949 107.238 133.322 106.232 132.759C105.744 132.463 105.117 132.171 104.474 131.72C104.165 131.496 103.809 131.238 103.583 130.823C103.475 130.618 103.403 130.38 103.415 130.125C103.425 129.87 103.542 129.612 103.719 129.429C104.075 129.052 104.598 128.945 105.034 128.975C105.479 129.003 105.869 129.112 106.245 129.211C106.993 129.418 107.641 129.701 108.149 129.997C108.659 130.292 109.028 130.597 109.263 130.824C109.5 131.051 109.604 131.201 109.59 131.214C109.548 131.261 109.047 130.734 108.031 130.213C107.525 129.955 106.893 129.704 106.162 129.52C105.797 129.432 105.405 129.333 105.018 129.315C104.633 129.293 104.234 129.391 103.972 129.667C103.705 129.933 103.709 130.337 103.885 130.664C104.055 130.991 104.363 131.235 104.663 131.46C105.262 131.903 105.879 132.221 106.363 132.55C106.853 132.872 107.208 133.206 107.408 133.469C107.609 133.736 107.672 133.909 107.656 133.919Z" fill="#F6BAA6"/>
<path d="M102.586 126.057C102.625 126.065 102.574 126.519 102.325 127.21C102.08 127.9 101.603 128.815 100.87 129.67C100.133 130.522 99.2991 131.13 98.6532 131.475C98.0066 131.824 97.5658 131.941 97.5511 131.904C97.4963 131.806 99.1915 131.112 100.606 129.443C102.046 127.797 102.481 126.017 102.586 126.057Z" fill="#F6BAA6"/>
<path d="M104.751 135.662C104.728 135.703 104.342 135.543 103.776 135.183C103.494 135.002 103.165 134.775 102.826 134.479C102.49 134.193 102.122 133.784 101.965 133.255C101.798 132.738 101.831 132.162 102.095 131.739C102.356 131.307 102.802 131.114 103.152 131.074C103.894 130.997 104.235 131.405 104.195 131.416C104.171 131.471 103.809 131.187 103.192 131.317C102.898 131.381 102.557 131.561 102.371 131.901C102.178 132.238 102.154 132.705 102.297 133.15C102.433 133.604 102.727 133.948 103.041 134.241C103.352 134.535 103.66 134.778 103.918 134.982C104.437 135.386 104.775 135.619 104.751 135.662Z" fill="#F6BAA6"/>
<path d="M102.924 137.816C102.894 137.854 102.586 137.674 102.109 137.352C101.653 137.042 100.913 136.581 100.567 135.675C100.405 135.228 100.412 134.745 100.577 134.356C100.734 133.96 101.073 133.7 101.371 133.614C101.672 133.518 101.938 133.556 102.095 133.625C102.255 133.694 102.315 133.772 102.304 133.789C102.286 133.84 101.946 133.63 101.458 133.844C101.22 133.947 100.986 134.155 100.874 134.474C100.759 134.786 100.76 135.185 100.894 135.557C101.176 136.321 101.836 136.8 102.266 137.163C102.7 137.531 102.954 137.779 102.924 137.816Z" fill="#F6BAA6"/>
<path d="M39.8325 56.4971C38.7658 53.5783 37.7105 50.6367 37.1614 47.5782C36.6131 44.5197 36.5904 41.311 37.5669 38.3614C37.7152 37.9145 39.0063 34.9035 39.4765 34.9322C39.8125 34.9529 39.051 37.7462 39.2307 38.0308C40.9466 40.7472 41.5064 44.0689 41.3641 47.279C41.2225 50.4884 40.6601 53.3919 39.8325 56.4971Z" fill="#B38C67"/>
<path d="M64.8064 42.7103C64.3522 35.5347 58.4631 29.9127 51.2741 29.7872L50.4278 29.7725C42.6404 30.0911 39.1591 37.0676 39.6928 44.8431L41.0059 72.2063L43.6536 74.7705C48.2056 79.1789 55.977 79.0553 57.8599 73.0052C57.8031 70.811 57.7771 69.1519 57.7938 69.1512C57.7938 69.1512 65.2927 68.1186 65.5151 60.6431C65.624 57.0095 65.2346 49.4845 64.8064 42.7103Z" fill="#FDD7C6"/>
<path d="M57.7837 69.1506C57.7837 69.1506 53.0661 69.3449 48.0986 66.1028C48.0986 66.1028 50.3776 71.5825 57.8505 71.0388L57.7837 69.1506Z" fill="#F6BAA6"/>
<path d="M62.5345 50.2891C62.5452 50.8535 62.0757 51.327 61.4865 51.3484C60.8988 51.3698 60.4125 50.9309 60.4025 50.3665C60.3925 49.8021 60.8614 49.3279 61.4498 49.3065C62.0383 49.2852 62.5245 49.7253 62.5345 50.2891Z" fill="#263238"/>
<path d="M52.5821 50.2888C52.5928 50.8532 52.1232 51.3268 51.5334 51.3482C50.9457 51.3695 50.4594 50.9307 50.4494 50.3663C50.4394 49.8026 50.9082 49.3277 51.4967 49.3063C52.0865 49.2849 52.5727 49.7251 52.5821 50.2888Z" fill="#263238"/>
<path d="M62.9363 46.8353C62.8014 46.9723 62.0032 46.3598 60.8537 46.3424C59.7062 46.309 58.8525 46.8854 58.7303 46.7425C58.6702 46.679 58.8091 46.4299 59.1812 46.1694C59.5472 45.9096 60.1684 45.6611 60.8837 45.6765C61.5991 45.6932 62.1969 45.967 62.5382 46.2429C62.8875 46.5201 63.0031 46.7739 62.9363 46.8353Z" fill="#B38C67"/>
<path d="M52.2212 46.8732C52.0862 47.0101 51.2867 46.3976 50.1379 46.3802C48.9904 46.3468 48.1374 46.9233 48.0145 46.7803C47.9544 46.7169 48.0927 46.4684 48.4654 46.2072C48.8314 45.9474 49.4519 45.6989 50.1679 45.7143C50.884 45.731 51.4811 46.0049 51.8231 46.2807C52.1704 46.5586 52.2866 46.8124 52.2212 46.8732Z" fill="#B38C67"/>
<path d="M55.9306 55.8888C55.9266 55.8234 56.6427 55.7125 57.8029 55.5849C58.0968 55.5602 58.3753 55.5061 58.4287 55.307C58.5015 55.096 58.384 54.778 58.2477 54.4341C57.9839 53.7194 57.7087 52.9699 57.4188 52.1844C56.2693 48.9824 55.4424 46.352 55.572 46.3066C55.7015 46.2612 56.7382 48.8201 57.8877 52.0221C58.1642 52.8116 58.4287 53.5644 58.6799 54.2844C58.7847 54.6197 58.9697 55.0011 58.8121 55.4386C58.7293 55.6564 58.5109 55.812 58.3225 55.8594C58.1328 55.9135 57.9678 55.9135 57.8229 55.9202C56.6567 55.9616 55.934 55.9543 55.9306 55.8888Z" fill="#263238"/>
<path d="M52.1142 43.2037C51.9732 43.5049 50.8438 43.2544 49.4865 43.2945C48.1279 43.3079 47.0098 43.6031 46.8569 43.3085C46.7894 43.1676 47.0045 42.8917 47.47 42.6306C47.9309 42.3687 48.6496 42.145 49.4638 42.1283C50.278 42.1129 51.0047 42.3073 51.4756 42.5504C51.9499 42.7936 52.1763 43.0601 52.1142 43.2037Z" fill="#F6BAA6"/>
<path d="M63.3004 43.0483C63.0626 43.3074 62.1448 43.0276 61.0381 43.0049C59.9326 42.9487 58.9928 43.1611 58.7798 42.886C58.6863 42.753 58.8359 42.4925 59.248 42.2494C59.6534 42.007 60.3307 41.8119 61.0908 41.8386C61.8516 41.8667 62.5082 42.1091 62.8909 42.3797C63.279 42.6515 63.4045 42.9214 63.3004 43.0483Z" fill="#F6BAA6"/>
<path d="M40.2067 50.3363C40.0804 50.2788 35.0956 48.7272 35.1698 53.8416C35.2439 58.9566 40.3636 57.8265 40.3703 57.6802C40.377 57.5333 40.2067 50.3363 40.2067 50.3363Z" fill="#FDD7C6"/>
<path d="M38.6887 55.7864C38.666 55.7704 38.6006 55.8499 38.451 55.9213C38.3053 55.9908 38.0535 56.0409 37.785 55.9447C37.242 55.7544 36.7744 54.9027 36.7364 53.9817C36.7163 53.5168 36.8078 53.0719 36.9668 52.7026C37.1178 52.3265 37.3555 52.0613 37.6274 52.0092C37.8972 51.9424 38.0923 52.1028 38.1571 52.2457C38.2279 52.388 38.1965 52.4902 38.2239 52.4988C38.2379 52.5115 38.3321 52.4113 38.288 52.2009C38.2653 52.0994 38.2031 51.9799 38.0816 51.883C37.9573 51.7848 37.7763 51.7367 37.5873 51.7601C37.1932 51.7928 36.8432 52.1609 36.6676 52.5663C36.4705 52.9737 36.3576 53.4734 36.3797 53.9963C36.4271 55.0263 36.9688 55.9835 37.7115 56.1865C38.0729 56.2753 38.3715 56.1625 38.5244 56.0389C38.6814 55.91 38.7061 55.7951 38.6887 55.7864Z" fill="#F6BAA6"/>
<path d="M61.3099 34.4414C62.1268 33.9652 59.5807 31.3429 57.5254 30.4679C54.4189 29.1447 49.7046 28.3953 46.8892 29.2656C43.4995 30.3129 40.7042 32.0769 39.0637 35.2222C37.4233 38.3682 36.8629 42.0018 37.0459 45.5445C37.1013 46.6259 37.2396 47.7507 37.8394 48.6517C38.5801 49.7658 39.9674 50.4458 39.9434 52.0068C39.9347 52.5772 40.1104 53.1489 40.5111 53.555C41.4696 54.5289 42.5924 53.567 43.0974 52.6166C44.1747 50.5874 44.2442 48.1928 44.2896 45.8958C44.3217 44.2634 44.3491 42.5956 43.8528 41.0399C43.583 40.193 43.1622 39.3975 42.9391 38.5372C42.716 37.6769 42.72 36.695 43.2416 35.9757C43.3265 35.8588 43.4681 35.7105 43.6471 35.5455C45.0658 34.2424 47.0843 33.8149 48.9144 34.4147C51.8179 35.3665 56.7713 36.7732 58.033 35.7659C59.8485 34.3165 60.2686 33.3894 60.2686 33.3894L61.3099 34.4414Z" fill="#B38C67"/>
<path d="M40.1998 69.9964L40.9198 67.8457L53.7128 75.4728L57.9668 71.8406L58.9514 76.1161L68.9477 86.1017L70.0037 143.131L67.871 155.051L41.8088 154.172L33.459 106.575L38.9895 82.0627L40.1998 69.9964Z" fill="#FAFBFB"/>
<path d="M40.3617 68.8884C39.7098 69.1088 37.4682 72.3149 37.4682 72.3149L23.813 76.8101L26.108 136.37L18.2852 166.553L53.7525 173.798C53.7525 173.798 56.5858 164.492 58.5409 141.338C60.4959 118.183 54.9341 99.6034 53.3557 95.4221C51.2617 89.8763 40.3617 68.8884 40.3617 68.8884Z" fill="#5274B8"/>
<path d="M60.4977 75.5416L69.7814 80.312L71.7291 124.506L72.6354 172.051L67.3708 172.802C67.3708 172.802 66.5158 117.076 66.081 107.022C65.6469 96.9682 58.7992 76.12 58.7992 76.12L58.2314 72.9907L60.4977 75.5416Z" fill="#5274B8"/>
<path d="M80.2176 121.244L78.8984 120.359L74.2282 87.6105C73.8194 84.7451 72.195 81.861 69.7818 80.312L67.0586 87.1209L69.7737 132.508C69.7737 132.508 72.2458 133.779 76.8078 135.385C81.3698 136.989 90.4897 138.731 90.4897 138.731L93.428 125.142L80.2176 121.244Z" fill="#5274B8"/>
<path d="M56.7671 120.488C56.7565 120.493 56.6656 120.322 56.502 119.992C56.329 119.632 56.0959 119.148 55.804 118.541C55.1968 117.243 54.3439 115.417 53.2952 113.176C51.1952 108.604 48.3178 102.341 45.1391 95.4208C42.5942 89.8115 40.2444 84.633 38.3575 80.4737L38.3301 80.4136L38.3582 80.3555C38.9961 79.0444 39.5819 77.8407 40.1095 76.7567L40.193 76.9217C38.8538 76.6538 37.707 76.4254 36.7378 76.2317L36.667 76.2177L36.6683 76.1475C36.6857 74.978 36.6991 74.0622 36.7091 73.4037C36.7184 73.1124 36.7258 72.8793 36.7311 72.6936C36.7385 72.534 36.7465 72.4525 36.7545 72.4525C36.7625 72.4525 36.7699 72.534 36.7772 72.6936C36.7832 72.8793 36.7906 73.1124 36.7992 73.4037C36.8093 74.0622 36.8226 74.9786 36.84 76.1475L36.7705 76.0634C37.743 76.2397 38.8939 76.4488 40.2378 76.6932L40.3861 76.72L40.3206 76.8582C39.8056 77.949 39.2339 79.1592 38.6107 80.4771L38.612 80.3589C40.5163 84.5101 42.8875 89.6792 45.4557 95.2772C48.5983 102.214 51.443 108.492 53.519 113.074C54.5256 115.335 55.3444 117.176 55.9269 118.485C56.1941 119.104 56.4071 119.597 56.5654 119.964C56.7084 120.302 56.7778 120.483 56.7671 120.488Z" fill="#263238"/>
<path d="M24.3724 76.806C24.3724 76.806 17.8554 76.806 15.4655 91.7056C13.0756 106.605 8.07948 125.172 11.5554 129.299C15.0313 133.425 50.6576 145.116 50.6576 145.116L55.6538 131.362L27.4135 118.984L32.2327 94.897" fill="#5274B8"/>
<path d="M32.2313 94.8965C32.2313 94.8965 32.2146 95.0421 32.1638 95.3233C32.1097 95.6159 32.0323 96.03 31.9321 96.5697C31.7183 97.6765 31.4071 99.2869 31.007 101.36C30.1854 105.531 28.9998 111.554 27.5324 119.008L27.4616 118.871C35.3252 122.306 44.9608 126.514 55.7186 131.212L55.8588 131.274L55.8067 131.418C54.2077 135.827 52.5392 140.428 50.8179 145.174L50.7611 145.33L50.6035 145.278C46.1818 143.817 41.5897 142.239 36.9215 140.574C31.4271 138.607 26.083 136.622 21.0027 134.496C18.4678 133.422 15.9838 132.34 13.6647 131.029C13.3735 130.869 13.0896 130.695 12.8118 130.51C12.5272 130.339 12.2607 130.135 11.9956 129.931C11.4572 129.519 11.0438 128.935 10.8086 128.311C10.3384 127.058 10.2402 125.75 10.2108 124.482C10.1701 121.936 10.4627 119.475 10.7766 117.099C11.1092 114.724 11.5 112.43 11.9034 110.218C12.7463 105.803 13.5318 101.689 14.2492 97.9329C14.9912 94.1858 15.4227 90.748 16.1815 87.7937C16.9329 84.8454 17.9642 82.3948 19.1538 80.6047C20.326 78.7946 21.7127 77.752 22.7206 77.257C23.2356 77.0226 23.6497 76.8923 23.9369 76.8476C24.2214 76.7915 24.3717 76.8055 24.3717 76.8055C24.3717 76.8095 24.335 76.8109 24.2628 76.8222C24.1907 76.8342 24.0832 76.8463 23.9436 76.8823C23.6617 76.9378 23.2549 77.078 22.7513 77.3198C21.7648 77.8308 20.4109 78.8748 19.2667 80.6795C18.1058 82.4649 17.0993 84.9042 16.3699 87.8418C15.6338 90.778 15.2183 94.2232 14.491 97.9777C13.7863 101.736 13.0155 105.851 12.1873 110.269C11.7905 112.481 11.4058 114.772 11.0798 117.141C10.7719 119.509 10.4867 121.963 10.5314 124.475C10.5615 125.724 10.6664 127.011 11.1126 128.191C11.518 129.411 12.7129 130.076 13.831 130.741C16.1227 132.034 18.6054 133.113 21.1349 134.181C26.2072 136.298 31.548 138.28 37.0391 140.246C41.704 141.91 46.2947 143.489 50.7111 144.952L50.4966 145.056C52.2233 140.312 53.8971 135.713 55.5008 131.306L55.589 131.511C44.8439 126.784 35.2196 122.55 27.3647 119.095L27.2739 119.055L27.2933 118.959C28.8068 111.514 30.0291 105.499 30.8761 101.333C31.3042 99.2655 31.6368 97.6584 31.8653 96.555C31.9802 96.0187 32.0683 95.6065 32.1311 95.3153C32.1912 95.0375 32.2313 94.8965 32.2313 94.8965Z" fill="#263238"/>
<path d="M18.2006 124.261C18.1692 124.249 18.3569 123.653 18.9059 122.815C19.4516 121.98 20.4088 120.932 21.7313 120.146C22.3925 119.757 23.0705 119.474 23.7037 119.276C24.3429 119.098 24.932 118.984 25.433 118.96C26.4349 118.895 27.0447 119.038 27.0387 119.07C27.034 119.132 26.4222 119.079 25.4584 119.204C24.9754 119.259 24.411 119.394 23.7999 119.582C23.1941 119.79 22.5468 120.071 21.909 120.445C20.6352 121.202 19.6887 122.181 19.1063 122.957C18.5219 123.735 18.256 124.287 18.2006 124.261Z" fill="#263238"/>
<path d="M69.7817 89.1187C69.7937 89.1173 69.8218 89.2716 69.8652 89.5668C69.9093 89.8975 69.966 90.3263 70.0375 90.8593C70.1818 91.9828 70.3661 93.6105 70.5739 95.625C70.9907 99.6527 71.4702 105.228 71.8162 111.398C72.1595 117.569 72.3051 123.164 72.3392 127.213C72.3572 129.237 72.3552 130.876 72.3372 132.008C72.3259 132.546 72.3172 132.978 72.3105 133.312C72.3005 133.61 72.2898 133.766 72.2778 133.766C72.2657 133.766 72.2531 133.61 72.241 133.312C72.231 132.979 72.2183 132.546 72.203 132.009C72.1762 130.836 72.1395 129.209 72.0947 127.217C71.9972 123.171 71.8135 117.583 71.4702 111.417C71.1242 105.253 70.6847 99.6794 70.3301 95.6484C70.1531 93.6633 70.0081 92.0429 69.9039 90.874C69.8598 90.3383 69.8238 89.9068 69.7964 89.5749C69.775 89.277 69.7697 89.12 69.7817 89.1187Z" fill="#263238"/>
<path d="M32.9656 89.3425C32.9115 89.3539 32.7552 88.7113 32.4266 87.7014C32.0993 86.6915 31.571 85.3209 30.8062 83.8969C30.038 82.4735 29.1844 81.2779 28.5198 80.4503C27.8566 79.6207 27.4044 79.1385 27.4438 79.0991C27.4718 79.0697 27.9875 79.4918 28.7082 80.2914C29.4289 81.0882 30.3313 82.2831 31.1128 83.7319C31.8916 85.1813 32.3925 86.592 32.663 87.632C32.9349 88.6719 33.0057 89.3352 32.9656 89.3425Z" fill="#263238"/>
<path d="M76.2503 130.238C76.2048 130.236 76.1714 129.681 76.1935 128.778C76.2229 127.881 76.3017 126.608 76.7732 125.282C77.2488 123.954 78.1104 122.936 78.8799 122.428C79.6514 121.905 80.2432 121.843 80.2445 121.875C80.2659 121.934 79.7168 122.082 79.0255 122.625C78.3329 123.157 77.5534 124.136 77.1005 125.4C76.649 126.667 76.5301 127.905 76.4386 128.792C76.3545 129.685 76.301 130.24 76.2503 130.238Z" fill="#263238"/>
<path d="M59.2501 76.806C59.2655 76.826 59.0003 77.0645 58.5081 77.4786C57.9564 77.9301 57.2497 78.5085 56.4047 79.1998L56.2992 79.286L56.2191 79.1711C55.5004 78.1378 54.6487 76.9135 53.7123 75.5669L54.0002 75.5456C53.5607 76.4593 53.0871 77.4438 52.5962 78.4644C52.2769 79.1224 51.9643 79.7662 51.6631 80.3868L51.5783 80.5611L51.4166 80.4562C49.2151 79.0282 47.2921 77.7624 45.9242 76.8454C45.2863 76.4099 44.7533 76.0459 44.3245 75.7533C43.9538 75.4921 43.7561 75.3405 43.7681 75.3225C43.7795 75.3044 43.9985 75.422 44.3899 75.6518C44.8328 75.921 45.3852 76.2569 46.0451 76.6577C47.4451 77.5247 49.3921 78.7537 51.6016 80.169L51.3552 80.2385C51.6544 79.6173 51.965 78.9727 52.2829 78.3135C52.7785 77.2956 53.2561 76.313 53.6996 75.4013L53.8265 75.1401L53.9875 75.3799C54.9006 76.7425 55.7308 77.9815 56.4315 79.0275L56.2464 78.9988C57.1194 78.3435 57.8495 77.7952 58.4199 77.367C58.9389 76.9863 59.2341 76.7859 59.2501 76.806Z" fill="#263238"/>
<path d="M63.0097 155.513C63.0037 155.513 63.0031 155.442 63.0071 155.305C63.0138 155.149 63.0224 154.948 63.0331 154.696C63.0652 154.137 63.1099 153.354 63.1674 152.356C63.2355 151.341 63.3103 150.098 63.3557 148.654C63.4072 147.21 63.502 145.567 63.5134 143.748C63.5287 142.839 63.5454 141.886 63.5628 140.894C63.5775 139.902 63.5541 138.869 63.5521 137.8C63.5615 135.662 63.4713 133.379 63.3991 130.976C63.1901 126.173 62.8174 120.898 62.1909 115.385C61.539 109.873 60.6947 104.652 59.7996 99.9278C59.3194 97.572 58.8852 95.3284 58.387 93.2492C58.1445 92.2078 57.9308 91.1973 57.6896 90.2348C57.4458 89.2729 57.2121 88.3498 56.989 87.4675C56.5615 85.6995 56.0933 84.1218 55.7132 82.7278C55.3385 81.3319 54.9818 80.1403 54.6826 79.1678C54.3987 78.2099 54.1756 77.4578 54.0167 76.9215C53.9485 76.6784 53.8944 76.4853 53.8517 76.3344C53.8163 76.2015 53.8009 76.1327 53.8069 76.1307C53.8123 76.1287 53.839 76.1941 53.8858 76.3237C53.9365 76.472 54.002 76.6617 54.0835 76.9001C54.2571 77.4318 54.5016 78.1785 54.8122 79.1283C55.1308 80.0955 55.5068 81.2824 55.9002 82.6744C56.299 84.0644 56.7839 85.6394 57.2268 87.4054C57.4572 88.2871 57.699 89.2095 57.9501 90.1706C58.1986 91.1331 58.419 92.1431 58.6682 93.1844C59.1798 95.2643 59.6253 97.5092 60.1142 99.8671C61.028 104.595 61.8836 109.825 62.5368 115.346C63.164 120.868 63.5281 126.153 63.7197 130.964C63.7825 133.371 63.8627 135.658 63.8406 137.8C63.8366 138.87 63.8533 139.904 63.8313 140.898C63.8066 141.891 63.7825 142.845 63.7598 143.756C63.7324 145.576 63.6202 147.22 63.5508 148.665C63.4866 150.11 63.3925 151.352 63.3036 152.367C63.2188 153.363 63.152 154.145 63.1039 154.702C63.0785 154.954 63.0592 155.153 63.0431 155.309C63.0264 155.444 63.0158 155.513 63.0097 155.513Z" fill="#263238"/>
<path d="M73.9451 144.189L60.8663 131.072C60.5577 130.763 60.5491 130.265 60.8456 129.945C61.1595 129.606 61.6926 129.596 62.0192 129.923L75.098 143.04C75.4066 143.349 75.4153 143.847 75.1187 144.167C74.8041 144.507 74.2711 144.517 73.9451 144.189Z" fill="#263238"/>
<path d="M55.4955 131.606C55.581 131.669 61.2531 131.878 63.0051 132.256C64.757 132.633 68.9149 133.682 70.2441 134.625C71.5733 135.569 74.2531 138.99 73.5785 139.489C72.9038 139.988 72.0803 139.896 71.6448 139.489C71.2781 139.145 68.0192 136.658 68.0192 136.658C68.0192 136.658 66.0635 136.003 66.0034 136.506C65.9433 137.009 70.8593 139.677 70.0738 140.872C69.2883 142.067 67.1736 141.752 67.1736 141.752C67.1736 141.752 67.7781 143.666 67.1135 144.628C66.4489 145.589 64.7871 146.093 64.7871 146.093C64.7871 146.093 65.3268 147.724 63.7124 148.378C62.5422 148.851 60.7768 147.666 60.7768 147.666L53.2165 143.829L51.041 143.701L55.4955 131.606Z" fill="#FDD7C6"/>
<path d="M51.9376 56.4794C52.8968 56.8401 53.8292 57.2902 54.7236 57.8246L55.6674 58.3656C55.2439 58.8786 54.7743 59.7456 54.2006 59.964C53.6268 60.1824 52.679 60.1123 52.2462 59.6494C51.9002 59.2794 51.7472 58.7083 51.7326 58.1485C51.7192 57.5888 51.8287 57.0304 51.9376 56.4794Z" fill="#F6BAA6"/>
<path d="M55.2059 58.9861C55.1798 58.9721 55.107 59.113 54.926 59.3154C54.751 59.5178 54.4358 59.7749 53.9689 59.8658C53.5127 59.9519 52.8975 59.8731 52.3992 59.5205C51.9303 59.1644 51.7647 58.395 51.8469 57.6863C51.8943 57.2628 52.0138 56.8574 52.1534 56.4827L51.943 56.5628C53.0311 57.1152 53.9836 57.5855 54.6689 57.9094C55.3542 58.2334 55.7716 58.411 55.7883 58.3783C55.805 58.3456 55.419 58.1084 54.7577 57.7371C54.0971 57.3657 53.1614 56.8614 52.0813 56.2943L51.9324 56.2162L51.8709 56.3745C51.7206 56.7619 51.5904 57.1907 51.5383 57.6516C51.4574 58.4291 51.6131 59.2847 52.2303 59.7502C52.8314 60.1517 53.5033 60.2011 54.0156 60.0788C54.5366 59.9479 54.8652 59.6267 55.0202 59.3889C55.1832 59.1498 55.2179 58.9908 55.2059 58.9861Z" fill="#263238"/>
</svg>
