<svg width="275" height="85" viewBox="0 0 275 85" fill="none" xmlns="http://www.w3.org/2000/svg">
<path d="M87.576 0.113566L19.576 19.9483C18.8578 20.1576 18.2443 20.6418 17.8612 21.3019C17.478 21.9619 17.3542 22.7479 17.515 23.4989L29.593 79.9543C29.7313 80.601 30.0725 81.1828 30.5637 81.6098C31.055 82.0368 31.669 82.2853 32.311 82.3169L86.799 85.0062C87.4842 85.0398 88.159 84.8244 88.7058 84.3977C89.2527 83.971 89.6367 83.36 89.791 82.6713L102.338 26.5932C102.491 25.9101 102.408 25.1935 102.104 24.5664L90.992 1.67045C90.6877 1.04168 90.1799 0.542095 89.5563 0.257866C88.9326 -0.0263643 88.2323 -0.0773984 87.576 0.113566Z" fill="#FFB96A"/>
<path d="M27.8333 29.814V36.654H12.1015V46.3614H25.2026V53.2277H12.1015V68.144H3.1569V29.814H27.8333ZM43.0058 40.4422C45.0753 40.4422 46.9607 40.7667 48.6619 41.4156C50.3631 42.0645 51.8188 42.9941 53.0289 44.2042C54.2566 45.4144 55.2037 46.8876 55.8701 48.6239C56.5541 50.3426 56.8961 52.2806 56.8961 54.4378C56.8961 56.6126 56.5541 58.5769 55.8701 60.3307C55.2037 62.067 54.2566 63.549 53.0289 64.7767C51.8188 65.9868 50.3631 66.9251 48.6619 67.5916C46.9607 68.2405 45.0753 68.565 43.0058 68.565C40.9187 68.565 39.0158 68.2405 37.297 67.5916C35.5958 66.9251 34.1226 65.9868 32.8774 64.7767C31.6497 63.549 30.6939 62.067 30.0099 60.3307C29.3434 58.5769 29.0102 56.6126 29.0102 54.4378C29.0102 52.2806 29.3434 50.3426 30.0099 48.6239C30.6939 46.8876 31.6497 45.4144 32.8774 44.2042C34.1226 42.9941 35.5958 42.0645 37.297 41.4156C39.0158 40.7667 40.9187 40.4422 43.0058 40.4422ZM43.0058 62.5142C44.8824 62.5142 46.2591 61.8565 47.1361 60.5412C48.0305 59.2083 48.4777 57.1914 48.4777 54.4904C48.4777 51.7895 48.0305 49.7814 47.1361 48.466C46.2591 47.1507 44.8824 46.493 43.0058 46.493C41.0766 46.493 39.6647 47.1507 38.7703 48.466C37.8758 49.7814 37.4286 51.7895 37.4286 54.4904C37.4286 57.1914 37.8758 59.2083 38.7703 60.5412C39.6647 61.8565 41.0766 62.5142 43.0058 62.5142ZM61.3725 68.144V40.8632H66.2131C66.6165 40.8632 66.9497 40.8982 67.2128 40.9684C67.4934 41.0385 67.7214 41.1525 67.8968 41.3104C68.0897 41.4507 68.23 41.6436 68.3177 41.8892C68.4229 42.1347 68.5106 42.4328 68.5808 42.7836L69.028 45.3354C70.0277 43.7921 71.1501 42.5732 72.3954 41.6787C73.6406 40.7842 74.9998 40.337 76.473 40.337C77.7183 40.337 78.7179 40.6352 79.4721 41.2315L78.4198 47.2296C78.3496 47.5979 78.2093 47.861 77.9989 48.0188C77.7884 48.1591 77.5078 48.2293 77.157 48.2293C76.8589 48.2293 76.5081 48.1942 76.1047 48.124C75.7013 48.0363 75.1927 47.9925 74.5789 47.9925C72.4392 47.9925 70.7555 49.1325 69.5278 51.4125V68.144H61.3725ZM83.107 68.144V40.8632H88.1581C88.6667 40.8632 89.0876 40.9772 89.4208 41.2052C89.7716 41.4332 90.0171 41.7752 90.1575 42.2312L90.6047 43.7044C91.0607 43.2308 91.5342 42.8011 92.0253 42.4153C92.5164 42.0119 93.0425 41.6699 93.6037 41.3893C94.1825 41.0912 94.7963 40.8632 95.4453 40.7053C96.1117 40.5299 96.8396 40.4422 97.6288 40.4422C99.2774 40.4422 100.637 40.8719 101.706 41.7313C102.794 42.5732 103.618 43.7044 104.179 45.125C104.635 44.2831 105.188 43.5641 105.837 42.9678C106.503 42.3715 107.213 41.8892 107.968 41.5208C108.739 41.1525 109.546 40.8807 110.388 40.7053C111.247 40.5299 112.098 40.4422 112.94 40.4422C114.501 40.4422 115.886 40.679 117.096 41.1525C118.306 41.6085 119.315 42.2838 120.122 43.1782C120.946 44.0551 121.569 45.1425 121.99 46.4404C122.41 47.7207 122.621 49.1763 122.621 50.8074V68.144H114.466V50.8074C114.466 47.9837 113.255 46.5719 110.835 46.5719C109.73 46.5719 108.809 46.9402 108.073 47.6768C107.354 48.3959 106.994 49.4394 106.994 50.8074V68.144H98.8389V50.8074C98.8389 49.2465 98.532 48.1503 97.9182 47.519C97.3043 46.8876 96.4011 46.5719 95.2085 46.5719C94.4719 46.5719 93.7703 46.7385 93.1039 47.0717C92.455 47.405 91.8411 47.8522 91.2624 48.4134V68.144H83.107ZM147.262 68.144C146.49 68.144 145.903 68.0388 145.499 67.8284C145.114 67.6179 144.789 67.1794 144.526 66.513L143.947 65.0135C143.263 65.5922 142.606 66.1008 141.974 66.5393C141.343 66.9777 140.685 67.3548 140.001 67.6705C139.335 67.9687 138.616 68.1879 137.844 68.3282C137.09 68.486 136.248 68.565 135.318 68.565C134.073 68.565 132.942 68.4071 131.925 68.0914C130.907 67.7582 130.039 67.2759 129.32 66.6445C128.619 66.0131 128.075 65.2327 127.689 64.3031C127.303 63.3561 127.11 62.2687 127.11 61.041C127.11 60.0764 127.356 59.0855 127.847 58.0683C128.338 57.051 129.189 56.1303 130.399 55.306C131.609 54.4641 133.24 53.7626 135.292 53.2014C137.344 52.6402 139.931 52.3245 143.053 52.2543V51.0968C143.053 49.5008 142.72 48.352 142.053 47.6505C141.404 46.9314 140.475 46.5719 139.265 46.5719C138.3 46.5719 137.511 46.6771 136.897 46.8876C136.283 47.098 135.731 47.3348 135.239 47.5979C134.766 47.861 134.301 48.0977 133.845 48.3082C133.389 48.5186 132.845 48.6239 132.214 48.6239C131.653 48.6239 131.171 48.4923 130.767 48.2293C130.381 47.9487 130.074 47.6067 129.846 47.2033L128.373 44.6514C130.022 43.1958 131.846 42.1172 133.845 41.4156C135.862 40.6965 138.019 40.337 140.317 40.337C141.965 40.337 143.447 40.6089 144.763 41.1525C146.096 41.6787 147.218 42.4241 148.13 43.3887C149.06 44.3358 149.77 45.467 150.261 46.7824C150.752 48.0977 150.998 49.5359 150.998 51.0968V68.144H147.262ZM137.897 63.1719C138.949 63.1719 139.87 62.9878 140.659 62.6195C141.448 62.2512 142.246 61.6549 143.053 60.8306V57.0423C141.422 57.1124 140.08 57.2527 139.028 57.4632C137.975 57.6737 137.142 57.9367 136.529 58.2524C135.915 58.5681 135.485 58.9276 135.239 59.331C135.011 59.7344 134.897 60.1729 134.897 60.6464C134.897 61.5759 135.152 62.2336 135.66 62.6195C136.169 62.9878 136.914 63.1719 137.897 63.1719ZM156.789 68.144V40.8632H161.84C162.348 40.8632 162.769 40.9772 163.102 41.2052C163.453 41.4332 163.699 41.7752 163.839 42.2312L164.286 43.7044C164.742 43.2308 165.216 42.8011 165.707 42.4153C166.198 42.0119 166.724 41.6699 167.285 41.3893C167.864 41.0912 168.478 40.8632 169.127 40.7053C169.793 40.5299 170.521 40.4422 171.31 40.4422C172.959 40.4422 174.318 40.8719 175.388 41.7313C176.475 42.5732 177.3 43.7044 177.861 45.125C178.317 44.2831 178.869 43.5641 179.518 42.9678C180.185 42.3715 180.895 41.8892 181.649 41.5208C182.421 41.1525 183.228 40.8807 184.069 40.7053C184.929 40.5299 185.779 40.4422 186.621 40.4422C188.182 40.4422 189.568 40.679 190.778 41.1525C191.988 41.6085 192.996 42.2838 193.803 43.1782C194.628 44.0551 195.25 45.1425 195.671 46.4404C196.092 47.7207 196.302 49.1763 196.302 50.8074V68.144H188.147V50.8074C188.147 47.9837 186.937 46.5719 184.517 46.5719C183.412 46.5719 182.491 46.9402 181.754 47.6768C181.035 48.3959 180.676 49.4394 180.676 50.8074V68.144H172.52V50.8074C172.52 49.2465 172.214 48.1503 171.6 47.519C170.986 46.8876 170.083 46.5719 168.89 46.5719C168.153 46.5719 167.452 46.7385 166.785 47.0717C166.137 47.405 165.523 47.8522 164.944 48.4134V68.144H156.789ZM210.526 40.8632V68.144H202.37V40.8632H210.526ZM211.473 33.3918C211.473 34.0408 211.341 34.6546 211.078 35.2334C210.815 35.7946 210.456 36.2944 210 36.7329C209.544 37.1538 209.009 37.4958 208.395 37.7589C207.799 38.0044 207.158 38.1272 206.474 38.1272C205.808 38.1272 205.185 38.0044 204.607 37.7589C204.028 37.4958 203.51 37.1538 203.054 36.7329C202.616 36.2944 202.265 35.7946 202.002 35.2334C201.757 34.6546 201.634 34.0408 201.634 33.3918C201.634 32.7254 201.757 32.1028 202.002 31.524C202.265 30.9452 202.616 30.4366 203.054 29.9982C203.51 29.5597 204.028 29.2177 204.607 28.9722C205.185 28.7266 205.808 28.6039 206.474 28.6039C207.158 28.6039 207.799 28.7266 208.395 28.9722C209.009 29.2177 209.544 29.5597 210 29.9982C210.456 30.4366 210.815 30.9452 211.078 31.524C211.341 32.1028 211.473 32.7254 211.473 33.3918ZM217.111 68.144V40.8632H222.162C222.671 40.8632 223.091 40.9772 223.425 41.2052C223.775 41.4332 224.021 41.7752 224.161 42.2312L224.635 43.8096C225.161 43.3185 225.705 42.8625 226.266 42.4416C226.827 42.0207 227.423 41.6699 228.055 41.3893C228.704 41.0912 229.396 40.8632 230.133 40.7053C230.887 40.5299 231.703 40.4422 232.58 40.4422C234.07 40.4422 235.386 40.7053 236.526 41.2315C237.683 41.7401 238.657 42.4592 239.446 43.3887C240.235 44.3007 240.831 45.3968 241.235 46.6771C241.638 47.9399 241.84 49.3166 241.84 50.8074V68.144H233.685V50.8074C233.685 49.4745 233.378 48.4397 232.764 47.7031C232.15 46.949 231.247 46.5719 230.054 46.5719C229.16 46.5719 228.318 46.7648 227.529 47.1507C226.739 47.5365 225.985 48.0539 225.266 48.7028V68.144H217.111ZM266.784 68.144C266.275 68.144 265.845 68.03 265.494 67.802C265.161 67.574 264.924 67.232 264.784 66.7761L264.153 64.6978C263.609 65.2765 263.039 65.8027 262.443 66.2762C261.846 66.7497 261.198 67.1619 260.496 67.5127C259.812 67.8459 259.067 68.1002 258.26 68.2756C257.471 68.4685 256.611 68.565 255.682 68.565C254.261 68.565 252.946 68.2493 251.736 67.6179C250.526 66.9865 249.482 66.0745 248.605 64.8819C247.728 63.6893 247.035 62.2336 246.527 60.5149C246.036 58.7786 245.79 56.8055 245.79 54.5957C245.79 52.5612 246.071 50.6759 246.632 48.9396C247.193 47.1857 247.982 45.6774 249 44.4147C250.034 43.1344 251.271 42.1347 252.709 41.4156C254.147 40.6965 255.734 40.337 257.471 40.337C258.874 40.337 260.058 40.5475 261.022 40.9684C262.004 41.3718 262.89 41.9067 263.679 42.5732V28.7617H271.835V68.144H266.784ZM258.523 62.3038C259.119 62.3038 259.654 62.2512 260.128 62.1459C260.619 62.0232 261.066 61.8565 261.469 61.6461C261.873 61.4356 262.25 61.1726 262.601 60.8569C262.969 60.5412 263.328 60.1729 263.679 59.752V48.1766C263.048 47.4927 262.373 47.0191 261.654 46.756C260.952 46.4754 260.207 46.3351 259.417 46.3351C258.663 46.3351 257.971 46.4842 257.339 46.7824C256.708 47.0805 256.155 47.5628 255.682 48.2293C255.226 48.8782 254.866 49.7288 254.603 50.7811C254.34 51.8334 254.209 53.1049 254.209 54.5957C254.209 56.0338 254.314 57.244 254.524 58.2261C254.735 59.2083 255.024 60.0063 255.392 60.6201C255.778 61.2164 256.234 61.6461 256.76 61.9092C257.287 62.1722 257.874 62.3038 258.523 62.3038Z" fill="#242424"/>
</svg>
