<svg width="255" height="246" viewBox="0 0 255 246" fill="none" xmlns="http://www.w3.org/2000/svg">
<path d="M6.93272 59.6516L6.93321 59.6515L211.012 2.25427C211.012 2.25421 211.013 2.254 211.013 2.25394C212.537 1.82654 214.163 1.94118 215.61 2.5772C217.058 3.21324 218.233 4.32978 218.936 5.7312L218.937 5.73312L252.286 71.9889C252.286 71.989 252.286 71.9891 252.287 71.9893C252.989 73.3865 253.18 74.9821 252.827 76.5028L252.827 76.5029L215.171 238.781C215.171 238.781 215.171 238.781 215.171 238.781C214.815 240.315 213.927 241.678 212.66 242.631C211.393 243.585 209.827 244.067 208.235 243.992C208.235 243.992 208.234 243.992 208.234 243.992L44.7068 236.21L44.7065 236.21C43.2153 236.139 41.7907 235.583 40.6525 234.629L39.3678 236.162L40.6525 234.629C39.5145 233.675 38.7264 232.378 38.4071 230.938L38.407 230.938L2.15879 67.5678L2.15871 67.5674C1.78747 65.8958 2.07293 64.1458 2.95855 62.6747C3.84442 61.2031 5.26512 60.1202 6.93272 59.6516Z" stroke="#FFB96A" stroke-width="4"/>
</svg>
