<svg width="275" height="83" viewBox="0 0 275 83" fill="none" xmlns="http://www.w3.org/2000/svg">
<g clip-path="url(#clip0_254_1575)">
<path d="M87.576 0.111012L19.576 19.361C18.8578 19.5641 18.2443 20.0341 17.8612 20.6747C17.478 21.3153 17.3542 22.0781 17.515 22.807L29.593 77.598C29.7313 78.2257 30.0725 78.7903 30.5637 79.2048C31.055 79.6192 31.669 79.8604 32.311 79.891L86.799 82.501C87.4842 82.5336 88.159 82.3246 88.7058 81.9105C89.2527 81.4963 89.6367 80.9033 89.791 80.235L102.338 25.81C102.491 25.147 102.408 24.4516 102.104 23.843L90.992 1.622C90.6877 1.01177 90.1799 0.526908 89.5563 0.251057C88.9326 -0.0247937 88.2323 -0.0743233 87.576 0.111012Z" fill="#FFB96A"/>
<path d="M27.8333 29.339V36.1789H12.1015V45.8864H25.2026V52.7527H12.1015V67.669H3.1569V29.339H27.8333ZM43.0058 39.9672C45.0753 39.9672 46.9607 40.2917 48.6619 40.9406C50.3631 41.5895 51.8188 42.519 53.0289 43.7292C54.2566 44.9393 55.2037 46.4125 55.8701 48.1488C56.5541 49.8676 56.8961 51.8056 56.8961 53.9628C56.8961 56.1376 56.5541 58.1018 55.8701 59.8557C55.2037 61.592 54.2566 63.074 53.0289 64.3016C51.8188 65.5118 50.3631 66.4501 48.6619 67.1165C46.9607 67.7655 45.0753 68.0899 43.0058 68.0899C40.9187 68.0899 39.0158 67.7655 37.297 67.1165C35.5958 66.4501 34.1226 65.5118 32.8774 64.3016C31.6497 63.074 30.6939 61.592 30.0099 59.8557C29.3434 58.1018 29.0102 56.1376 29.0102 53.9628C29.0102 51.8056 29.3434 49.8676 30.0099 48.1488C30.6939 46.4125 31.6497 44.9393 32.8774 43.7292C34.1226 42.519 35.5958 41.5895 37.297 40.9406C39.0158 40.2917 40.9187 39.9672 43.0058 39.9672ZM43.0058 62.0392C44.8824 62.0392 46.2591 61.3815 47.1361 60.0661C48.0305 58.7332 48.4777 56.7163 48.4777 54.0154C48.4777 51.3145 48.0305 49.3064 47.1361 47.991C46.2591 46.6756 44.8824 46.0179 43.0058 46.0179C41.0766 46.0179 39.6647 46.6756 38.7703 47.991C37.8758 49.3064 37.4286 51.3145 37.4286 54.0154C37.4286 56.7163 37.8758 58.7332 38.7703 60.0661C39.6647 61.3815 41.0766 62.0392 43.0058 62.0392ZM61.3725 67.669V40.3881H66.2131C66.6165 40.3881 66.9497 40.4232 67.2128 40.4934C67.4934 40.5635 67.7214 40.6775 67.8968 40.8354C68.0897 40.9757 68.23 41.1686 68.3177 41.4141C68.4229 41.6597 68.5106 41.9578 68.5808 42.3086L69.028 44.8604C70.0277 43.317 71.1501 42.0981 72.3954 41.2037C73.6406 40.3092 74.9998 39.862 76.473 39.862C77.7183 39.862 78.7179 40.1601 79.4721 40.7564L78.4198 46.7545C78.3496 47.1228 78.2093 47.3859 77.9989 47.5438C77.7884 47.6841 77.5078 47.7542 77.157 47.7542C76.8589 47.7542 76.5081 47.7192 76.1047 47.649C75.7013 47.5613 75.1927 47.5175 74.5789 47.5175C72.4392 47.5175 70.7555 48.6575 69.5278 50.9374V67.669H61.3725ZM83.107 67.669V40.3881H88.1581C88.6667 40.3881 89.0876 40.5021 89.4208 40.7301C89.7716 40.9581 90.0171 41.3001 90.1575 41.7561L90.6047 43.2293C91.0607 42.7558 91.5342 42.3261 92.0253 41.9403C92.5164 41.5369 93.0425 41.1949 93.6037 40.9143C94.1825 40.6161 94.7963 40.3881 95.4453 40.2303C96.1117 40.0549 96.8396 39.9672 97.6288 39.9672C99.2774 39.9672 100.637 40.3969 101.706 41.2563C102.794 42.0981 103.618 43.2293 104.179 44.6499C104.635 43.8081 105.188 43.089 105.837 42.4927C106.503 41.8964 107.213 41.4141 107.968 41.0458C108.739 40.6775 109.546 40.4057 110.388 40.2303C111.247 40.0549 112.098 39.9672 112.94 39.9672C114.501 39.9672 115.886 40.204 117.096 40.6775C118.306 41.1335 119.315 41.8087 120.122 42.7032C120.946 43.5801 121.569 44.6675 121.99 45.9653C122.41 47.2456 122.621 48.7013 122.621 50.3324V67.669H114.466V50.3324C114.466 47.5087 113.255 46.0969 110.835 46.0969C109.73 46.0969 108.809 46.4652 108.073 47.2018C107.354 47.9208 106.994 48.9644 106.994 50.3324V67.669H98.8389V50.3324C98.8389 48.7715 98.532 47.6753 97.9182 47.0439C97.3043 46.4125 96.4011 46.0969 95.2085 46.0969C94.4719 46.0969 93.7703 46.2635 93.1039 46.5967C92.455 46.9299 91.8411 47.3772 91.2624 47.9384V67.669H83.107ZM147.262 67.669C146.49 67.669 145.903 67.5638 145.499 67.3533C145.114 67.1429 144.789 66.7044 144.526 66.0379L143.947 64.5384C143.263 65.1172 142.606 65.6258 141.974 66.0642C141.343 66.5027 140.685 66.8798 140.001 67.1955C139.335 67.4936 138.616 67.7129 137.844 67.8532C137.09 68.011 136.248 68.0899 135.318 68.0899C134.073 68.0899 132.942 67.9321 131.925 67.6164C130.907 67.2832 130.039 66.8009 129.32 66.1695C128.619 65.5381 128.075 64.7576 127.689 63.8281C127.303 62.881 127.11 61.7937 127.11 60.566C127.11 59.6014 127.356 58.6105 127.847 57.5932C128.338 56.576 129.189 55.6552 130.399 54.8309C131.609 53.9891 133.24 53.2876 135.292 52.7263C137.344 52.1651 139.931 51.8494 143.053 51.7793V50.6217C143.053 49.0258 142.72 47.877 142.053 47.1755C141.404 46.4564 140.475 46.0969 139.265 46.0969C138.3 46.0969 137.511 46.2021 136.897 46.4125C136.283 46.623 135.731 46.8598 135.239 47.1228C134.766 47.3859 134.301 47.6227 133.845 47.8332C133.389 48.0436 132.845 48.1488 132.214 48.1488C131.653 48.1488 131.171 48.0173 130.767 47.7542C130.381 47.4736 130.074 47.1316 129.846 46.7282L128.373 44.1764C130.022 42.7207 131.846 41.6421 133.845 40.9406C135.862 40.2215 138.019 39.862 140.317 39.862C141.965 39.862 143.447 40.1338 144.763 40.6775C146.096 41.2037 147.218 41.949 148.13 42.9136C149.06 43.8607 149.77 44.9919 150.261 46.3073C150.752 47.6227 150.998 49.0608 150.998 50.6217V67.669H147.262ZM137.897 62.6969C138.949 62.6969 139.87 62.5127 140.659 62.1444C141.448 61.7761 142.246 61.1798 143.053 60.3555V56.5672C141.422 56.6374 140.08 56.7777 139.028 56.9882C137.975 57.1986 137.142 57.4617 136.529 57.7774C135.915 58.0931 135.485 58.4526 135.239 58.856C135.011 59.2594 134.897 59.6978 134.897 60.1714C134.897 61.1009 135.152 61.7586 135.66 62.1444C136.169 62.5127 136.914 62.6969 137.897 62.6969ZM156.789 67.669V40.3881H161.84C162.348 40.3881 162.769 40.5021 163.102 40.7301C163.453 40.9581 163.699 41.3001 163.839 41.7561L164.286 43.2293C164.742 42.7558 165.216 42.3261 165.707 41.9403C166.198 41.5369 166.724 41.1949 167.285 40.9143C167.864 40.6161 168.478 40.3881 169.127 40.2303C169.793 40.0549 170.521 39.9672 171.31 39.9672C172.959 39.9672 174.318 40.3969 175.388 41.2563C176.475 42.0981 177.3 43.2293 177.861 44.6499C178.317 43.8081 178.869 43.089 179.518 42.4927C180.185 41.8964 180.895 41.4141 181.649 41.0458C182.421 40.6775 183.228 40.4057 184.069 40.2303C184.929 40.0549 185.779 39.9672 186.621 39.9672C188.182 39.9672 189.568 40.204 190.778 40.6775C191.988 41.1335 192.996 41.8087 193.803 42.7032C194.628 43.5801 195.25 44.6675 195.671 45.9653C196.092 47.2456 196.302 48.7013 196.302 50.3324V67.669H188.147V50.3324C188.147 47.5087 186.937 46.0969 184.517 46.0969C183.412 46.0969 182.491 46.4652 181.754 47.2018C181.035 47.9208 180.676 48.9644 180.676 50.3324V67.669H172.52V50.3324C172.52 48.7715 172.214 47.6753 171.6 47.0439C170.986 46.4125 170.083 46.0969 168.89 46.0969C168.153 46.0969 167.452 46.2635 166.785 46.5967C166.137 46.9299 165.523 47.3772 164.944 47.9384V67.669H156.789ZM210.526 40.3881V67.669H202.37V40.3881H210.526ZM211.473 32.9168C211.473 33.5657 211.341 34.1796 211.078 34.7583C210.815 35.3195 210.456 35.8194 210 36.2579C209.544 36.6788 209.009 37.0208 208.395 37.2838C207.799 37.5294 207.158 37.6521 206.474 37.6521C205.808 37.6521 205.185 37.5294 204.607 37.2838C204.028 37.0208 203.51 36.6788 203.054 36.2579C202.616 35.8194 202.265 35.3195 202.002 34.7583C201.757 34.1796 201.634 33.5657 201.634 32.9168C201.634 32.2503 201.757 31.6277 202.002 31.049C202.265 30.4702 202.616 29.9616 203.054 29.5231C203.51 29.0847 204.028 28.7427 204.607 28.4971C205.185 28.2516 205.808 28.1288 206.474 28.1288C207.158 28.1288 207.799 28.2516 208.395 28.4971C209.009 28.7427 209.544 29.0847 210 29.5231C210.456 29.9616 210.815 30.4702 211.078 31.049C211.341 31.6277 211.473 32.2503 211.473 32.9168ZM217.111 67.669V40.3881H222.162C222.671 40.3881 223.091 40.5021 223.425 40.7301C223.775 40.9581 224.021 41.3001 224.161 41.7561L224.635 43.3346C225.161 42.8435 225.705 42.3875 226.266 41.9666C226.827 41.5457 227.423 41.1949 228.055 40.9143C228.704 40.6161 229.396 40.3881 230.133 40.2303C230.887 40.0549 231.703 39.9672 232.58 39.9672C234.07 39.9672 235.386 40.2303 236.526 40.7564C237.683 41.265 238.657 41.9841 239.446 42.9136C240.235 43.8256 240.831 44.9218 241.235 46.2021C241.638 47.4648 241.84 48.8416 241.84 50.3324V67.669H233.685V50.3324C233.685 48.9994 233.378 47.9647 232.764 47.2281C232.15 46.4739 231.247 46.0969 230.054 46.0969C229.16 46.0969 228.318 46.2898 227.529 46.6756C226.739 47.0615 225.985 47.5788 225.266 48.2278V67.669H217.111ZM266.784 67.669C266.275 67.669 265.845 67.555 265.494 67.327C265.161 67.099 264.924 66.757 264.784 66.301L264.153 64.2227C263.609 64.8015 263.039 65.3276 262.443 65.8012C261.846 66.2747 261.198 66.6869 260.496 67.0376C259.812 67.3709 259.067 67.6252 258.26 67.8005C257.471 67.9935 256.611 68.0899 255.682 68.0899C254.261 68.0899 252.946 67.7742 251.736 67.1429C250.526 66.5115 249.482 65.5995 248.605 64.4069C247.728 63.2143 247.035 61.7586 246.527 60.0398C246.036 58.3035 245.79 56.3305 245.79 54.1206C245.79 52.0862 246.071 50.2008 246.632 48.4645C247.193 46.7107 247.982 45.2024 249 43.9396C250.034 42.6593 251.271 41.6597 252.709 40.9406C254.147 40.2215 255.734 39.862 257.471 39.862C258.874 39.862 260.058 40.0724 261.022 40.4934C262.004 40.8967 262.89 41.4317 263.679 42.0981V28.2867H271.835V67.669H266.784ZM258.523 61.8287C259.119 61.8287 259.654 61.7761 260.128 61.6709C260.619 61.5481 261.066 61.3815 261.469 61.1711C261.873 60.9606 262.25 60.6975 262.601 60.3818C262.969 60.0661 263.328 59.6978 263.679 59.2769V47.7016C263.048 47.0176 262.373 46.5441 261.654 46.281C260.952 46.0004 260.207 45.8601 259.417 45.8601C258.663 45.8601 257.971 46.0092 257.339 46.3073C256.708 46.6055 256.155 47.0878 255.682 47.7542C255.226 48.4031 254.866 49.2538 254.603 50.3061C254.34 51.3584 254.209 52.6299 254.209 54.1206C254.209 55.5588 254.314 56.7689 254.524 57.7511C254.735 58.7332 255.024 59.5312 255.392 60.1451C255.778 60.7414 256.234 61.1711 256.76 61.4341C257.287 61.6972 257.874 61.8287 258.523 61.8287Z" fill="#FEFEFE"/>
</g>
<defs>
<clipPath id="clip0_254_1575">
<rect width="274.964" height="82.504" fill="white"/>
</clipPath>
</defs>
</svg>
