<svg width="202" height="66" viewBox="0 0 202 66" fill="none" xmlns="http://www.w3.org/2000/svg">
<path d="M64.4751 0.0881711L11.6543 15.4875C11.0964 15.65 10.6199 16.026 10.3223 16.5384C10.0246 17.0509 9.92846 17.6611 10.0534 18.2442L19.4353 62.0751C19.5427 62.5772 19.8077 63.0289 20.1893 63.3605C20.5709 63.692 21.0479 63.8849 21.5466 63.9094L63.8715 65.9974C64.4037 66.0234 64.9279 65.8562 65.3527 65.5249C65.7774 65.1936 66.0758 64.7193 66.1956 64.1846L75.9418 20.6465C76.0606 20.1161 75.9963 19.5598 75.7601 19.073L67.1285 1.29691C66.8921 0.808743 66.4977 0.420874 66.0133 0.200202C65.5288 -0.0204688 64.9848 -0.0600908 64.4751 0.0881711Z" fill="#FFB96A"/>
<path d="M8.62 26.36V34.92H19.46V39.22H8.62V51H3.22V22.08H21.46V26.36H8.62ZM32.3794 30.16C33.8994 30.16 35.2794 30.4067 36.5194 30.9C37.7727 31.3933 38.8394 32.0933 39.7194 33C40.6127 33.9067 41.2994 35.0133 41.7794 36.32C42.2594 37.6267 42.4994 39.0867 42.4994 40.7C42.4994 42.3267 42.2594 43.7933 41.7794 45.1C41.2994 46.4067 40.6127 47.52 39.7194 48.44C38.8394 49.36 37.7727 50.0667 36.5194 50.56C35.2794 51.0533 33.8994 51.3 32.3794 51.3C30.846 51.3 29.4527 51.0533 28.1994 50.56C26.946 50.0667 25.8727 49.36 24.9794 48.44C24.0994 47.52 23.4127 46.4067 22.9194 45.1C22.4394 43.7933 22.1994 42.3267 22.1994 40.7C22.1994 39.0867 22.4394 37.6267 22.9194 36.32C23.4127 35.0133 24.0994 33.9067 24.9794 33C25.8727 32.0933 26.946 31.3933 28.1994 30.9C29.4527 30.4067 30.846 30.16 32.3794 30.16ZM32.3794 47.5C34.086 47.5 35.346 46.9267 36.1594 45.78C36.986 44.6333 37.3994 42.9533 37.3994 40.74C37.3994 38.5267 36.986 36.84 36.1594 35.68C35.346 34.52 34.086 33.94 32.3794 33.94C30.646 33.94 29.3594 34.5267 28.5194 35.7C27.6927 36.86 27.2794 38.54 27.2794 40.74C27.2794 42.94 27.6927 44.62 28.5194 45.78C29.3594 46.9267 30.646 47.5 32.3794 47.5ZM50.9281 34.04C51.5681 32.8133 52.3281 31.8533 53.2081 31.16C54.0881 30.4533 55.1281 30.1 56.3281 30.1C57.2748 30.1 58.0348 30.3067 58.6081 30.72L58.2881 34.42C58.2215 34.66 58.1215 34.8333 57.9881 34.94C57.8681 35.0333 57.7015 35.08 57.4881 35.08C57.2881 35.08 56.9881 35.0467 56.5881 34.98C56.2015 34.9133 55.8215 34.88 55.4481 34.88C54.9015 34.88 54.4148 34.96 53.9881 35.12C53.5615 35.28 53.1748 35.5133 52.8281 35.82C52.4948 36.1133 52.1948 36.4733 51.9281 36.9C51.6748 37.3267 51.4348 37.8133 51.2081 38.36V51H46.2681V30.48H49.1681C49.6748 30.48 50.0281 30.5733 50.2281 30.76C50.4281 30.9333 50.5615 31.2533 50.6281 31.72L50.9281 34.04ZM61.19 51V30.48H64.21C64.85 30.48 65.27 30.78 65.47 31.38L65.79 32.9C66.15 32.5 66.5233 32.1333 66.91 31.8C67.31 31.4667 67.73 31.18 68.17 30.94C68.6233 30.7 69.1033 30.5133 69.61 30.38C70.13 30.2333 70.6967 30.16 71.31 30.16C72.6033 30.16 73.6633 30.5133 74.49 31.22C75.33 31.9133 75.9567 32.84 76.37 34C76.69 33.32 77.09 32.74 77.57 32.26C78.05 31.7667 78.5767 31.3667 79.15 31.06C79.7233 30.7533 80.33 30.5267 80.97 30.38C81.6233 30.2333 82.2767 30.16 82.93 30.16C84.0633 30.16 85.07 30.3333 85.95 30.68C86.83 31.0267 87.57 31.5333 88.17 32.2C88.77 32.8667 89.2233 33.68 89.53 34.64C89.85 35.6 90.01 36.7 90.01 37.94V51H85.07V37.94C85.07 36.6333 84.7833 35.6533 84.21 35C83.6367 34.3333 82.7967 34 81.69 34C81.1833 34 80.71 34.0867 80.27 34.26C79.8433 34.4333 79.4633 34.6867 79.13 35.02C78.81 35.34 78.5567 35.7467 78.37 36.24C78.1833 36.7333 78.09 37.3 78.09 37.94V51H73.13V37.94C73.13 36.5667 72.85 35.5667 72.29 34.94C71.7433 34.3133 70.9367 34 69.87 34C69.15 34 68.4767 34.18 67.85 34.54C67.2367 34.8867 66.6633 35.3667 66.13 35.98V51H61.19ZM105.546 42.24C104.119 42.3067 102.919 42.4333 101.946 42.62C100.972 42.7933 100.192 43.02 99.6056 43.3C99.019 43.58 98.599 43.9067 98.3456 44.28C98.0923 44.6533 97.9656 45.06 97.9656 45.5C97.9656 46.3667 98.219 46.9867 98.7256 47.36C99.2456 47.7333 99.919 47.92 100.746 47.92C101.759 47.92 102.632 47.74 103.366 47.38C104.112 47.0067 104.839 46.4467 105.546 45.7V42.24ZM94.2256 33.34C96.5856 31.18 99.4256 30.1 102.746 30.1C103.946 30.1 105.019 30.3 105.966 30.7C106.912 31.0867 107.712 31.6333 108.366 32.34C109.019 33.0333 109.512 33.8667 109.846 34.84C110.192 35.8133 110.366 36.88 110.366 38.04V51H108.126C107.659 51 107.299 50.9333 107.046 50.8C106.792 50.6533 106.592 50.3667 106.446 49.94L106.006 48.46C105.486 48.9267 104.979 49.34 104.486 49.7C103.992 50.0467 103.479 50.34 102.946 50.58C102.412 50.82 101.839 51 101.226 51.12C100.626 51.2533 99.959 51.32 99.2256 51.32C98.359 51.32 97.559 51.2067 96.8256 50.98C96.0923 50.74 95.459 50.3867 94.9256 49.92C94.3923 49.4533 93.979 48.8733 93.6856 48.18C93.3923 47.4867 93.2456 46.68 93.2456 45.76C93.2456 45.24 93.3323 44.7267 93.5056 44.22C93.679 43.7 93.959 43.2067 94.3456 42.74C94.7456 42.2733 95.259 41.8333 95.8856 41.42C96.5123 41.0067 97.279 40.6467 98.1856 40.34C99.1056 40.0333 100.172 39.7867 101.386 39.6C102.599 39.4 103.986 39.28 105.546 39.24V38.04C105.546 36.6667 105.252 35.6533 104.666 35C104.079 34.3333 103.232 34 102.126 34C101.326 34 100.659 34.0933 100.126 34.28C99.6056 34.4667 99.1456 34.68 98.7456 34.92C98.3456 35.1467 97.979 35.3533 97.6456 35.54C97.3256 35.7267 96.9656 35.82 96.5656 35.82C96.219 35.82 95.9256 35.7333 95.6856 35.56C95.4456 35.3733 95.2523 35.16 95.1056 34.92L94.2256 33.34ZM115.018 51V30.48H118.038C118.678 30.48 119.098 30.78 119.298 31.38L119.618 32.9C119.978 32.5 120.351 32.1333 120.738 31.8C121.138 31.4667 121.558 31.18 121.998 30.94C122.451 30.7 122.931 30.5133 123.438 30.38C123.958 30.2333 124.525 30.16 125.138 30.16C126.431 30.16 127.491 30.5133 128.318 31.22C129.158 31.9133 129.785 32.84 130.198 34C130.518 33.32 130.918 32.74 131.398 32.26C131.878 31.7667 132.405 31.3667 132.978 31.06C133.551 30.7533 134.158 30.5267 134.798 30.38C135.451 30.2333 136.105 30.16 136.758 30.16C137.891 30.16 138.898 30.3333 139.778 30.68C140.658 31.0267 141.398 31.5333 141.998 32.2C142.598 32.8667 143.051 33.68 143.358 34.64C143.678 35.6 143.838 36.7 143.838 37.94V51H138.898V37.94C138.898 36.6333 138.611 35.6533 138.038 35C137.465 34.3333 136.625 34 135.518 34C135.011 34 134.538 34.0867 134.098 34.26C133.671 34.4333 133.291 34.6867 132.958 35.02C132.638 35.34 132.385 35.7467 132.198 36.24C132.011 36.7333 131.918 37.3 131.918 37.94V51H126.958V37.94C126.958 36.5667 126.678 35.5667 126.118 34.94C125.571 34.3133 124.765 34 123.698 34C122.978 34 122.305 34.18 121.678 34.54C121.065 34.8867 120.491 35.3667 119.958 35.98V51H115.018ZM153.654 30.48V51H148.694V30.48H153.654ZM154.334 24.5C154.334 24.9267 154.247 25.3267 154.074 25.7C153.9 26.0733 153.667 26.4 153.374 26.68C153.094 26.96 152.76 27.1867 152.374 27.36C151.987 27.52 151.574 27.6 151.134 27.6C150.707 27.6 150.3 27.52 149.914 27.36C149.54 27.1867 149.214 26.96 148.934 26.68C148.654 26.4 148.427 26.0733 148.254 25.7C148.094 25.3267 148.014 24.9267 148.014 24.5C148.014 24.06 148.094 23.6467 148.254 23.26C148.427 22.8733 148.654 22.54 148.934 22.26C149.214 21.98 149.54 21.76 149.914 21.6C150.3 21.4267 150.707 21.34 151.134 21.34C151.574 21.34 151.987 21.4267 152.374 21.6C152.76 21.76 153.094 21.98 153.374 22.26C153.667 22.54 153.9 22.8733 154.074 23.26C154.247 23.6467 154.334 24.06 154.334 24.5ZM163.31 33C163.723 32.5867 164.157 32.2067 164.61 31.86C165.077 31.5 165.563 31.2 166.07 30.96C166.59 30.7067 167.143 30.5133 167.73 30.38C168.317 30.2333 168.957 30.16 169.65 30.16C170.77 30.16 171.763 30.3533 172.63 30.74C173.497 31.1133 174.217 31.6467 174.79 32.34C175.377 33.02 175.817 33.84 176.11 34.8C176.417 35.7467 176.57 36.7933 176.57 37.94V51H171.63V37.94C171.63 36.6867 171.343 35.72 170.77 35.04C170.197 34.3467 169.323 34 168.15 34C167.297 34 166.497 34.1933 165.75 34.58C165.003 34.9667 164.297 35.4933 163.63 36.16V51H158.69V30.48H161.71C162.35 30.48 162.77 30.78 162.97 31.38L163.31 33ZM194.148 35.72C193.588 35.04 192.975 34.56 192.308 34.28C191.655 34 190.948 33.86 190.188 33.86C189.441 33.86 188.768 34 188.168 34.28C187.568 34.56 187.055 34.9867 186.628 35.56C186.201 36.12 185.875 36.84 185.648 37.72C185.421 38.5867 185.308 39.6133 185.308 40.8C185.308 42 185.401 43.02 185.588 43.86C185.788 44.6867 186.068 45.3667 186.428 45.9C186.788 46.42 187.228 46.8 187.748 47.04C188.268 47.2667 188.848 47.38 189.488 47.38C190.515 47.38 191.388 47.1667 192.108 46.74C192.828 46.3133 193.508 45.7067 194.148 44.92V35.72ZM199.088 21.28V51H196.068C195.415 51 195.001 50.7 194.828 50.1L194.408 48.12C193.581 49.0667 192.628 49.8333 191.548 50.42C190.481 51.0067 189.235 51.3 187.808 51.3C186.688 51.3 185.661 51.0667 184.728 50.6C183.795 50.1333 182.988 49.46 182.308 48.58C181.641 47.6867 181.121 46.5867 180.748 45.28C180.388 43.9733 180.208 42.48 180.208 40.8C180.208 39.28 180.415 37.8667 180.828 36.56C181.241 35.2533 181.835 34.12 182.608 33.16C183.381 32.2 184.308 31.4533 185.388 30.92C186.468 30.3733 187.681 30.1 189.028 30.1C190.175 30.1 191.155 30.28 191.968 30.64C192.781 31 193.508 31.4867 194.148 32.1V21.28H199.088Z" fill="#242424"/>
</svg>
