<svg width="115" height="85" viewBox="0 0 115 85" fill="none" xmlns="http://www.w3.org/2000/svg">
<path fill-rule="evenodd" clip-rule="evenodd" d="M54.733 84.6244C54.301 84.1068 53.6962 83.7618 53.1777 83.4168C52.7457 83.158 52.5729 82.8992 52.6593 82.2954C53.5233 77.2062 54.301 72.1169 55.0786 66.9415C55.5971 63.4911 56.1155 60.0408 56.7203 56.418C57.498 56.9355 58.2756 57.4531 58.9669 57.9706C59.1397 58.1431 59.0533 58.4019 59.0533 58.5744C58.8805 59.782 58.7077 61.0759 58.4484 62.2835C58.0164 65.0438 57.5844 67.8903 57.1524 70.6506C56.7203 73.4108 56.2883 76.1711 55.8563 78.9313C55.7699 79.6214 55.6835 80.3977 55.5107 81.0878C55.8563 81.174 56.0291 80.9153 56.2883 80.829C62.8551 77.3787 69.4219 74.0146 75.9887 70.5643C76.1615 70.478 76.3343 70.3918 76.5071 70.3055C76.68 70.2193 76.8528 70.133 77.0256 70.3055C77.7168 70.7368 78.4081 71.2544 79.1857 71.7719C78.8401 71.9444 78.6673 72.1169 78.4081 72.2032C70.8044 76.1711 63.2871 80.139 55.6835 84.1068C55.4243 84.1931 55.165 84.2793 55.0786 84.5381L54.733 84.6244Z" fill="#060606"/>
<path fill-rule="evenodd" clip-rule="evenodd" d="M31.6629 38.045C31.4901 39.4252 31.2308 40.6328 31.058 41.8404C30.4532 45.8083 29.7619 49.6899 29.1571 53.6577C28.8115 55.9867 28.3795 58.3157 28.0338 60.6446C27.9474 61.0759 27.7746 61.2485 27.429 61.3347C26.7378 61.5072 25.9601 61.766 25.2689 62.0248C25.1825 61.8523 25.2689 61.6797 25.2689 61.5072C25.9601 57.1943 26.6514 52.9677 27.3426 48.6548C28.0338 44.5144 28.6387 40.2877 29.3299 36.1473C29.4163 35.8023 29.5027 35.5435 29.9348 35.4573C30.5396 35.2848 31.058 35.1122 31.6629 34.9397C32.0085 34.7672 32.2677 34.8535 32.6133 35.1122C34.0822 36.5786 35.5511 38.045 37.02 39.5114C41.6859 44.1693 46.4382 48.8273 51.104 53.399C51.1904 53.4852 51.2769 53.6577 51.4497 53.744C50.5856 54.089 49.7216 54.2615 48.9439 54.6066C48.6847 54.6928 48.5119 54.4341 48.4255 54.3478C47.3022 53.2265 46.1789 52.1051 44.9693 50.9837C40.649 46.7571 36.4151 42.5304 32.1813 38.3038C32.0085 38.3038 31.9221 38.2175 31.6629 38.045Z" fill="#060606"/>
<path fill-rule="evenodd" clip-rule="evenodd" d="M54.1282 51.415C53.437 50.8112 52.8322 50.2074 52.2273 49.6036C52.0545 49.4311 52.1409 49.1723 52.2273 48.9998C52.7458 47.4471 53.2642 45.8945 53.869 44.3419C55.7699 38.9076 57.6709 33.4733 59.5718 28.0391C59.6582 27.8666 59.7446 27.6078 59.7446 27.4353C59.399 27.349 59.1397 27.5215 58.8805 27.6078C51.7953 29.8505 44.7965 32.0069 37.7112 34.2497C36.588 34.5947 36.9336 34.681 36.1559 33.9046C35.7239 33.4733 35.2919 33.042 34.8599 32.6108C35.0327 32.352 35.3783 32.352 35.6375 32.2657C43.846 29.678 52.0545 27.0902 60.1766 24.5025C60.7814 24.33 61.1271 24.4162 61.5591 24.8475C61.8183 25.1926 62.2503 25.5376 62.596 25.8826C62.9416 26.1414 62.9416 26.4864 62.8552 26.8315C61.9047 29.4192 61.0407 32.0069 60.0902 34.5947C58.1893 40.029 56.2884 45.4632 54.3875 50.8112C54.3875 50.8975 54.301 51.1562 54.1282 51.415Z" fill="#060606"/>
<path fill-rule="evenodd" clip-rule="evenodd" d="M52.6589 56.8496C52.486 57.7122 52.3996 58.4885 52.3132 59.3511C52.3132 59.6961 52.054 59.6961 51.7948 59.7824C49.8939 60.3862 48.0794 60.99 46.2649 61.5075C40.9077 63.2327 35.4642 64.8716 30.1071 66.5968C29.9343 66.683 29.6751 66.7693 29.4158 66.8555C29.5887 67.1143 29.8479 67.2868 30.1071 67.3731C36.1554 71.5135 42.2038 75.7401 48.2522 79.8805C48.7706 80.2256 49.1162 80.5706 48.857 81.2607C48.6842 81.8645 48.6842 82.4683 48.5114 83.0721C48.2522 83.0721 48.0794 82.8996 47.9066 82.8133C40.8213 77.9828 33.7361 73.0661 26.6509 68.2357C26.2188 67.8906 26.046 67.6319 26.1324 67.0281C26.2188 66.5105 26.3917 66.0792 26.3917 65.5617C26.3917 65.1304 26.6509 64.9579 26.9965 64.8716C35.3778 62.1976 43.8455 59.6099 52.2268 56.9359C52.3132 56.9359 52.486 56.9359 52.6589 56.8496Z" fill="#060606"/>
<path fill-rule="evenodd" clip-rule="evenodd" d="M33.4769 3.97302C33.3905 4.8356 33.2177 5.69818 33.1313 6.47451C33.1313 6.81954 32.7857 6.81954 32.5265 6.81954C30.9712 7.33709 29.3295 7.76838 27.7742 8.28593C22.0714 10.0111 16.4551 11.7363 10.7524 13.4614C10.5795 13.5477 10.3203 13.5477 10.1475 13.8064C10.4067 13.979 10.5795 14.1515 10.8388 14.324C16.8871 18.5506 22.8491 22.8635 28.8975 27.0902C29.3295 27.4352 29.5023 27.694 29.4159 28.2978C29.2431 28.9879 29.1567 29.5917 29.0703 30.2817C28.8111 30.1955 28.6382 30.023 28.379 29.9367C21.3802 25.02 14.3814 20.1033 7.38255 15.1866C6.86412 14.8415 6.69131 14.4965 6.86412 13.979C6.95053 13.4614 7.03693 13.0301 7.12334 12.5126C7.12334 12.1675 7.29615 11.995 7.72817 11.8225C9.71549 11.2187 11.7028 10.6149 13.6901 10.0111C20.0841 8.11341 26.3917 6.12947 32.7857 4.2318C32.9585 4.05928 33.2177 4.05928 33.4769 3.97302Z" fill="#060606"/>
<path fill-rule="evenodd" clip-rule="evenodd" d="M59.3987 21.5696C58.7075 21.8284 58.0162 22.0009 57.325 22.2597C56.893 22.4322 56.5473 22.346 56.2017 22.0009C53.8688 19.5857 51.4494 17.2567 49.0301 14.8415C46.1787 11.995 43.3273 9.14847 40.3896 6.30195C40.2168 6.12943 40.1303 5.87066 39.7847 5.7844C39.6119 6.64698 39.4391 7.59582 39.3527 8.4584C38.6615 12.5125 38.0566 16.5667 37.3654 20.5345C36.9334 23.1223 36.5013 25.6238 36.1557 28.2115C36.0693 28.6428 35.9829 28.8153 35.5509 28.9016C34.8596 29.0741 34.082 29.3329 33.3907 29.5916C33.3043 29.0741 33.4771 28.6428 33.5635 28.2978C34.4276 22.9498 35.2916 17.6018 36.1557 12.2538C36.5877 9.40724 37.1062 6.56072 37.5382 3.71421C37.6246 3.36917 37.711 3.19666 38.0566 3.1104C38.6615 2.93788 39.1799 2.76537 39.7847 2.59285C40.2168 2.42033 40.476 2.50659 40.8216 2.85162C43.1545 5.18059 45.4875 7.50956 47.734 9.75227C51.4494 13.4614 55.2513 17.1705 58.9667 20.8796C59.0531 21.0521 59.3123 21.2246 59.3987 21.5696Z" fill="#060606"/>
<path fill-rule="evenodd" clip-rule="evenodd" d="M62.5795 58.2161C62.2331 56.9813 62.0531 55.8446 61.9652 54.6278C61.4173 50.0929 61.8975 45.7161 63.6644 41.5155C66.376 34.9595 71.0472 30.0966 77.4136 26.9949C80.5506 25.484 83.9161 24.4215 87.4237 23.8012C87.6641 24.0774 87.5538 24.4156 87.5357 24.6738C87.5856 25.1961 87.6356 25.7185 87.6856 26.2408C87.7476 26.591 87.5632 26.7511 87.2124 26.8132C84.9234 27.3454 82.6223 28.0497 80.4755 29.0243C74.6685 31.5597 70.236 35.488 67.4125 41.1715C65.5034 44.9298 64.7026 48.9383 64.9239 53.191C65.0178 54.3217 65.1116 55.4525 65.2917 56.5892C65.3537 56.9394 65.3356 57.1976 64.8927 57.3397C64.1851 57.5498 63.3853 57.8399 62.5795 58.2161Z" fill="#060606"/>
<path fill-rule="evenodd" clip-rule="evenodd" d="M74.5533 66.5742C74.6137 65.7136 74.5818 64.9331 74.6422 64.0726C74.6663 63.7284 74.7646 63.5623 75.2015 63.5063C77.4785 63.1461 79.6813 62.6079 81.7419 61.6273C89.3389 58.2655 94.3291 52.5601 96.3676 44.487C97.2003 41.259 97.3435 37.9829 97.0558 34.6768C97.0678 34.5047 96.9998 34.2406 97.0118 34.0684C97.036 33.7242 96.7214 33.2699 96.9981 33.0298C97.1886 32.7836 97.6195 32.8137 97.9702 32.7516C98.5856 32.6216 99.1147 32.4855 99.7361 32.2694C100.002 33.4122 100.09 34.6289 100.098 35.7536C100.274 38.1872 100.191 40.6027 99.8433 43.0863C99.0201 48.6498 96.6878 53.5028 92.8465 57.6452C88.7286 62.0279 83.605 64.6974 77.8024 65.9359C76.738 66.2941 75.6857 66.4802 74.5533 66.5742Z" fill="#060606"/>
<path fill-rule="evenodd" clip-rule="evenodd" d="M99.8374 17.2343C100.096 17.2523 100.194 17.0862 100.373 17.0122C103.897 14.923 107.495 13.0119 111.093 11.1008C111.278 10.9407 111.542 10.8726 111.789 11.0628C112.534 11.5471 113.366 12.0375 114.197 12.5278C114.013 12.6879 113.742 12.842 113.564 12.9161C109.068 15.2834 104.491 17.5587 99.995 19.9261C99.6321 20.1602 99.3555 20.4003 99.0728 20.7266C97.4205 23.2922 95.676 25.9378 94.0238 28.5034C93.729 29.0017 93.729 29.0017 93.23 28.7075C92.731 28.4133 92.3182 28.1251 91.8192 27.8309C91.3203 27.5367 91.3203 27.5367 91.609 27.1244C92.6777 25.4694 93.7465 23.8143 94.8152 22.1593C95.491 21.1687 96.0805 20.1721 96.7562 19.1814C96.9467 18.9353 97.057 18.5971 97.0812 18.2529C97.3451 13.2556 97.6892 8.35043 98.0394 3.35919C98.0575 3.10102 98.0695 2.92891 98.0876 2.67074C98.759 2.97697 99.3321 3.4493 100.003 3.75553C100.755 4.15382 100.897 4.59611 100.837 5.45667C100.527 8.63473 100.298 11.9048 100.074 15.0889C100.026 15.7774 99.8917 16.4598 99.8374 17.2343Z" fill="#060606"/>
<path fill-rule="evenodd" clip-rule="evenodd" d="M81.469 38.3469C81.3845 39.552 79.9707 41.1833 78.7458 41.3574C77.8656 41.5555 77.1079 41.2432 76.5468 40.5987C75.9856 39.9541 75.8676 39.1674 76.1805 38.4108C76.5978 37.4019 77.2616 36.5832 78.246 36.1329C79.052 35.7566 79.8278 35.8107 80.4873 36.2891C81.2269 36.8596 81.6156 37.4922 81.469 38.3469Z" fill="#060606"/>
<path fill-rule="evenodd" clip-rule="evenodd" d="M90.2493 44.0615C90.1647 45.2665 88.7509 46.8979 87.52 47.1581C86.6398 47.3562 85.9683 47.0499 85.321 46.3993C84.7598 45.7547 84.6357 45.0541 84.9487 44.2975C85.372 43.2026 86.0358 42.3839 87.1064 41.9396C88.6322 41.181 90.364 42.4261 90.2493 44.0615Z" fill="#060606"/>
<path fill-rule="evenodd" clip-rule="evenodd" d="M4.79092 17.2567C5.56857 17.688 6.1734 18.2056 6.95105 18.7231C7.21027 18.8956 7.12386 19.1544 7.03746 19.4132C6.77824 21.0521 6.51903 22.691 6.25981 24.3299C5.30935 30.1954 4.3589 35.9747 3.40844 41.8403C3.40844 42.0128 3.23563 42.2716 3.40844 42.5303C3.66765 42.3578 3.92687 42.2716 4.18608 42.0991C10.6665 38.5625 17.1469 35.0259 23.6273 31.4893C24.1457 31.2305 24.4913 31.2305 24.9233 31.5756C25.4418 32.0069 25.9602 32.3519 26.565 32.7832C26.3922 33.042 26.133 33.1282 25.9602 33.2145C18.4429 37.3549 10.9257 41.409 3.49484 45.5494C2.97641 45.8082 2.63079 45.8944 2.19876 45.4631C1.85314 45.1181 1.42112 44.8593 0.98909 44.6005C0.643469 44.428 0.557064 44.1692 0.643469 43.8242C0.98909 41.754 1.33471 39.7701 1.59393 37.6999C2.63079 31.1443 3.75406 24.5887 4.79092 18.033C4.70451 17.7743 4.70451 17.5155 4.79092 17.2567Z" fill="#060606"/>
</svg>
